<?xml version="1.0" encoding="UTF-8" standalone="no"?>
<!-- Created with Inkscape (http://www.inkscape.org/) -->
<svg
   xmlns:dc="http://purl.org/dc/elements/1.1/"
   xmlns:cc="http://creativecommons.org/ns#"
   xmlns:rdf="http://www.w3.org/1999/02/22-rdf-syntax-ns#"
   xmlns:svg="http://www.w3.org/2000/svg"
   xmlns="http://www.w3.org/2000/svg"
   xmlns:xlink="http://www.w3.org/1999/xlink"
   xmlns:sodipodi="http://sodipodi.sourceforge.net/DTD/sodipodi-0.dtd"
   xmlns:inkscape="http://www.inkscape.org/namespaces/inkscape"
   width="32"
   height="32"
   id="svg1381"
   sodipodi:version="0.32"
   inkscape:version="0.45+devel"
   sodipodi:docbase="/home/andrew/Desktop"
   sodipodi:docname="plugin-imgjpeg.svg"
   inkscape:output_extension="org.inkscape.output.svg.inkscape"
   sodipodi:modified="true"
   version="1.0">
  <defs
     id="defs1383">
    <radialGradient
       gradientUnits="userSpaceOnUse"
       fy="39.5928"
       fx="25.0527"
       r="15.7572"
       cy="39.5928"
       cx="25.0527"
       id="aigrd2"
       gradientTransform="matrix(1.25,0,0,1.25,53.52055,-13.37211)">
      <stop
         id="stop8602"
         style="stop-color:#777777;stop-opacity:1.0000000;"
         offset="0.0000000" />
      <stop
         id="stop8604"
         style="stop-color:#000000"
         offset="1" />
    </radialGradient>
    <linearGradient
       id="linearGradient3290">
      <stop
         style="stop-color:#fffcde;stop-opacity:1.0000000;"
         offset="0.0000000"
         id="stop3292" />
      <stop
         id="stop3294"
         offset="0.64485979"
         style="stop-color:#f6e76a;stop-opacity:1.0000000;" />
      <stop
         style="stop-color:#ffb738;stop-opacity:1.0000000;"
         offset="1.0000000"
         id="stop3296" />
    </linearGradient>
    <radialGradient
       inkscape:collect="always"
       xlink:href="#linearGradient3290"
       id="radialGradient2225"
       cx="23.477232"
       cy="26.932789"
       fx="23.477232"
       fy="26.932789"
       r="19.705238"
       gradientTransform="matrix(-0.3454084,-0.302563,0.3392966,-0.4008151,13.50641,33.252279)"
       gradientUnits="userSpaceOnUse" />
    <linearGradient
       inkscape:collect="always"
       xlink:href="#aigrd2"
       id="linearGradient4199"
       x1="26.378906"
       y1="-23.972027"
       x2="31.379433"
       y2="-13.871086"
       gradientUnits="userSpaceOnUse"
       gradientTransform="matrix(0.429861,0,0,0.4640634,2.7041823,-1.4081895)" />
    <linearGradient
       inkscape:collect="always"
       xlink:href="#aigrd2"
       id="linearGradient4207"
       x1="23.954678"
       y1="-30.795774"
       x2="24.179144"
       y2="-37.843987"
       gradientUnits="userSpaceOnUse"
       gradientTransform="matrix(0.5550818,0,0,0.5176762,-0.9227469,-0.7944322)" />
    <linearGradient
       inkscape:collect="always"
       xlink:href="#aigrd2"
       id="linearGradient4213"
       gradientUnits="userSpaceOnUse"
       x1="26.378906"
       y1="-23.972027"
       x2="31.379433"
       y2="-13.871086"
       gradientTransform="matrix(0.4282597,0,0,0.4701099,-22.631645,-1.3032995)" />
  </defs>
  <sodipodi:namedview
     id="base"
     pagecolor="#ffffff"
     bordercolor="#666666"
     borderopacity="1.0"
     inkscape:pageopacity="0.0"
     inkscape:pageshadow="2"
     inkscape:zoom="1"
     inkscape:cx="9.5170875"
     inkscape:cy="20.617449"
     inkscape:current-layer="g1717"
     showgrid="false"
     inkscape:document-units="px"
     inkscape:grid-bbox="true"
     inkscape:window-width="1280"
     inkscape:window-height="710"
     inkscape:window-x="0"
     inkscape:window-y="49"
     inkscape:showpageshadow="false">
    <inkscape:grid
       type="xygrid"
       id="grid7916"
       visible="true"
       enabled="true" />
  </sodipodi:namedview>
  <metadata
     id="metadata1386">
    <rdf:RDF>
      <cc:Work
         rdf:about="">
        <dc:format>image/svg+xml</dc:format>
        <dc:type
           rdf:resource="http://purl.org/dc/dcmitype/StillImage" />
      </cc:Work>
    </rdf:RDF>
  </metadata>
  <g
     id="layer1"
     inkscape:label="Layer 1"
     inkscape:groupmode="layer">
    <g
       inkscape:label="Layer 1"
       id="g1717"
       transform="translate(17.60985,22.71589)">
      <g
         id="g3986"
         inkscape:label="Layer 1"
         transform="matrix(1.431901,0,0,1.431901,-19.76936,-25.24696)">
        <path
           style="opacity:1;fill:url(#radialGradient2225);fill-opacity:1;stroke:#c4a000;stroke-width:0.69837219;stroke-miterlimit:4;stroke-dasharray:none;stroke-opacity:1"
           d="M 7.4524724,2.8125144 L 7.4524724,4.9125126 L 4.656055,4.9125126 L 4.656055,9.0910365 L 2.5718351,9.113483 L 2.5606118,16.090057 L 3.9576348,16.10128 L 3.9667692,20.285992 L 6.7598925,20.27628 L 6.7262227,23.080062 L 18.63551,23.074296 L 18.624287,20.991709 L 21.416335,20.980486 L 21.416335,16.79639 L 22.803586,16.807614 L 22.81481,9.786147 L 20.719366,9.7973703 L 20.719366,5.6111475 L 17.934726,5.6111475 L 17.923502,2.8313225 L 7.4524724,2.8125144 z"
           id="rect4900"
           sodipodi:nodetypes="ccccccccccccccccccccc" />
        <rect
           style="opacity:1;fill:url(#linearGradient4199);fill-opacity:1;stroke:#000000;stroke-width:0.6983723;stroke-miterlimit:4;stroke-dasharray:none;stroke-opacity:1"
           id="rect4954"
           width="4.9397016"
           height="4.8727283"
           x="13.723127"
           y="-12.599331"
           transform="scale(1,-1)" />
        <rect
           style="opacity:0.37362641;fill:none;fill-opacity:1;stroke:#fbfbfb;stroke-width:0.6983723;stroke-miterlimit:4;stroke-dasharray:none;stroke-opacity:1"
           id="rect4962"
           width="3.491606"
           height="3.4736445"
           x="14.439886"
           y="-11.884271"
           transform="scale(1,-1)" />
        <rect
           style="opacity:1;fill:url(#linearGradient4207);fill-opacity:1;stroke:#000000;stroke-width:0.6983723;stroke-miterlimit:4;stroke-dasharray:none;stroke-opacity:1"
           id="rect4966"
           width="4.8913832"
           height="4.168263"
           x="10.25162"
           y="-20.959352"
           transform="scale(1,-1)" />
        <rect
           style="opacity:0.37362641;fill:none;fill-opacity:1;stroke:#fbfbfb;stroke-width:0.6983723;stroke-miterlimit:4;stroke-dasharray:none;stroke-opacity:1"
           id="rect4968"
           width="3.4734046"
           height="2.81723"
           x="10.953608"
           y="-20.29637"
           transform="scale(1,-1)" />
        <rect
           style="opacity:1;fill:url(#linearGradient4213);fill-opacity:1;stroke:#000000;stroke-width:0.6983723;stroke-miterlimit:4;stroke-dasharray:none;stroke-opacity:1"
           id="rect4209"
           width="4.9212999"
           height="4.9362168"
           x="-11.653748"
           y="-12.640255"
           transform="scale(-1,-1)" />
        <rect
           style="opacity:0.37362641;fill:none;fill-opacity:1;stroke:#fbfbfb;stroke-width:0.6983723;stroke-miterlimit:4;stroke-dasharray:none;stroke-opacity:1"
           id="rect4211"
           width="3.4916062"
           height="3.5073142"
           x="-10.943132"
           y="-11.911314"
           transform="scale(-1,-1)" />
        <path
           style="fill:none;fill-opacity:1;stroke:#ffffff;stroke-width:0.69837219;stroke-miterlimit:4;stroke-opacity:0.53205124"
           d="M 8.15625,3.53125 L 8.15625,4.90625 C 8.159324,5.0978002 8.0845863,5.2824086 7.9491224,5.4178724 C 7.8136586,5.5533363 7.6290502,5.628074 7.4375,5.625 L 5.375,5.625 L 5.375,9.09375 C 5.378074,9.2853002 5.3033363,9.4699086 5.1678724,9.6053724 C 5.0324086,9.7408363 4.8478002,9.815574 4.65625,9.8125 L 3.28125,9.84375 L 3.28125,15.375 L 3.96875,15.375 C 4.1603002,15.371926 4.3449086,15.446664 4.4803724,15.582128 C 4.6158363,15.717591 4.690574,15.9022 4.6875,16.09375 L 4.6875,19.5625 L 6.75,19.5625 C 6.9415502,19.559426 7.1261586,19.634164 7.2616224,19.769628 C 7.3970863,19.905091 7.471824,20.0897 7.46875,20.28125 L 7.4375,22.375 L 17.90625,22.34375 L 17.90625,21 C 17.903176,20.80845 17.977914,20.623841 18.113378,20.488378 C 18.248841,20.352914 18.43345,20.278176 18.625,20.28125 L 20.6875,20.25 L 20.6875,16.78125 C 20.684003,16.584061 20.762972,16.394363 20.905362,16.257905 C 21.047753,16.121448 21.240638,16.050619 21.4375,16.0625 L 22.09375,16.0625 L 22.09375,10.5 L 20.71875,10.53125 C 20.5272,10.534324 20.342591,10.459586 20.207128,10.324122 C 20.071664,10.188659 19.996926,10.00405 20,9.8125 L 20,6.34375 L 17.9375,6.34375 C 17.74595,6.346824 17.561341,6.2720863 17.425878,6.1366224 C 17.290414,6.0011586 17.215676,5.8165502 17.21875,5.625 L 17.21875,3.5625 L 8.15625,3.53125 z"
           id="path8690" />
      </g>
    </g>
  </g>
</svg>
