<?xml version="1.0" encoding="UTF-8" standalone="no"?>
<!-- Created with Inkscape (http://www.inkscape.org/) -->
<svg
   xmlns:dc="http://purl.org/dc/elements/1.1/"
   xmlns:cc="http://creativecommons.org/ns#"
   xmlns:rdf="http://www.w3.org/1999/02/22-rdf-syntax-ns#"
   xmlns:svg="http://www.w3.org/2000/svg"
   xmlns="http://www.w3.org/2000/svg"
   xmlns:xlink="http://www.w3.org/1999/xlink"
   xmlns:sodipodi="http://sodipodi.sourceforge.net/DTD/sodipodi-0.dtd"
   xmlns:inkscape="http://www.inkscape.org/namespaces/inkscape"
   width="32"
   height="32"
   id="svg1381"
   sodipodi:version="0.32"
   inkscape:version="0.45+devel"
   sodipodi:docbase="/home/patrick/Projects/Beryl/svn/beryl/trunk/beryl-settings/images"
   sodipodi:docname="plugin-thumbnail.svg"
   inkscape:output_extension="org.inkscape.output.svg.inkscape"
   version="1.0">
  <defs
     id="defs1383">
    <linearGradient
       inkscape:collect="always"
       id="linearGradient3429">
      <stop
         style="stop-color:#000000;stop-opacity:1;"
         offset="0"
         id="stop3431" />
      <stop
         style="stop-color:#000000;stop-opacity:0;"
         offset="1"
         id="stop3433" />
    </linearGradient>
    <linearGradient
       id="linearGradient6732">
      <stop
         id="stop6734"
         offset="0"
         style="stop-color:#ffffff;stop-opacity:1;" />
      <stop
         id="stop6736"
         offset="1"
         style="stop-color:#dddddd;stop-opacity:1;" />
    </linearGradient>
    <linearGradient
       id="linearGradient47870">
      <stop
         id="stop47872"
         offset="0"
         style="stop-color:#000000;stop-opacity:0" />
      <stop
         id="stop47878"
         offset="0.5"
         style="stop-color:#000000;stop-opacity:1" />
      <stop
         id="stop47874"
         offset="1"
         style="stop-color:#000000;stop-opacity:0" />
    </linearGradient>
    <linearGradient
       id="linearGradient51765">
      <stop
         id="stop51767"
         offset="0"
         style="stop-color:#000000;stop-opacity:1" />
      <stop
         id="stop51769"
         offset="1"
         style="stop-color:#000000;stop-opacity:0" />
    </linearGradient>
    <linearGradient
       id="linearGradient8440">
      <stop
         style="stop-color:#edeeec;stop-opacity:1;"
         offset="0"
         id="stop8442" />
      <stop
         style="stop-color:#babdb6;stop-opacity:1;"
         offset="1"
         id="stop8444" />
    </linearGradient>
    <linearGradient
       id="linearGradient2781">
      <stop
         id="stop2783"
         offset="0"
         style="stop-color:#d3d7cf;stop-opacity:1" />
      <stop
         id="stop2785"
         offset="1"
         style="stop-color:#eeeeec;stop-opacity:1" />
    </linearGradient>
    <linearGradient
       id="linearGradient3674">
      <stop
         id="stop3676"
         offset="0"
         style="stop-color:#3465a4;stop-opacity:1" />
      <stop
         id="stop3678"
         offset="1"
         style="stop-color:#729fcf;stop-opacity:1;" />
    </linearGradient>
    <linearGradient
       id="linearGradient3690">
      <stop
         id="stop3692"
         offset="0"
         style="stop-color:white;stop-opacity:1;" />
      <stop
         id="stop3694"
         offset="1"
         style="stop-color:white;stop-opacity:0.46875" />
    </linearGradient>
    <radialGradient
       inkscape:collect="always"
       xlink:href="#linearGradient8440"
       id="radialGradient8753"
       gradientUnits="userSpaceOnUse"
       gradientTransform="matrix(0.123429,9.4219681e-2,-0.1225751,0.161101,12.51648,6.5015931)"
       cx="56.704376"
       cy="10.241054"
       fx="56.704376"
       fy="10.241054"
       r="14.75" />
    <radialGradient
       inkscape:collect="always"
       xlink:href="#linearGradient8440"
       id="radialGradient8757"
       gradientUnits="userSpaceOnUse"
       gradientTransform="matrix(0.1875208,4.3474823e-2,-5.6298289e-2,0.244439,1.6848013,5.6683705)"
       cx="56.704376"
       cy="10.241054"
       fx="56.704376"
       fy="10.241054"
       r="14.75" />
    <radialGradient
       inkscape:collect="always"
       xlink:href="#linearGradient8440"
       id="radialGradient8781"
       gradientUnits="userSpaceOnUse"
       gradientTransform="matrix(0.5127519,0.3745031,-0.5029349,0.6514359,-11.643961,-16.193599)"
       cx="56.704376"
       cy="10.241054"
       fx="56.704376"
       fy="10.241054"
       r="14.75" />
    <radialGradient
       inkscape:collect="always"
       xlink:href="#linearGradient8440"
       id="radialGradient8783"
       gradientUnits="userSpaceOnUse"
       gradientTransform="matrix(0.2395866,0.4251895,-0.5706382,0.3059781,19.109791,-0.3381743)"
       cx="56.704376"
       cy="10.241054"
       fx="56.704376"
       fy="10.241054"
       r="14.75" />
    <radialGradient
       inkscape:collect="always"
       xlink:href="#linearGradient3429"
       id="radialGradient8785"
       gradientUnits="userSpaceOnUse"
       gradientTransform="matrix(1,0,0,0.2834646,0,15.550365)"
       cx="-2.7641447"
       cy="21.702158"
       fx="-2.7641447"
       fy="21.702158"
       r="8.1638689" />
    <radialGradient
       inkscape:collect="always"
       xlink:href="#linearGradient3429"
       id="radialGradient8787"
       gradientUnits="userSpaceOnUse"
       gradientTransform="matrix(1,0,0,0.2834646,0,15.550365)"
       cx="-2.7641447"
       cy="21.702158"
       fx="-2.7641447"
       fy="21.702158"
       r="8.1638689" />
    <radialGradient
       inkscape:collect="always"
       xlink:href="#linearGradient3429"
       id="radialGradient8789"
       gradientUnits="userSpaceOnUse"
       gradientTransform="matrix(1,0,0,0.2834646,0,15.550365)"
       cx="-2.7641447"
       cy="21.702158"
       fx="-2.7641447"
       fy="21.702158"
       r="8.1638689" />
    <radialGradient
       inkscape:collect="always"
       xlink:href="#linearGradient3429"
       id="radialGradient8791"
       gradientUnits="userSpaceOnUse"
       gradientTransform="matrix(1,0,0,0.2834646,0,15.550365)"
       cx="-2.7641447"
       cy="21.702158"
       fx="-2.7641447"
       fy="21.702158"
       r="8.1638689" />
    <linearGradient
       inkscape:collect="always"
       xlink:href="#linearGradient6732"
       id="linearGradient8793"
       gradientUnits="userSpaceOnUse"
       gradientTransform="matrix(90.89845,0,0,40.1329,-3052.485,-568.8747)"
       x1="23.050457"
       y1="10.763837"
       x2="22.963257"
       y2="36.625" />
    <linearGradient
       inkscape:collect="always"
       xlink:href="#linearGradient2781"
       id="linearGradient8795"
       gradientUnits="userSpaceOnUse"
       gradientTransform="translate(5,-6)"
       x1="24.925514"
       y1="40.000107"
       x2="24.925514"
       y2="19.53867" />
    <linearGradient
       inkscape:collect="always"
       xlink:href="#linearGradient3674"
       id="linearGradient8797"
       gradientUnits="userSpaceOnUse"
       gradientTransform="translate(5,-6)"
       x1="23.069359"
       y1="6.7993021"
       x2="23.069359"
       y2="12.403291" />
    <linearGradient
       inkscape:collect="always"
       xlink:href="#linearGradient3690"
       id="linearGradient8799"
       gradientUnits="userSpaceOnUse"
       gradientTransform="matrix(0.9460667,0,0,0.9259333,6.3483493,-4.2140074)"
       x1="9.5"
       y1="16.26436"
       x2="9.5"
       y2="13.408723" />
    <linearGradient
       inkscape:collect="always"
       xlink:href="#linearGradient47870"
       id="linearGradient8801"
       gradientUnits="userSpaceOnUse"
       gradientTransform="matrix(0.9788196,0,0,0.7154223,-8.5008021,52.112719)"
       x1="32.084972"
       y1="-14.402173"
       x2="32.084972"
       y2="-5.5633383" />
    <radialGradient
       inkscape:collect="always"
       xlink:href="#linearGradient51765"
       id="radialGradient8803"
       gradientUnits="userSpaceOnUse"
       gradientTransform="matrix(1.9576392,-8.146468e-7,6.6614241e-7,1.4565793,-59.017557,62.738067)"
       cx="51.4375"
       cy="-12.203125"
       fx="51.4375"
       fy="-12.203125"
       r="2.171875" />
    <radialGradient
       inkscape:collect="always"
       xlink:href="#linearGradient51765"
       id="radialGradient8805"
       gradientUnits="userSpaceOnUse"
       gradientTransform="matrix(-1.9576392,-9.2540676e-8,-1.2888861e-7,1.4565793,110.01781,62.73803)"
       cx="51.4375"
       cy="-12.203125"
       fx="51.4375"
       fy="-12.203125"
       r="2.171875" />
    <linearGradient
       inkscape:collect="always"
       xlink:href="#linearGradient6732"
       id="linearGradient8807"
       gradientUnits="userSpaceOnUse"
       gradientTransform="matrix(1.107828,0,0,1.481798,-11.71993,-26.31118)"
       x1="16.25"
       y1="12.25"
       x2="31.5"
       y2="36.625" />
    <linearGradient
       inkscape:collect="always"
       xlink:href="#linearGradient6732"
       id="linearGradient8811"
       gradientUnits="userSpaceOnUse"
       gradientTransform="matrix(0.6303848,0,0,0.8113799,0.9961569,-5.7974336)"
       x1="16.25"
       y1="12.25"
       x2="31.5"
       y2="36.625" />
    <radialGradient
       inkscape:collect="always"
       xlink:href="#linearGradient8440"
       id="radialGradient8815"
       gradientUnits="userSpaceOnUse"
       gradientTransform="matrix(0.1376264,0.1050482,-0.1366743,0.1796162,-2.4073905,18.511684)"
       cx="56.704376"
       cy="10.241054"
       fx="56.704376"
       fy="10.241054"
       r="14.75" />
    <linearGradient
       inkscape:collect="always"
       xlink:href="#linearGradient6732"
       id="linearGradient8820"
       gradientUnits="userSpaceOnUse"
       gradientTransform="matrix(90.89845,0,0,40.1329,-3052.485,-568.8747)"
       x1="23.050457"
       y1="10.763837"
       x2="22.963257"
       y2="36.625" />
    <linearGradient
       inkscape:collect="always"
       xlink:href="#linearGradient6732"
       id="linearGradient8824"
       gradientUnits="userSpaceOnUse"
       gradientTransform="matrix(1.2312607,0,0,0.5030415,-12.019377,17.009842)"
       x1="23.050457"
       y1="10.763837"
       x2="22.963257"
       y2="36.625" />
  </defs>
  <sodipodi:namedview
     id="base"
     pagecolor="#ffffff"
     bordercolor="#666666"
     borderopacity="1.0"
     inkscape:pageopacity="0.0"
     inkscape:pageshadow="2"
     inkscape:zoom="16"
     inkscape:cx="15.358155"
     inkscape:cy="16.011511"
     inkscape:current-layer="layer1"
     showgrid="false"
     inkscape:document-units="px"
     inkscape:grid-bbox="true"
     inkscape:window-width="874"
     inkscape:window-height="680"
     inkscape:window-x="180"
     inkscape:window-y="57"
     inkscape:showpageshadow="false">
    <inkscape:grid
       type="xygrid"
       id="grid7935"
       empspacing="5"
       visible="true"
       enabled="true"
       dotted="false" />
  </sodipodi:namedview>
  <metadata
     id="metadata1386">
    <rdf:RDF>
      <cc:Work
         rdf:about="">
        <dc:format>image/svg+xml</dc:format>
        <dc:type
           rdf:resource="http://purl.org/dc/dcmitype/StillImage" />
        <dc:title>Thumbnail</dc:title>
        <dc:creator>
          <cc:Agent>
            <dc:title>Patrick Niklaus, Andrew Wedderburn</dc:title>
          </cc:Agent>
        </dc:creator>
        <cc:license
           rdf:resource="http://creativecommons.org/licenses/GPL/2.0/" />
      </cc:Work>
      <cc:License
         rdf:about="http://creativecommons.org/licenses/GPL/2.0/">
        <cc:permits
           rdf:resource="http://web.resource.org/cc/Reproduction" />
        <cc:permits
           rdf:resource="http://web.resource.org/cc/Distribution" />
        <cc:requires
           rdf:resource="http://web.resource.org/cc/Notice" />
        <cc:permits
           rdf:resource="http://web.resource.org/cc/DerivativeWorks" />
        <cc:requires
           rdf:resource="http://web.resource.org/cc/ShareAlike" />
        <cc:requires
           rdf:resource="http://web.resource.org/cc/SourceCode" />
      </cc:License>
    </rdf:RDF>
  </metadata>
  <g
     id="layer1"
     inkscape:label="Layer 1"
     inkscape:groupmode="layer"
     style="display:inline">
    <rect
       style="fill:url(#linearGradient8811);fill-opacity:1;fill-rule:evenodd;stroke:#939393;stroke-width:1;stroke-linecap:butt;stroke-linejoin:miter;stroke-miterlimit:4;stroke-opacity:1;stroke-dasharray:none;stroke-dashoffset:0;marker:none;marker-start:none;marker-mid:none;marker-end:none;visibility:visible;display:inline;overflow:visible"
       id="rect5857"
       width="24.978989"
       height="24.341404"
       x="3.5176978"
       y="1.5049894"
       rx="1.4126636"
       ry="1.3593794" />
    <rect
       ry="0.8613385"
       rx="0.86737078"
       y="2.5251889"
       x="4.5104036"
       height="22.411959"
       width="23.004749"
       id="rect6740"
       style="fill:none;stroke:#ffffff;stroke-width:0.99999988;stroke-linecap:butt;stroke-linejoin:miter;stroke-miterlimit:4;stroke-opacity:1;stroke-dasharray:none;stroke-dashoffset:0;marker:none;marker-start:none;marker-mid:none;marker-end:none;visibility:visible;display:inline;overflow:visible" />
    <g
       id="g54724"
       transform="matrix(0.4845442,0,0,0.5361584,3.847573,-5.1933701)">
      <rect
         id="rect46899"
         style="opacity:0.3;fill:url(#linearGradient8801);fill-opacity:1;fill-rule:evenodd;stroke:none"
         y="41.809082"
         x="9.3215466"
         height="6.3234997"
         width="32.357079" />
      <path
         id="path48849"
         style="opacity:0.3;fill:url(#radialGradient8803);fill-opacity:1;fill-rule:evenodd;stroke:none"
         d="M 41.6785,41.799698 L 41.6785,48.126714 C 44.022298,48.102828 45.930248,46.705313 45.930248,44.974385 C 45.930248,43.243458 44.022299,41.823584 41.6785,41.799698 z" />
      <path
         id="path52742"
         style="opacity:0.3;fill:url(#radialGradient8805);fill-opacity:1;fill-rule:evenodd;stroke:none"
         d="M 9.3217476,41.799698 L 9.3217476,48.126714 C 6.9779494,48.102828 5.07,46.705313 5.07,44.974385 C 5.07,43.243458 6.9779484,41.823584 9.3217476,41.799698 z" />
    </g>
    <g
       transform="matrix(0.5455524,0,0,0.4841339,-0.8665818,3.2815217)"
       id="g2820">
      <rect
         style="opacity:1;fill:url(#linearGradient8795);fill-opacity:1;stroke:#888a85;stroke-width:1.94580388;stroke-miterlimit:4;stroke-opacity:1;stroke-dasharray:none"
         id="rect1915"
         width="33.000038"
         height="30.499985"
         x="13.5"
         y="3"
         rx="1.7902035"
         ry="2" />
      <path
         style="fill:url(#linearGradient8797);fill-opacity:1;stroke:#204a87;stroke-width:1.94580424;stroke-miterlimit:4;stroke-opacity:1"
         d="M 13.499999,8.030334 L 13.499999,4.500005 C 13.499999,3.392005 14.391999,2.500005 15.499999,2.500005 L 44.499999,2.500005 C 45.607999,2.500005 46.499999,3.392005 46.499999,4.500005 L 46.499999,8.030334"
         id="path1917"
         sodipodi:nodetypes="cccccc" />
      <rect
         style="opacity:0.8;fill:none;stroke:url(#linearGradient8799);stroke-width:1.94580507;stroke-miterlimit:4;stroke-opacity:1;stroke-dasharray:none"
         id="rect1919"
         width="29.328072"
         height="26.852074"
         x="15.335982"
         y="4.582366"
         rx="0.84292281"
         ry="0.92166555" />
    </g>
    <path
       transform="matrix(0.4307902,0,0,0.253767,20.612861,11.913431)"
       d="M 5.3997242,21.702158 A 8.1638689,2.3141677 0 1 1 -10.928014,21.702158 A 8.1638689,2.3141677 0 1 1 5.3997242,21.702158 z"
       sodipodi:ry="2.3141677"
       sodipodi:rx="8.1638689"
       sodipodi:cy="21.702158"
       sodipodi:cx="-2.7641447"
       id="path4406"
       style="opacity:0.3;fill:url(#radialGradient8789);fill-opacity:1;fill-rule:evenodd;stroke:none"
       sodipodi:type="arc" />
    <rect
       ry="1.413435"
       rx="1.3472728"
       y="21.537224"
       x="-7.0943232"
       height="15.091249"
       width="48.788696"
       id="rect1742"
       style="fill:url(#linearGradient8824);fill-opacity:1;fill-rule:evenodd;stroke:#939393;stroke-width:1;stroke-linecap:butt;stroke-linejoin:miter;stroke-miterlimit:4;stroke-opacity:1;stroke-dasharray:none;stroke-dashoffset:0;marker:none;marker-start:none;marker-mid:none;marker-end:none;visibility:visible;display:inline;overflow:visible" />
    <rect
       style="fill:none;stroke:#ffffff;stroke-width:0.99999994;stroke-linecap:butt;stroke-linejoin:miter;stroke-miterlimit:4;stroke-opacity:1;stroke-dasharray:none;stroke-dashoffset:0;marker:none;marker-start:none;marker-mid:none;marker-end:none;visibility:visible;display:inline;overflow:visible"
       id="rect1744"
       width="46.569469"
       height="13.536381"
       x="-5.9892612"
       y="22.533413"
       rx="0.85735565"
       ry="0.87247336" />
    <rect
       ry="0.48387089"
       rx="0.52379853"
       y="22.973749"
       x="1.0837308"
       height="12.412689"
       width="29.967628"
       id="rect2396"
       style="opacity:0.60989009" />
    <g
       transform="matrix(0.5156344,0,0,0.430784,-49.733862,26.922786)"
       id="g1506"
       inkscape:label="Layer 1">
      <rect
         style="opacity:1;fill:#c8c8c8;fill-opacity:1;fill-rule:evenodd;stroke:none;marker:none;marker-start:none;marker-mid:none;marker-end:none;visibility:visible;display:inline;overflow:visible"
         id="rect1521"
         width="36.454548"
         height="4.4892092"
         x="116.11745"
         y="-1.98862"
         rx="1.03125"
         ry="1.03125" />
    </g>
    <path
       id="path2212"
       d="M 11.232478,8.5708696 C 11.17241,8.616126 11.162921,8.6975325 11.206869,8.7556095 L 11.85412,9.6109917 C 11.745811,9.7521845 11.659886,9.9085404 11.58567,10.066276 L 10.59663,9.9550005 C 10.524261,9.946762 10.460958,9.9985081 10.452597,10.073247 L 10.326731,11.14128 C 10.31837,11.216018 10.377816,11.283332 10.450184,11.29157 L 11.363014,11.392138 C 11.386284,11.601415 11.432801,11.81011 11.510289,12.011084 L 10.686118,12.632016 C 10.628057,12.675759 10.615043,12.756669 10.660507,12.816756 L 11.31714,13.684532 C 11.362607,13.744619 11.444157,13.754283 11.50222,13.710538 L 12.320194,13.094276 C 12.478416,13.214082 12.651247,13.304435 12.829724,13.381906 L 12.705363,14.439071 C 12.696307,14.513727 12.74564,14.578921 12.81793,14.587832 L 13.881672,14.720683 C 13.953962,14.729594 14.016646,14.677093 14.025705,14.602436 L 14.157938,13.568536 C 14.362345,13.541009 14.566595,13.494352 14.761897,13.415205 L 15.390388,14.245792 C 15.434335,14.303871 15.515398,14.317055 15.575468,14.271798 L 16.443015,13.618187 C 16.503084,13.572929 16.512574,13.491524 16.468626,13.433446 L 15.830754,12.590463 C 15.941257,12.439788 16.025054,12.275235 16.097528,12.107245 L 17.094441,12.241785 C 17.166616,12.251598 17.239367,12.199603 17.24936,12.125069 L 17.392311,11.053898 C 17.402304,10.979362 17.35192,10.91495 17.279745,10.905135 L 16.278141,10.764398 C 16.25138,10.586331 16.206923,10.406999 16.140587,10.235449 L 16.952365,9.623853 C 17.010427,9.5801083 17.023442,9.4991991 16.977976,9.4391133 L 16.321342,8.5713352 C 16.275878,8.5112475 16.194326,8.5015844 16.136264,8.5453282 L 15.330683,9.152256 C 15.162485,9.0240187 14.982312,8.9191897 14.791507,8.8383009 L 14.982865,7.8182467 C 14.99679,7.7443531 14.954258,7.673754 14.882693,7.6601476 L 13.823299,7.4558967 C 13.751737,7.4422893 13.688502,7.4940499 13.674578,7.5679446 L 13.472502,8.6252686 C 13.470091,8.6380586 13.471651,8.6517624 13.472673,8.6640685 C 13.2906,8.6891128 13.107283,8.7320441 12.932357,8.7986451 L 12.285107,7.9432629 C 12.241159,7.8851859 12.160097,7.8719997 12.100027,7.9172568 L 11.232478,8.5708696 z M 13.24854,10.360862 C 13.732857,9.9959769 14.322063,10.108039 14.63102,10.516341 C 14.939973,10.924643 14.886655,11.520785 14.402337,11.88567 C 13.918019,12.250556 13.328814,12.138493 13.019859,11.730191 C 12.710904,11.321891 12.764221,10.725747 13.24854,10.360862 z"
       style="fill:url(#radialGradient8757);fill-opacity:1;fill-rule:evenodd;stroke:#888a85;stroke-width:0.49999997;stroke-linecap:butt;stroke-linejoin:miter;stroke-miterlimit:4;stroke-opacity:1;stroke-dasharray:none;stroke-dashoffset:0" />
    <path
       id="path2320"
       d="M 18.572082,11.805561 C 18.512889,11.818909 18.478876,11.875635 18.491898,11.932939 L 18.683674,12.776923 C 18.557151,12.844822 18.442048,12.931302 18.335096,13.022685 L 17.644897,12.61255 C 17.594426,12.582469 17.530698,12.599517 17.499729,12.651713 L 17.052473,13.395486 C 17.021504,13.447682 17.042852,13.516924 17.093322,13.547005 L 17.731048,13.923967 C 17.67865,14.085616 17.643538,14.254555 17.63376,14.428095 L 16.821592,14.611232 C 16.764376,14.624134 16.727936,14.679324 16.741405,14.73861 L 16.935963,15.594826 C 16.949435,15.654111 17.006182,15.688288 17.063399,15.675386 L 17.86946,15.493626 C 17.945997,15.634264 18.043057,15.758086 18.148546,15.874308 L 17.706005,16.610588 C 17.674552,16.662492 17.689169,16.726818 17.739359,16.757368 L 18.477315,17.208167 C 18.527504,17.238717 18.591027,17.220908 18.622482,17.169004 L 19.063083,16.452449 C 19.222509,16.50005 19.388172,16.53353 19.558048,16.540144 L 19.744267,17.359665 C 19.757287,17.416969 19.812507,17.453573 19.871703,17.440225 L 20.726615,17.247448 C 20.78581,17.2341 20.819823,17.177375 20.806801,17.120071 L 20.617803,16.288318 C 20.749089,16.214174 20.865349,16.120958 20.974427,16.021456 L 21.662688,16.451314 C 21.712493,16.482489 21.783249,16.468394 21.815351,16.41689 L 22.27621,15.676479 C 22.308313,15.624975 22.292663,15.560875 22.242858,15.5297 L 21.553207,15.093725 C 21.592671,14.953872 21.619547,14.807214 21.627751,14.659018 L 22.427706,14.478634 C 22.484924,14.465732 22.521364,14.410542 22.507893,14.351257 L 22.313334,13.49504 C 22.299865,13.435755 22.243116,13.401578 22.1859,13.41448 L 21.39205,13.593487 C 21.310979,13.443337 21.213329,13.306429 21.099912,13.183601 L 21.579384,12.496856 C 21.614164,12.447128 21.606341,12.381084 21.558245,12.347322 L 20.847199,11.84545 C 20.799104,11.811688 20.735423,11.82877 20.700643,11.878498 L 20.200913,12.589099 C 20.194894,12.597705 20.191489,12.608302 20.188152,12.617693 C 20.045972,12.575678 19.896936,12.546407 19.746209,12.53733 L 19.554432,11.693345 C 19.54141,11.636041 19.486192,11.599437 19.426997,11.612785 L 18.572082,11.805561 z M 19.459823,13.791309 C 19.937087,13.68369 20.333061,13.961687 20.424604,14.36455 C 20.516145,14.767411 20.278952,15.188183 19.801688,15.295803 C 19.324424,15.403422 18.92845,15.125425 18.836909,14.722563 C 18.745366,14.319702 18.982559,13.898929 19.459823,13.791309 z"
       style="fill:url(#radialGradient8753);fill-opacity:1;fill-rule:evenodd;stroke:#888a85;stroke-width:0.5;stroke-linecap:butt;stroke-linejoin:miter;stroke-miterlimit:4;stroke-opacity:1;stroke-dasharray:none;stroke-dashoffset:0" />
    <path
       transform="matrix(0.5207784,0,0,0.2917938,14.859936,11.000167)"
       d="M 5.3997242,21.702158 A 8.1638689,2.3141677 0 1 1 -10.928014,21.702158 A 8.1638689,2.3141677 0 1 1 5.3997242,21.702158 z"
       sodipodi:ry="2.3141677"
       sodipodi:rx="8.1638689"
       sodipodi:cy="21.702158"
       sodipodi:cx="-2.7641447"
       id="path2456"
       style="opacity:0.3;fill:url(#radialGradient8791);fill-opacity:1;fill-rule:evenodd;stroke:none"
       sodipodi:type="arc" />
    <path
       id="path8813"
       d="M 4.3447574,24.425232 C 4.2787557,24.440114 4.2408304,24.50336 4.2553503,24.56725 L 4.4691853,25.508232 C 4.328109,25.583935 4.1997662,25.680354 4.0805122,25.782239 L 3.3109228,25.324968 C 3.2546464,25.29143 3.1835881,25.310437 3.149057,25.368632 L 2.6503553,26.197886 C 2.6158241,26.25608 2.6396277,26.333281 2.6959029,26.36682 L 3.4069834,26.787105 C 3.3485584,26.967331 3.3094076,27.155687 3.2985049,27.349172 L 2.3929172,27.553357 C 2.3291199,27.567742 2.2884885,27.629274 2.3035067,27.695374 L 2.5204437,28.649994 C 2.5354653,28.716094 2.5987396,28.754199 2.6625381,28.739814 L 3.5613162,28.537164 C 3.6466569,28.693965 3.7548813,28.832018 3.872504,28.961597 L 3.3790598,29.782497 C 3.3439889,29.840366 3.3602873,29.912086 3.4162504,29.946147 L 4.2390898,30.448755 C 4.2950519,30.482817 4.3658815,30.462961 4.4009546,30.405091 L 4.8922358,29.606184 C 5.0699998,29.659256 5.2547181,29.696584 5.4441342,29.703957 L 5.651773,30.617665 C 5.6662906,30.681555 5.7278623,30.722365 5.7938674,30.707483 L 6.7471157,30.492551 C 6.8131196,30.477669 6.8510449,30.414425 6.8365249,30.350535 L 6.6257875,29.423189 C 6.7721746,29.340524 6.9018074,29.236594 7.0234322,29.125657 L 7.7908604,29.604918 C 7.8463942,29.639676 7.9252889,29.623961 7.9610836,29.566537 L 8.4749528,28.741032 C 8.5107486,28.683608 8.4932983,28.612141 8.4377645,28.577383 L 7.6687864,28.091302 C 7.7127897,27.935376 7.7427571,27.771863 7.7519048,27.606635 L 8.6438746,27.405519 C 8.7076742,27.391135 8.7483057,27.329601 8.7332852,27.263504 L 8.516347,26.308882 C 8.5013287,26.242784 8.4380522,26.204679 8.3742548,26.219063 L 7.4890923,26.418643 C 7.3986961,26.251237 7.2898139,26.098594 7.1633511,25.96165 L 7.6979744,25.195977 C 7.736755,25.140535 7.7280321,25.066901 7.6744039,25.029257 L 6.8815698,24.469705 C 6.8279427,24.432064 6.7569367,24.451108 6.7181562,24.506552 L 6.1609447,25.298822 C 6.1542334,25.308417 6.1504368,25.320232 6.1467159,25.330701 C 5.9881817,25.283858 5.8220028,25.251223 5.6539383,25.241103 L 5.4401023,24.300119 C 5.4255823,24.23623 5.3640129,24.195419 5.298009,24.210301 L 4.3447574,24.425232 z M 5.3346109,26.639202 C 5.8667721,26.519214 6.308293,26.82916 6.4103658,27.278324 C 6.5124363,27.727485 6.2479602,28.196616 5.7157989,28.316606 C 5.1836375,28.436593 4.7421166,28.126645 4.6400461,27.677483 C 4.5379734,27.228321 4.8024495,26.759189 5.3346109,26.639202 z"
       style="fill:url(#radialGradient8815);fill-opacity:1;fill-rule:evenodd;stroke:#888a85;stroke-width:0.5;stroke-linecap:butt;stroke-linejoin:miter;stroke-miterlimit:4;stroke-opacity:1;stroke-dasharray:none;stroke-dashoffset:0;display:inline" />
  </g>
</svg>
