<?xml version="1.0" encoding="UTF-8" standalone="no"?>
<!-- Created with Inkscape (http://www.inkscape.org/) -->
<svg
   xmlns:dc="http://purl.org/dc/elements/1.1/"
   xmlns:cc="http://creativecommons.org/ns#"
   xmlns:rdf="http://www.w3.org/1999/02/22-rdf-syntax-ns#"
   xmlns:svg="http://www.w3.org/2000/svg"
   xmlns="http://www.w3.org/2000/svg"
   xmlns:xlink="http://www.w3.org/1999/xlink"
   xmlns:sodipodi="http://sodipodi.sourceforge.net/DTD/sodipodi-0.dtd"
   xmlns:inkscape="http://www.inkscape.org/namespaces/inkscape"
   inkscape:export-ydpi="90.000000"
   inkscape:export-xdpi="90.000000"
   inkscape:export-filename="/home/jimmac/Desktop/wi-fi.png"
   width="32"
   height="32"
   id="svg11300"
   sodipodi:version="0.32"
   inkscape:version="0.45+devel"
   sodipodi:docbase="/home/patrick/Projects/Beryl/svn/beryl/trunk/beryl-settings/images"
   sodipodi:docname="plugin-session.svg"
   inkscape:output_extension="org.inkscape.output.svg.inkscape"
   version="1.0">
  <sodipodi:namedview
     stroke="#ef2929"
     fill="#eeeeec"
     id="base"
     pagecolor="#ffffff"
     bordercolor="#666666"
     borderopacity="0.25490196"
     inkscape:pageopacity="0.0"
     inkscape:pageshadow="2"
     inkscape:zoom="0.99999996"
     inkscape:cx="10.034872"
     inkscape:cy="28.634287"
     inkscape:current-layer="layer1"
     showgrid="false"
     inkscape:grid-bbox="true"
     inkscape:document-units="px"
     inkscape:showpageshadow="false"
     inkscape:window-width="906"
     inkscape:window-height="680"
     inkscape:window-x="206"
     inkscape:window-y="73"
     showguides="true"
     inkscape:guide-bbox="true"
     inkscape:snap-global="false">
    <inkscape:grid
       type="xygrid"
       id="grid7928"
       visible="true"
       enabled="true" />
  </sodipodi:namedview>
  <defs
     id="defs3">
    <linearGradient
       id="linearGradient5234">
      <stop
         style="stop-color:#d3d7cf;stop-opacity:1"
         offset="0"
         id="stop5236" />
      <stop
         style="stop-color:#eeeeec;stop-opacity:1"
         offset="1"
         id="stop5238" />
    </linearGradient>
    <linearGradient
       id="linearGradient5228">
      <stop
         style="stop-color:#3465a4;stop-opacity:1"
         offset="0"
         id="stop5230" />
      <stop
         style="stop-color:#729fcf;stop-opacity:1;"
         offset="1"
         id="stop5232" />
    </linearGradient>
    <linearGradient
       id="linearGradient5222">
      <stop
         style="stop-color:white;stop-opacity:1;"
         offset="0"
         id="stop5224" />
      <stop
         style="stop-color:white;stop-opacity:0.46875"
         offset="1"
         id="stop5226" />
    </linearGradient>
    <linearGradient
       id="linearGradient47870">
      <stop
         offset="0"
         id="stop47872"
         style="stop-color:#000000;stop-opacity:0" />
      <stop
         offset="0.5"
         id="stop47878"
         style="stop-color:#000000;stop-opacity:1" />
      <stop
         offset="1"
         id="stop47874"
         style="stop-color:#000000;stop-opacity:0" />
    </linearGradient>
    <linearGradient
       id="linearGradient51765">
      <stop
         offset="0"
         id="stop51767"
         style="stop-color:#000000;stop-opacity:1" />
      <stop
         offset="1"
         id="stop51769"
         style="stop-color:#000000;stop-opacity:0" />
    </linearGradient>
    <linearGradient
       id="linearGradient8650"
       inkscape:collect="always">
      <stop
         id="stop8652"
         offset="0"
         style="stop-color:#ffffff;stop-opacity:1;" />
      <stop
         id="stop8654"
         offset="1"
         style="stop-color:#ffffff;stop-opacity:0;" />
    </linearGradient>
    <linearGradient
       id="linearGradient1731">
      <stop
         id="stop1733"
         offset="0"
         style="stop-color:#8ae234;stop-opacity:1;" />
      <stop
         id="stop1735"
         offset="1"
         style="stop-color:#73d216;stop-opacity:1;" />
    </linearGradient>
    <linearGradient
       inkscape:collect="always"
       xlink:href="#linearGradient1731"
       id="linearGradient9049"
       gradientUnits="userSpaceOnUse"
       gradientTransform="matrix(0.5354215,-0.1148199,0.1281889,0.4795816,79.040085,14.789407)"
       x1="-105.29172"
       y1="10.854023"
       x2="-68.690399"
       y2="10.854023" />
    <radialGradient
       inkscape:collect="always"
       xlink:href="#linearGradient8650"
       id="radialGradient9051"
       gradientUnits="userSpaceOnUse"
       gradientTransform="matrix(-0.9729855,0.206804,-0.3124423,-1.1793978,-99.262463,41.768838)"
       cx="-128.09293"
       cy="-6.7201605"
       fx="-128.09293"
       fy="-6.7201605"
       r="16.201061" />
    <linearGradient
       inkscape:collect="always"
       xlink:href="#linearGradient47870"
       id="linearGradient9067"
       gradientUnits="userSpaceOnUse"
       gradientTransform="matrix(0.9788196,0,0,0.7154223,-8.5008021,52.112719)"
       x1="32.084972"
       y1="-14.402173"
       x2="32.084972"
       y2="-5.5633383" />
    <radialGradient
       inkscape:collect="always"
       xlink:href="#linearGradient51765"
       id="radialGradient9069"
       gradientUnits="userSpaceOnUse"
       gradientTransform="matrix(1.9576392,-8.146468e-7,6.6614241e-7,1.4565793,-59.017557,62.738067)"
       cx="51.4375"
       cy="-12.203125"
       fx="51.4375"
       fy="-12.203125"
       r="2.171875" />
    <radialGradient
       inkscape:collect="always"
       xlink:href="#linearGradient51765"
       id="radialGradient9071"
       gradientUnits="userSpaceOnUse"
       gradientTransform="matrix(-1.9576392,-9.2540676e-8,-1.2888861e-7,1.4565793,110.01781,62.73803)"
       cx="51.4375"
       cy="-12.203125"
       fx="51.4375"
       fy="-12.203125"
       r="2.171875" />
    <linearGradient
       inkscape:collect="always"
       xlink:href="#linearGradient5234"
       id="linearGradient9073"
       gradientUnits="userSpaceOnUse"
       gradientTransform="matrix(0.908381,0,0,0.7404748,-5.203405,1.2789944)"
       x1="24.925514"
       y1="40.000107"
       x2="24.925514"
       y2="19.53867" />
    <linearGradient
       inkscape:collect="always"
       xlink:href="#linearGradient5228"
       id="linearGradient9075"
       gradientUnits="userSpaceOnUse"
       gradientTransform="matrix(0.9091319,0,0,0.9187615,-5.2254125,-0.2364432)"
       x1="23.069359"
       y1="6.7993021"
       x2="23.069359"
       y2="12.403291" />
    <linearGradient
       inkscape:collect="always"
       xlink:href="#linearGradient5222"
       id="linearGradient9077"
       gradientUnits="userSpaceOnUse"
       gradientTransform="matrix(0.9317154,0,0,0.7573854,-5.8116196,0.8887634)"
       x1="9.5"
       y1="16.26436"
       x2="9.5"
       y2="13.408723" />
    <linearGradient
       inkscape:collect="always"
       xlink:href="#linearGradient47870"
       id="linearGradient9132"
       gradientUnits="userSpaceOnUse"
       gradientTransform="matrix(0.9788196,0,0,0.7154223,-8.5008021,52.112719)"
       x1="32.084972"
       y1="-14.402173"
       x2="32.084972"
       y2="-5.5633383" />
    <radialGradient
       inkscape:collect="always"
       xlink:href="#linearGradient51765"
       id="radialGradient9134"
       gradientUnits="userSpaceOnUse"
       gradientTransform="matrix(1.9576392,-8.146468e-7,6.6614241e-7,1.4565793,-59.017557,62.738067)"
       cx="51.4375"
       cy="-12.203125"
       fx="51.4375"
       fy="-12.203125"
       r="2.171875" />
    <radialGradient
       inkscape:collect="always"
       xlink:href="#linearGradient51765"
       id="radialGradient9136"
       gradientUnits="userSpaceOnUse"
       gradientTransform="matrix(-1.9576392,-9.2540676e-8,-1.2888861e-7,1.4565793,110.01781,62.73803)"
       cx="51.4375"
       cy="-12.203125"
       fx="51.4375"
       fy="-12.203125"
       r="2.171875" />
    <linearGradient
       inkscape:collect="always"
       xlink:href="#linearGradient5234"
       id="linearGradient9138"
       gradientUnits="userSpaceOnUse"
       gradientTransform="matrix(0.81769,0,0,0.7404748,8.544061,14.216495)"
       x1="24.925514"
       y1="40.000107"
       x2="24.925514"
       y2="19.53867" />
    <linearGradient
       inkscape:collect="always"
       xlink:href="#linearGradient5228"
       id="linearGradient9140"
       gradientUnits="userSpaceOnUse"
       gradientTransform="matrix(0.81769,0,0,0.9029328,8.544061,12.835601)"
       x1="23.069359"
       y1="6.7993021"
       x2="23.069359"
       y2="12.403291" />
    <linearGradient
       inkscape:collect="always"
       xlink:href="#linearGradient5222"
       id="linearGradient9142"
       gradientUnits="userSpaceOnUse"
       gradientTransform="matrix(0.8332684,0,0,0.7573854,8.1703493,13.826264)"
       x1="9.5"
       y1="16.26436"
       x2="9.5"
       y2="13.408723" />
    <linearGradient
       inkscape:collect="always"
       xlink:href="#linearGradient47870"
       id="linearGradient9144"
       gradientUnits="userSpaceOnUse"
       gradientTransform="matrix(0.9788196,0,0,0.7154223,-8.5008021,52.112719)"
       x1="32.084972"
       y1="-14.402173"
       x2="32.084972"
       y2="-5.5633383" />
    <radialGradient
       inkscape:collect="always"
       xlink:href="#linearGradient51765"
       id="radialGradient9146"
       gradientUnits="userSpaceOnUse"
       gradientTransform="matrix(1.9576392,-8.146468e-7,6.6614241e-7,1.4565793,-59.017557,62.738067)"
       cx="51.4375"
       cy="-12.203125"
       fx="51.4375"
       fy="-12.203125"
       r="2.171875" />
    <radialGradient
       inkscape:collect="always"
       xlink:href="#linearGradient51765"
       id="radialGradient9148"
       gradientUnits="userSpaceOnUse"
       gradientTransform="matrix(-1.9576392,-9.2540676e-8,-1.2888861e-7,1.4565793,110.01781,62.73803)"
       cx="51.4375"
       cy="-12.203125"
       fx="51.4375"
       fy="-12.203125"
       r="2.171875" />
    <linearGradient
       inkscape:collect="always"
       xlink:href="#linearGradient5234"
       id="linearGradient9150"
       gradientUnits="userSpaceOnUse"
       gradientTransform="matrix(0.516273,0,0,0.4663384,24.100189,-2.4318987)"
       x1="24.925514"
       y1="40.000107"
       x2="24.925514"
       y2="19.53867" />
    <linearGradient
       inkscape:collect="always"
       xlink:href="#linearGradient5228"
       id="linearGradient9152"
       gradientUnits="userSpaceOnUse"
       gradientTransform="matrix(0.516273,0,0,0.6530889,24.100189,-3.8932114)"
       x1="23.069359"
       y1="6.7993021"
       x2="23.069359"
       y2="12.403291" />
    <linearGradient
       inkscape:collect="always"
       xlink:href="#linearGradient5222"
       id="linearGradient9154"
       gradientUnits="userSpaceOnUse"
       gradientTransform="matrix(0.4982027,0,0,0.4498845,24.539571,-2.0492614)"
       x1="9.5"
       y1="16.26436"
       x2="9.5"
       y2="13.408723" />
  </defs>
  <metadata
     id="metadata4">
    <rdf:RDF>
      <cc:Work
         rdf:about="">
        <dc:format>image/svg+xml</dc:format>
        <dc:type
           rdf:resource="http://purl.org/dc/dcmitype/StillImage" />
        <dc:creator>
          <cc:Agent>
            <dc:title>Patrick Niklaus</dc:title>
          </cc:Agent>
        </dc:creator>
        <dc:source />
        <cc:license
           rdf:resource="http://creativecommons.org/licenses/GPL/2.0/" />
        <dc:title>Trailfocus</dc:title>
        <dc:subject>
          <rdf:Bag />
        </dc:subject>
      </cc:Work>
      <cc:License
         rdf:about="http://creativecommons.org/licenses/GPL/2.0/">
        <cc:permits
           rdf:resource="http://web.resource.org/cc/Reproduction" />
        <cc:permits
           rdf:resource="http://web.resource.org/cc/Distribution" />
        <cc:requires
           rdf:resource="http://web.resource.org/cc/Notice" />
        <cc:permits
           rdf:resource="http://web.resource.org/cc/DerivativeWorks" />
        <cc:requires
           rdf:resource="http://web.resource.org/cc/ShareAlike" />
        <cc:requires
           rdf:resource="http://web.resource.org/cc/SourceCode" />
      </cc:License>
    </rdf:RDF>
  </metadata>
  <g
     inkscape:groupmode="layer"
     id="layer1"
     inkscape:label="Layer 1">
    <g
       id="g9114"
       transform="matrix(0.7056036,0,0,0.7011206,-1.5718672,0.3353918)">
      <g
         transform="matrix(0.4634922,0,0,0.5356131,25.319643,-7.772947)"
         id="g9088">
        <rect
           style="opacity:0.3;fill:url(#linearGradient9144);fill-opacity:1;fill-rule:evenodd;stroke:none;stroke-width:1.02400005;stroke-linecap:butt;stroke-linejoin:miter;stroke-miterlimit:4;stroke-dasharray:none;stroke-dashoffset:0;stroke-opacity:1"
           height="6.3234997"
           width="32.357079"
           y="41.809082"
           x="9.3215466"
           id="rect9090" />
        <path
           style="opacity:0.3;fill:url(#radialGradient9146);fill-opacity:1;fill-rule:evenodd;stroke:none;stroke-width:1.02400005;stroke-linecap:butt;stroke-linejoin:miter;stroke-miterlimit:4;stroke-dasharray:none;stroke-dashoffset:0;stroke-opacity:1"
           d="M 41.6785,41.799698 L 41.6785,48.126714 C 44.022298,48.102828 45.930248,46.705313 45.930248,44.974385 C 45.930248,43.243458 44.022299,41.823584 41.6785,41.799698 z"
           id="path9092" />
        <path
           style="opacity:0.3;fill:url(#radialGradient9148);fill-opacity:1;fill-rule:evenodd;stroke:none;stroke-width:1.02400005;stroke-linecap:butt;stroke-linejoin:miter;stroke-miterlimit:4;stroke-dasharray:none;stroke-dashoffset:0;stroke-opacity:1"
           d="M 9.3217476,41.799698 L 9.3217476,48.126714 C 6.9779494,48.102828 5.07,46.705313 5.07,44.974385 C 5.07,43.243458 6.9779484,41.823584 9.3217476,41.799698 z"
           id="path9094" />
      </g>
      <rect
         style="fill:url(#linearGradient9150);fill-opacity:1;stroke:#888a85;stroke-width:1.42175031;stroke-miterlimit:4;stroke-dasharray:none;stroke-opacity:1"
         id="rect9096"
         width="17.037027"
         height="14.223311"
         x="28.48851"
         y="1.7651464"
         rx="2.8344529"
         ry="2.852576" />
      <path
         style="fill:url(#linearGradient9152);fill-opacity:1;stroke:#204a87;stroke-width:1.42175043;stroke-miterlimit:4;stroke-opacity:1"
         d="M 28.488509,5.2698429 L 28.488509,2.9642223 C 28.488509,2.2406008 28.949025,1.6580461 29.521055,1.6580461 L 44.492971,1.6580461 C 45.065002,1.6580461 45.525517,2.2406008 45.525517,2.9642223 L 45.525517,5.2698429"
         id="path9098"
         sodipodi:nodetypes="cccccc" />
      <rect
         style="opacity:0.8;fill:none;fill-opacity:1;stroke:url(#linearGradient9154);stroke-width:1.42175114;stroke-miterlimit:4;stroke-dasharray:none;stroke-opacity:1"
         id="rect9100"
         width="14.113893"
         height="11.430396"
         x="29.965033"
         y="3.1115611"
         rx="1.4106941"
         ry="1.4197142" />
    </g>
    <g
       id="g9079"
       transform="matrix(0.667719,0,0,0.6972728,-0.188971,-0.7710205)">
      <g
         transform="matrix(0.8132119,0,0,0.8504725,-2.9795463,-7.2017817)"
         id="g9053">
        <rect
           style="opacity:0.3;fill:url(#linearGradient9067);fill-opacity:1;fill-rule:evenodd;stroke:none;stroke-width:1.02400005;stroke-linecap:butt;stroke-linejoin:miter;stroke-miterlimit:4;stroke-dasharray:none;stroke-dashoffset:0;stroke-opacity:1"
           height="6.3234997"
           width="32.357079"
           y="41.809082"
           x="9.3215466"
           id="rect9055" />
        <path
           style="opacity:0.3;fill:url(#radialGradient9069);fill-opacity:1;fill-rule:evenodd;stroke:none;stroke-width:1.02400005;stroke-linecap:butt;stroke-linejoin:miter;stroke-miterlimit:4;stroke-dasharray:none;stroke-dashoffset:0;stroke-opacity:1"
           d="M 41.6785,41.799698 L 41.6785,48.126714 C 44.022298,48.102828 45.930248,46.705313 45.930248,44.974385 C 45.930248,43.243458 44.022299,41.823584 41.6785,41.799698 z"
           id="path9057" />
        <path
           style="opacity:0.3;fill:url(#radialGradient9071);fill-opacity:1;fill-rule:evenodd;stroke:none;stroke-width:1.02400005;stroke-linecap:butt;stroke-linejoin:miter;stroke-miterlimit:4;stroke-dasharray:none;stroke-dashoffset:0;stroke-opacity:1"
           d="M 9.3217476,41.799698 L 9.3217476,48.126714 C 6.9779494,48.102828 5.07,46.705313 5.07,44.974385 C 5.07,43.243458 6.9779484,41.823584 9.3217476,41.799698 z"
           id="path9059" />
      </g>
      <rect
         style="fill:url(#linearGradient9073);fill-opacity:1;stroke:#888a85;stroke-width:1.46555424;stroke-miterlimit:4;stroke-dasharray:none;stroke-opacity:1"
         id="rect9061"
         width="29.976606"
         height="22.584467"
         x="2.5178316"
         y="7.9432673"
         rx="2.9952719"
         ry="2.8683178" />
      <path
         style="fill:url(#linearGradient9075);fill-opacity:1;stroke:#204a87;stroke-width:1.46555436;stroke-miterlimit:4;stroke-opacity:1"
         d="M 2.5022067,12.654086 L 2.5022067,9.4105533 C 2.5022067,8.3925669 3.3131529,7.5730323 4.3204704,7.5730323 L 30.685293,7.5730323 C 31.692611,7.5730323 32.503557,8.3925669 32.503557,9.4105533 L 32.503557,12.654086"
         id="path9063"
         sodipodi:nodetypes="cccccc" />
      <rect
         style="opacity:0.8;fill:none;fill-opacity:1;stroke:url(#linearGradient9077);stroke-width:1.46555507;stroke-miterlimit:4;stroke-dasharray:none;stroke-opacity:1"
         id="rect9065"
         width="27.008642"
         height="20.1068"
         x="4.0191736"
         y="8.9809265"
         rx="1.4907329"
         ry="1.4275486" />
    </g>
    <g
       id="g9123"
       transform="matrix(0.705026,0,0,0.6956452,0.5875547,-0.7478184)">
      <g
         id="g2442"
         transform="matrix(0.734094,0,0,0.8504725,10.47547,5.7357189)">
        <rect
           id="rect2444"
           x="9.3215466"
           y="41.809082"
           width="32.357079"
           height="6.3234997"
           style="opacity:0.3;fill:url(#linearGradient9132);fill-opacity:1;fill-rule:evenodd;stroke:none;stroke-width:1.02400005;stroke-linecap:butt;stroke-linejoin:miter;stroke-miterlimit:4;stroke-dasharray:none;stroke-dashoffset:0;stroke-opacity:1" />
        <path
           id="path2446"
           d="M 41.6785,41.799698 L 41.6785,48.126714 C 44.022298,48.102828 45.930248,46.705313 45.930248,44.974385 C 45.930248,43.243458 44.022299,41.823584 41.6785,41.799698 z"
           style="opacity:0.3;fill:url(#radialGradient9134);fill-opacity:1;fill-rule:evenodd;stroke:none;stroke-width:1.02400005;stroke-linecap:butt;stroke-linejoin:miter;stroke-miterlimit:4;stroke-dasharray:none;stroke-dashoffset:0;stroke-opacity:1" />
        <path
           id="path2448"
           d="M 9.3217476,41.799698 L 9.3217476,48.126714 C 6.9779494,48.102828 5.07,46.705313 5.07,44.974385 C 5.07,43.243458 6.9779484,41.823584 9.3217476,41.799698 z"
           style="opacity:0.3;fill:url(#radialGradient9136);fill-opacity:1;fill-rule:evenodd;stroke:none;stroke-width:1.02400005;stroke-linecap:butt;stroke-linejoin:miter;stroke-miterlimit:4;stroke-dasharray:none;stroke-dashoffset:0;stroke-opacity:1" />
      </g>
      <rect
         ry="2.8750286"
         rx="2.8367748"
         y="20.880768"
         x="15.494424"
         height="22.584467"
         width="26.983799"
         id="rect2407"
         style="fill:url(#linearGradient9138);fill-opacity:1;stroke:#888a85;stroke-width:1.42791915;stroke-miterlimit:4;stroke-dasharray:none;stroke-opacity:1" />
      <path
         sodipodi:nodetypes="cccccc"
         id="path2409"
         d="M 15.494424,25.504049 L 15.494424,22.316396 C 15.494424,21.315948 16.223804,20.510533 17.129804,20.510533 L 40.842811,20.510533 C 41.748812,20.510533 42.478191,21.315948 42.478191,22.316396 L 42.478191,25.504049"
         style="fill:url(#linearGradient9140);fill-opacity:1;stroke:#204a87;stroke-width:1.42791927;stroke-miterlimit:4;stroke-opacity:1" />
      <rect
         ry="1.4308887"
         rx="1.4118499"
         y="21.98292"
         x="16.897814"
         height="20.041195"
         width="24.163851"
         id="rect2411"
         style="opacity:0.8;fill:none;fill-opacity:1;stroke:url(#linearGradient9142);stroke-width:1.42791998;stroke-miterlimit:4;stroke-dasharray:none;stroke-opacity:1" />
    </g>
    <g
       id="g9044"
       transform="matrix(0.8439577,0,0,0.8227071,-7.0340296,-0.8686118)">
      <path
         sodipodi:nodetypes="cccccccssccccc"
         id="path1542"
         d="M 38.609436,21.124035 C 38.314839,21.097255 38.021951,21.226493 37.870588,21.474609 L 31.421467,32.043779 L 27.275101,29.090731 C 26.905761,28.909962 26.444951,29.026254 26.243132,29.357076 L 24.383728,31.495341 C 24.181914,31.82616 24.317681,32.238787 24.687019,32.419556 C 24.687019,32.419556 32.257762,38.020225 32.267103,38.024369 C 32.353666,38.066738 32.444191,38.088055 32.536207,38.098469 C 32.836797,38.13249 33.144415,38.005994 33.298931,37.75271 L 41.996423,23.498874 C 42.198239,23.168054 42.062474,22.755427 41.693133,22.574658 L 38.902415,21.20295 C 38.810079,21.157758 38.707634,21.132961 38.609436,21.124035 z"
         style="fill:url(#linearGradient9049);fill-opacity:1;fill-rule:nonzero;stroke:#448903;stroke-width:1.20009899;stroke-linecap:round;stroke-linejoin:round;marker:none;marker-start:none;marker-mid:none;marker-end:none;stroke-miterlimit:4;stroke-dasharray:none;stroke-dashoffset:0;stroke-opacity:1;visibility:visible;display:inline;overflow:visible" />
      <path
         style="opacity:0.69377986;fill:none;fill-opacity:1;fill-rule:nonzero;stroke:#ffffff;stroke-width:1.20009899;stroke-linecap:round;stroke-linejoin:round;marker:none;marker-start:none;marker-mid:none;marker-end:none;stroke-miterlimit:4;stroke-dasharray:none;stroke-dashoffset:0;stroke-opacity:1;visibility:visible;display:inline;overflow:visible"
         d="M 31.76249,33.738268 C 29.579131,32.202042 28.557365,31.465622 26.963618,30.335474 C 26.508115,30.904872 26.309391,31.109477 25.772641,31.74031 C 27.968103,33.287801 30.359388,35.139359 32.549459,36.699447 C 35.353635,32.241673 37.885376,27.883221 40.638668,23.414369 C 39.879864,22.981835 39.459699,22.843254 38.678313,22.423112 C 36.812329,25.532436 33.859621,30.356942 31.76249,33.738268 z"
         id="path1544"
         sodipodi:nodetypes="ccccccc" />
      <path
         style="opacity:0.50800003;fill:url(#radialGradient9051);fill-opacity:1;fill-rule:nonzero;stroke:none;stroke-width:0.94278264;stroke-linecap:round;stroke-linejoin:round;marker:none;marker-start:none;marker-mid:none;marker-end:none;stroke-miterlimit:4;stroke-dasharray:none;stroke-dashoffset:0;stroke-opacity:1;visibility:visible;display:inline;overflow:visible"
         d="M 38.808212,22.944667 C 38.80272,22.94735 38.800942,22.959988 38.795486,22.963242 C 38.779133,22.973877 38.753322,22.991528 38.73657,23.007569 C 38.683049,23.061312 38.618545,23.156278 38.541674,23.271208 L 35.837774,27.664786 L 32.568703,33.02201 C 32.499913,33.089419 32.0648,33.456403 31.836225,33.53162 C 31.726962,33.567575 31.742707,33.536222 31.514667,33.553039 C 31.197738,33.576413 30.503386,33.212469 30.216205,33.047111 L 27.259328,30.902661 C 27.107765,30.787726 27.078778,30.720374 26.952022,30.829414 C 26.952022,30.829414 26.376787,31.298178 26.319896,31.370455 C 26.173292,31.556713 26.159021,31.587915 26.361479,31.757688 C 26.361479,31.757688 29.817754,34.347273 29.82032,34.349112 C 30.251586,34.194356 32.077714,34.331574 32.469131,34.005642 C 34.772637,32.087511 34.045883,30.738517 36.558548,27.952506 C 37.932661,26.428906 38.339101,24.865971 39.842884,24.200505 L 39.859616,24.196917 L 40.05522,23.869743 C 40.11449,23.772594 40.152627,23.693131 40.170463,23.639031 C 40.172012,23.633766 40.182115,23.625451 40.183189,23.620456 C 40.183605,23.618021 40.178888,23.607845 40.179183,23.605469 C 40.179354,23.60315 40.175131,23.59275 40.175177,23.590482 C 40.175098,23.588264 40.171377,23.577668 40.171171,23.575495 C 40.170939,23.57445 40.16743,23.561544 40.167165,23.560509 C 40.166437,23.558486 40.164021,23.547515 40.163159,23.545522 C 40.162163,23.543554 40.160286,23.532479 40.159153,23.530535 C 40.157745,23.528625 40.156696,23.517445 40.155147,23.515548 C 40.153458,23.51366 40.136241,23.506032 40.13441,23.504149 C 40.089885,23.464648 40.016916,23.419876 39.902288,23.363775 L 39.203647,23.034173 C 39.102407,22.984925 39.030467,22.957796 38.966811,22.942348 C 38.963353,22.941608 38.949457,22.931571 38.946073,22.930949 C 38.94276,22.930449 38.932588,22.934916 38.929341,22.934537 C 38.922971,22.934029 38.898015,22.926732 38.891872,22.926727 C 38.88885,22.926852 38.878114,22.93006 38.87514,22.930315 C 38.872207,22.9307 38.861301,22.933385 38.858408,22.933903 C 38.855549,22.934555 38.844504,22.936705 38.841676,22.937491 C 38.838874,22.938415 38.827723,22.940018 38.824944,22.941079 C 38.822183,22.94228 38.810958,22.943326 38.808212,22.944667 z"
         id="path2913"
         sodipodi:nodetypes="csscccsscccscssscccssssssssssccssssssssc" />
    </g>
  </g>
</svg>
