<?xml version="1.0" encoding="UTF-8" standalone="no"?>
<!-- Created with Inkscape (http://www.inkscape.org/) -->
<svg
   xmlns:dc="http://purl.org/dc/elements/1.1/"
   xmlns:cc="http://creativecommons.org/ns#"
   xmlns:rdf="http://www.w3.org/1999/02/22-rdf-syntax-ns#"
   xmlns:svg="http://www.w3.org/2000/svg"
   xmlns="http://www.w3.org/2000/svg"
   xmlns:xlink="http://www.w3.org/1999/xlink"
   xmlns:sodipodi="http://sodipodi.sourceforge.net/DTD/sodipodi-0.dtd"
   xmlns:inkscape="http://www.inkscape.org/namespaces/inkscape"
   inkscape:export-ydpi="90.000000"
   inkscape:export-xdpi="90.000000"
   inkscape:export-filename="/home/jimmac/Desktop/wi-fi.png"
   width="32"
   height="32"
   id="svg11300"
   sodipodi:version="0.32"
   inkscape:version="0.45+devel"
   sodipodi:docbase="/home/patrick/Projects/Fusion/config/ccsm-new-icons/images"
   sodipodi:docname="plugin-neg.svg"
   inkscape:output_extension="org.inkscape.output.svg.inkscape"
   sodipodi:modified="true"
   version="1.0">
  <sodipodi:namedview
     stroke="#ef2929"
     fill="#eeeeec"
     id="base"
     pagecolor="#ffffff"
     bordercolor="#666666"
     borderopacity="0.25490196"
     inkscape:pageopacity="0.0"
     inkscape:pageshadow="2"
     inkscape:zoom="0.99999996"
     inkscape:cx="12.420989"
     inkscape:cy="29.828993"
     inkscape:current-layer="layer1"
     showgrid="false"
     inkscape:grid-bbox="true"
     inkscape:document-units="px"
     inkscape:showpageshadow="false"
     inkscape:window-width="1280"
     inkscape:window-height="710"
     inkscape:window-x="0"
     inkscape:window-y="49"
     showguides="true"
     inkscape:guide-bbox="true"
     showborder="true">
    <inkscape:grid
       type="xygrid"
       id="grid7964"
       empspacing="5"
       visible="true"
       enabled="true" />
  </sodipodi:namedview>
  <defs
     id="defs3">
    <linearGradient
       id="linearGradient47870">
      <stop
         offset="0"
         id="stop47872"
         style="stop-color:#000000;stop-opacity:0" />
      <stop
         offset="0.5"
         id="stop47878"
         style="stop-color:#000000;stop-opacity:1" />
      <stop
         offset="1"
         id="stop47874"
         style="stop-color:#000000;stop-opacity:0" />
    </linearGradient>
    <linearGradient
       id="linearGradient51765">
      <stop
         offset="0"
         id="stop51767"
         style="stop-color:#000000;stop-opacity:1" />
      <stop
         offset="1"
         id="stop51769"
         style="stop-color:#000000;stop-opacity:0" />
    </linearGradient>
    <linearGradient
       inkscape:collect="always"
       id="linearGradient2282"
       x1="32.084972"
       y1="-14.402173"
       gradientTransform="matrix(0.9788196,0,0,0.7154223,-8.5008021,52.112719)"
       x2="32.084972"
       gradientUnits="userSpaceOnUse"
       xlink:href="#linearGradient47870"
       y2="-5.5633383" />
    <radialGradient
       inkscape:collect="always"
       id="radialGradient2284"
       r="2.171875"
       gradientTransform="matrix(1.9576392,-8.146468e-7,6.6614241e-7,1.4565793,-59.017557,62.738067)"
       cx="51.4375"
       cy="-12.203125"
       gradientUnits="userSpaceOnUse"
       xlink:href="#linearGradient51765"
       fy="-12.203125"
       fx="51.4375" />
    <radialGradient
       inkscape:collect="always"
       id="radialGradient2286"
       r="2.171875"
       gradientTransform="matrix(-1.9576392,-9.2540676e-8,-1.2888861e-7,1.4565793,110.01781,62.73803)"
       cx="51.4375"
       cy="-12.203125"
       gradientUnits="userSpaceOnUse"
       xlink:href="#linearGradient51765"
       fy="-12.203125"
       fx="51.4375" />
    <linearGradient
       inkscape:collect="always"
       id="linearGradient2295-674"
       y2="19.53867"
       y1="40.000107"
       gradientTransform="matrix(0.8787869,0,0,0.8212787,-5.9696868,-2.9404991)"
       x2="24.925514"
       gradientUnits="userSpaceOnUse"
       xlink:href="#linearGradient2781-174"
       x1="24.925514" />
    <linearGradient
       id="linearGradient2781-174">
      <stop
         offset="0"
         id="stop2226"
         style="stop-color:#2c2830;stop-opacity:1" />
      <stop
         offset="1"
         id="stop2228"
         style="stop-color:#111113;stop-opacity:1" />
    </linearGradient>
    <linearGradient
       inkscape:collect="always"
       id="linearGradient2289-391"
       y2="13.408723"
       y1="16.26436"
       gradientTransform="matrix(0.8734034,0,0,0.8950906,-5.843701,-5.9932513)"
       x2="9.5"
       gradientUnits="userSpaceOnUse"
       xlink:href="#linearGradient3690-995"
       x1="9.5" />
    <linearGradient
       id="linearGradient3690-995">
      <stop
         offset="0"
         id="stop2232"
         style="stop-color:#000000;stop-opacity:1;" />
      <stop
         offset="1"
         id="stop2234"
         style="stop-color:#000000;stop-opacity:0.46875" />
    </linearGradient>
    <linearGradient
       inkscape:collect="always"
       id="linearGradient2292-797"
       y2="12.403291"
       y1="6.7993021"
       gradientTransform="matrix(0.8787869,0,0,0.9916932,-5.9696868,-6.9137869)"
       x2="23.069359"
       gradientUnits="userSpaceOnUse"
       xlink:href="#linearGradient3674-759"
       x1="23.069359" />
    <linearGradient
       id="linearGradient3674-759">
      <stop
         offset="0"
         id="stop2238"
         style="stop-color:#cb9a5b;stop-opacity:1" />
      <stop
         offset="1"
         id="stop2240"
         style="stop-color:#8d6030;stop-opacity:1;" />
    </linearGradient>
    <linearGradient
       id="linearGradient8440-840">
      <stop
         style="stop-color:#121113;stop-opacity:1;"
         id="stop2565"
         offset="0" />
      <stop
         style="stop-color:#454249;stop-opacity:1;"
         id="stop2567"
         offset="1" />
    </linearGradient>
    <radialGradient
       fx="56.704376"
       fy="10.241054"
       xlink:href="#linearGradient8440-840"
       gradientUnits="userSpaceOnUse"
       cy="10.241054"
       cx="56.704376"
       gradientTransform="matrix(0.2395866,0.4251895,-0.5706382,0.3059781,19.109791,-0.3381743)"
       r="14.75"
       id="radialGradient6267-138"
       inkscape:collect="always" />
    <linearGradient
       id="linearGradient8440-732">
      <stop
         style="stop-color:#121113;stop-opacity:1;"
         id="stop2559"
         offset="0" />
      <stop
         style="stop-color:#454249;stop-opacity:1;"
         id="stop2561"
         offset="1" />
    </linearGradient>
    <radialGradient
       fx="56.704376"
       fy="10.241054"
       xlink:href="#linearGradient8440-732"
       gradientUnits="userSpaceOnUse"
       cy="10.241054"
       cx="56.704376"
       gradientTransform="matrix(0.5127519,0.3745031,-0.5029349,0.6514359,-11.643961,-16.193599)"
       r="14.75"
       id="radialGradient6265-525"
       inkscape:collect="always" />
    <linearGradient
       id="linearGradient5263-949">
      <stop
         style="stop-color:#725024;stop-opacity:1;"
         id="stop2553"
         offset="0" />
      <stop
         style="stop-color:#cb9a5b;stop-opacity:1;"
         id="stop2555"
         offset="1" />
    </linearGradient>
    <radialGradient
       fx="4.6250029"
       fy="5.3032074"
       xlink:href="#linearGradient5263-949"
       gradientUnits="userSpaceOnUse"
       cy="5.3032074"
       cx="4.6250029"
       gradientTransform="matrix(0.7861443,2.1847633,-1.8845007,0.7095773,10.728935,-8.0480585)"
       r="20.500004"
       id="radialGradient6263-472"
       inkscape:collect="always" />
    <linearGradient
       id="linearGradient51765-459">
      <stop
         style="stop-color:#ffffff;stop-opacity:1"
         id="stop2547"
         offset="0" />
      <stop
         style="stop-color:#ffffff;stop-opacity:0"
         id="stop2549"
         offset="1" />
    </linearGradient>
    <radialGradient
       fx="51.4375"
       fy="-12.203125"
       xlink:href="#linearGradient51765-459"
       gradientUnits="userSpaceOnUse"
       cy="-12.203125"
       cx="51.4375"
       gradientTransform="matrix(-1.965588,-1.2731588e-7,-1.2941195e-7,2.0039369,109.01887,67.647913)"
       r="2.171875"
       id="radialGradient6446-627"
       inkscape:collect="always" />
    <linearGradient
       id="linearGradient51765-259">
      <stop
         style="stop-color:#ffffff;stop-opacity:1"
         id="stop2541"
         offset="0" />
      <stop
         style="stop-color:#ffffff;stop-opacity:0"
         id="stop2543"
         offset="1" />
    </linearGradient>
    <radialGradient
       fx="51.4375"
       fy="-12.203125"
       xlink:href="#linearGradient51765-259"
       gradientUnits="userSpaceOnUse"
       cy="-12.203125"
       cx="51.4375"
       gradientTransform="matrix(1.965588,-1.1207771e-6,6.6884721e-7,2.0039369,-60.70285,67.647964)"
       r="2.171875"
       id="radialGradient6449-696"
       inkscape:collect="always" />
    <linearGradient
       id="linearGradient47870-723">
      <stop
         style="stop-color:#ffffff;stop-opacity:0"
         id="stop2533"
         offset="0" />
      <stop
         style="stop-color:#ffffff;stop-opacity:1"
         id="stop2535"
         offset="0.5" />
      <stop
         style="stop-color:#ffffff;stop-opacity:0"
         id="stop2537"
         offset="1" />
    </linearGradient>
    <linearGradient
       x1="32.084972"
       xlink:href="#linearGradient47870-723"
       gradientUnits="userSpaceOnUse"
       x2="32.084972"
       gradientTransform="matrix(0.982794,0,0,0.9842658,-9.9809772,53.029792)"
       y1="-14.402173"
       y2="-5.5633383"
       id="linearGradient6452-213"
       inkscape:collect="always" />
  </defs>
  <metadata
     id="metadata4">
    <rdf:RDF>
      <cc:Work
         rdf:about="">
        <dc:format>image/svg+xml</dc:format>
        <dc:type
           rdf:resource="http://purl.org/dc/dcmitype/StillImage" />
        <dc:creator>
          <cc:Agent>
            <dc:title>Patrick Niklaus</dc:title>
          </cc:Agent>
        </dc:creator>
        <dc:source />
        <cc:license
           rdf:resource="http://creativecommons.org/licenses/GPL/2.0/" />
        <dc:title>State</dc:title>
        <dc:subject>
          <rdf:Bag />
        </dc:subject>
      </cc:Work>
      <cc:License
         rdf:about="http://creativecommons.org/licenses/GPL/2.0/">
        <cc:permits
           rdf:resource="http://web.resource.org/cc/Reproduction" />
        <cc:permits
           rdf:resource="http://web.resource.org/cc/Distribution" />
        <cc:requires
           rdf:resource="http://web.resource.org/cc/Notice" />
        <cc:permits
           rdf:resource="http://web.resource.org/cc/DerivativeWorks" />
        <cc:requires
           rdf:resource="http://web.resource.org/cc/ShareAlike" />
        <cc:requires
           rdf:resource="http://web.resource.org/cc/SourceCode" />
      </cc:License>
    </rdf:RDF>
  </metadata>
  <g
     inkscape:groupmode="layer"
     id="layer1"
     inkscape:label="Layer 1">
    <g
       id="g54724"
       transform="matrix(0.7831573,0,0,0.7895297,-3.9706074,-6.0021028)">
      <rect
         id="rect46899"
         x="9.3215466"
         y="41.809082"
         width="32.357079"
         height="6.3234997"
         style="opacity:0.3;fill:url(#linearGradient2282);fill-opacity:1;fill-rule:evenodd;stroke:none" />
      <path
         id="path48849"
         d="M 41.6785,41.799698 L 41.6785,48.126714 C 44.022298,48.102828 45.930248,46.705313 45.930248,44.974385 C 45.930248,43.243458 44.022299,41.823584 41.6785,41.799698 z"
         style="opacity:0.3;fill:url(#radialGradient2284);fill-opacity:1;fill-rule:evenodd;stroke:none" />
      <path
         id="path52742"
         d="M 9.3217476,41.799698 L 9.3217476,48.126714 C 6.9779494,48.102828 5.07,46.705313 5.07,44.974385 C 5.07,43.243458 6.9779484,41.823584 9.3217476,41.799698 z"
         style="opacity:0.3;fill:url(#radialGradient2286);fill-opacity:1;fill-rule:evenodd;stroke:none" />
    </g>
    <rect
       id="rect1915"
       x="1.5000008"
       y="4.4510093"
       width="28.999998"
       height="25.04899"
       ry="1.395811"
       rx="1.4121248"
       style="fill:url(#linearGradient2295-674);fill-opacity:1;stroke:#77757a;stroke-width:1.00000024;stroke-miterlimit:4;stroke-opacity:1;stroke-dasharray:none" />
    <path
       id="path1917"
       d="M 1.5000001,6.9999997 L 1.5000001,3.4989974 C 1.5000001,2.4002013 2.2838779,1.5156109 3.2575737,1.5156109 L 28.742391,1.5156109 C 29.716086,1.5156109 30.499965,2.4002013 30.499965,3.4989974 L 30.499965,6.9999997"
       style="fill:url(#linearGradient2292-797);fill-opacity:1;stroke:#dfb578;stroke-width:1.00000036;stroke-miterlimit:4;stroke-opacity:1"
       sodipodi:nodetypes="cccccc" />
    <rect
       id="rect1919"
       x="2.4536302"
       y="2.5101166"
       width="27.075506"
       height="25.957638"
       ry="1.1216072"
       rx="1.0469512"
       style="opacity:0.8;fill:none;stroke:url(#linearGradient2289-391);stroke-width:1.00000083;stroke-miterlimit:4;stroke-opacity:1;stroke-dasharray:none" />
    <g
       transform="matrix(0.3704514,0,0,0.3700479,7.1261499,8.8808941)"
       id="g2446"
       inkscape:label="Layer 1">
      <g
         id="g7423">
        <rect
           id="rect2449"
           x="7.9137373"
           y="38.854225"
           width="32.488461"
           height="8.6997623"
           style="opacity:0.4;fill:url(#linearGradient6452-213);fill-opacity:1;fill-rule:evenodd;stroke:none" />
        <path
           d="M 40.402073,38.841314 L 40.402073,47.545914 C 42.755388,47.513052 44.671085,45.590375 44.671085,43.208994 C 44.671085,40.827614 42.755389,38.874176 40.402073,38.841314 z"
           id="path2451"
           style="opacity:0.4;fill:url(#radialGradient6449-696);fill-opacity:1;fill-rule:evenodd;stroke:none" />
        <path
           d="M 7.9139392,38.841314 L 7.9139392,47.545914 C 5.5606243,47.513052 3.6449278,45.590375 3.6449278,43.208994 C 3.6449278,40.827614 5.5606233,38.874176 7.9139392,38.841314 z"
           id="path2453"
           style="opacity:0.4;fill:url(#radialGradient6446-627);fill-opacity:1;fill-rule:evenodd;stroke:none" />
      </g>
      <g
         id="g6254"
         transform="translate(1.5909903,1.5909903)">
        <rect
           id="rect2338"
           x="2.2124531"
           y="2.7747688"
           width="40.306679"
           height="40.587929"
           ry="6.1788239"
           rx="6.0402246"
           style="opacity:1;fill:url(#radialGradient6263-472);fill-opacity:1;fill-rule:evenodd;stroke:#dead60;stroke-width:2.70088076999999993;stroke-linecap:round;stroke-linejoin:round;stroke-miterlimit:4;stroke-opacity:1;stroke-dasharray:none;stroke-dashoffset:0" />
        <g
           transform="matrix(0.7815752,0,0,0.8466106,5.0492534,3.9393891)"
           id="g6244">
          <path
             d="M 13.529155,4.9182174 C 13.284693,4.973823 13.14543,5.2028973 13.200694,5.4327315 L 14.014551,8.8177785 C 13.492992,9.0948261 13.019123,9.44616 12.579077,9.8169231 L 9.714708,8.1918116 C 9.5052507,8.0726153 9.2421281,8.1432376 9.115342,8.3540104 L 7.2840536,11.35762 C 7.1572675,11.568393 7.2472577,11.845921 7.456715,11.965117 L 10.103266,13.458677 C 9.890558,14.109983 9.7495121,14.790005 9.7133492,15.487672 L 6.3591912,16.250589 C 6.1228974,16.304337 5.9735597,16.527322 6.0307223,16.765104 L 6.856384,20.199208 C 6.9135543,20.43699 7.1490683,20.572438 7.3853698,20.518691 L 10.714305,19.761509 C 11.034281,20.324097 11.438712,20.818432 11.877816,21.281946 L 10.065844,24.255289 C 9.9370509,24.464903 9.9990851,24.722903 10.207392,24.843993 L 13.270255,26.630922 C 13.478562,26.752012 13.74082,26.678336 13.869621,26.468723 L 15.674058,23.574702 C 16.334524,23.760682 17.020437,23.889707 17.723111,23.910631 L 18.513382,27.19756 C 18.568637,27.427395 18.797898,27.572649 19.042367,27.517043 L 22.573055,26.713971 C 22.817524,26.658365 22.956787,26.429292 22.901524,26.199457 L 22.099456,22.863469 C 22.640555,22.561167 23.119049,22.182725 23.56768,21.779263 L 26.424521,23.483699 C 26.631253,23.607315 26.923513,23.548324 27.055001,23.340294 L 28.942626,20.349741 C 29.074114,20.141711 29.007818,19.884653 28.801086,19.761037 L 25.938346,18.032072 C 26.098106,17.468782 26.205637,16.878566 26.235917,16.282789 L 29.539637,15.531343 C 29.775938,15.477596 29.925276,15.254611 29.868106,15.01683 L 29.042444,11.582725 C 28.985282,11.344942 28.74976,11.209494 28.513466,11.263241 L 25.234961,12.008951 C 24.896,11.408292 24.488805,10.861396 24.016751,10.371604 L 25.982669,7.5960788 C 26.125274,7.395098 26.091297,7.129971 25.891567,6.995902 L 22.938729,5.0028517 C 22.739007,4.8687829 22.476077,4.93954 22.333472,5.1405213 L 20.284365,8.012579 C 20.259683,8.0473644 20.245863,8.0900603 20.232298,8.1279051 C 19.643285,7.9638037 19.026239,7.8511383 18.402693,7.8196751 L 17.588836,4.4346281 C 17.533572,4.2047938 17.30432,4.0595399 17.05985,4.1151463 L 13.529155,4.9182174 z M 17.249234,12.868124 C 19.220279,12.419802 20.864646,13.523725 21.253134,15.139521 C 21.641614,16.755317 20.671077,18.454013 18.700032,18.902336 C 16.728988,19.350659 15.08462,18.246736 14.69614,16.630939 C 14.307652,15.015147 15.278189,13.316447 17.249234,12.868124 z"
             id="path2212"
             style="fill:url(#radialGradient6265-525);fill-opacity:1;fill-rule:evenodd;stroke:#aaa8ac;stroke-width:1.63482296;stroke-linecap:butt;stroke-linejoin:miter;stroke-miterlimit:4;stroke-opacity:1;stroke-dasharray:none;stroke-dashoffset:0" />
          <path
             id="path3195"
             inkscape:radius="-0.39745662"
             transform="matrix(0.807015,-0.1835593,0.188722,0.7849383,-35.400318,14.137586)"
             inkscape:original="M 60.375 3.125 L 60.375 7.15625 C 60.371912 7.5194123 60.130326 7.8372886 59.78125 7.9375 C 59.169905 8.1067881 58.559537 8.3768222 57.96875 8.6875 C 57.661279 8.8483892 57.285825 8.7983287 57.03125 8.5625 L 54.34375 6 L 51.71875 8.75 L 54.21875 11.09375 C 54.494859 11.351352 54.559366 11.764199 54.375 12.09375 C 53.971871 12.770414 53.623576 13.494497 53.40625 14.25 C 53.306039 14.599076 52.988162 14.840662 52.625 14.84375 L 48.75 14.84375 L 48.75 18.65625 L 52.59375 18.65625 C 52.956912 18.659338 53.274789 18.900924 53.375 19.25 C 53.567737 19.931631 53.884546 20.572703 54.25 21.21875 C 54.426168 21.533968 54.375412 21.927325 54.125 22.1875 L 51.34375 25.09375 L 54 27.6875 L 56.75 24.875 C 57.007602 24.598891 57.420449 24.534384 57.75 24.71875 C 58.429534 25.100218 59.139208 25.429005 59.875 25.625 C 60.224076 25.725211 60.465662 26.043088 60.46875 26.40625 L 60.46875 30.3125 L 64.28125 30.3125 L 64.28125 26.34375 C 64.280089 25.989098 64.507041 25.673886 64.84375 25.5625 C 65.481753 25.370962 66.108157 25.06554 66.71875 24.71875 C 67.033968 24.542582 67.427325 24.593338 67.6875 24.84375 L 70.375 27.5 L 73.0625 24.84375 L 70.375 22.15625 C 70.109267 21.890864 70.057769 21.478881 70.25 21.15625 C 70.571694 20.565843 70.8464 19.957479 71.03125 19.3125 C 71.131461 18.963424 71.449338 18.721838 71.8125 18.71875 L 75.625 18.71875 L 75.625 14.90625 L 71.84375 14.90625 C 71.480588 14.903162 71.162711 14.661576 71.0625 14.3125 C 70.851959 13.5584 70.53788 12.848827 70.15625 12.1875 C 69.971884 11.857949 70.036391 11.445102 70.3125 11.1875 L 73.21875 8.53125 L 70.71875 5.78125 L 67.71875 8.5 C 67.479528 8.8411617 67.022497 8.9486984 66.65625 8.75 C 66.056217 8.415393 65.434546 8.1264586 64.78125 7.9375 C 64.432174 7.8372886 64.190588 7.5194123 64.1875 7.15625 L 64.1875 3.125 L 60.375 3.125 z M 62.21875 12.125 C 65.060709 12.125 67.09375 14.292516 67.09375 16.78125 C 67.093749 19.269985 65.06071 21.437499 62.21875 21.4375 C 59.376789 21.437501 57.34375 19.269985 57.34375 16.78125 C 57.343748 14.292517 59.376789 12.125 62.21875 12.125 z "
             d="M 60.78125,3.53125 L 60.78125,7.15625 C 60.77668,7.6936877 60.422842,8.1641989 59.90625,8.3125 C 59.895837,8.3129096 59.885413,8.3129096 59.875,8.3125 C 59.302845,8.470936 58.731196,8.7289025 58.15625,9.03125 C 57.701006,9.269464 57.126926,9.1929203 56.75,8.84375 L 54.34375,6.5625 L 52.28125,8.75 L 54.5,10.8125 C 54.90841,11.193535 54.991457,11.79379 54.71875,12.28125 C 54.71916,12.291663 54.71916,12.302087 54.71875,12.3125 C 54.327911,12.968535 53.986039,13.663081 53.78125,14.375 C 53.632949,14.891592 53.162437,15.24543 52.625,15.25 L 49.15625,15.25 L 49.15625,18.25 L 52.59375,18.25 C 53.131187,18.25457 53.601699,18.608408 53.75,19.125 C 53.75041,19.135413 53.75041,19.145837 53.75,19.15625 C 53.929462,19.790934 54.235307,20.397598 54.59375,21.03125 C 54.854475,21.497766 54.776855,22.083696 54.40625,22.46875 L 51.90625,25.09375 L 54,27.125 L 56.46875,24.59375 C 56.849785,24.18534 57.45004,24.102293 57.9375,24.375 C 58.599039,24.746366 59.278366,25.066101 59.96875,25.25 C 59.979163,25.24959 59.989587,25.24959 60,25.25 C 60.516592,25.398301 60.87043,25.868813 60.875,26.40625 L 60.875,29.90625 L 63.875,29.90625 L 63.875,26.34375 C 63.873281,25.818767 64.220328,25.352382 64.71875,25.1875 C 65.313928,25.008819 65.935022,24.713631 66.53125,24.375 C 66.997766,24.114275 67.583696,24.191895 67.96875,24.5625 L 70.375,26.9375 L 72.5,24.84375 L 70.09375,22.4375 C 69.700659,22.044922 69.621888,21.414759 69.90625,20.9375 C 70.218544,20.364345 70.481896,19.795857 70.65625,19.1875 C 70.804551,18.670908 71.275063,18.31707 71.8125,18.3125 L 75.21875,18.3125 L 75.21875,15.3125 L 71.84375,15.3125 C 71.306313,15.30793 70.835801,14.954092 70.6875,14.4375 C 70.68709,14.427087 70.68709,14.416663 70.6875,14.40625 C 70.487124,13.68856 70.179799,13.011493 69.8125,12.375 C 69.539793,11.88754 69.62284,11.287285 70.03125,10.90625 L 72.65625,8.5 L 70.6875,6.34375 L 68,8.78125 L 67.96875,8.75 C 67.605078,9.2077617 66.988291,9.3756143 66.46875,9.09375 C 65.885703,8.7686155 65.270312,8.4901105 64.65625,8.3125 C 64.139658,8.1641989 63.78582,7.6936877 63.78125,7.15625 L 63.78125,3.53125 L 60.78125,3.53125 z M 62.21875,11.71875 C 65.262798,11.71875 67.5,14.076062 67.5,16.78125 C 67.499999,19.486439 65.262799,21.843749 62.21875,21.84375 C 59.1747,21.843751 56.9375,19.486439 56.9375,16.78125 C 56.937498,14.076062 59.1747,11.71875 62.21875,11.71875 z"
             sodipodi:type="inkscape:offset"
             style="fill:none;stroke:#222222;stroke-width:2.0000937;stroke-linecap:butt;stroke-linejoin:miter;stroke-miterlimit:4;stroke-opacity:1;stroke-dasharray:none;stroke-dashoffset:0" />
          <path
             d="M 29.974023,22.470736 C 29.782653,22.434203 29.608601,22.553485 29.572001,22.73378 L 29.032896,25.389179 C 28.572418,25.423661 28.121225,25.525691 27.687575,25.652025 L 26.195337,23.608209 C 26.086335,23.458499 25.876808,23.426822 25.717618,23.536994 L 23.431725,25.099373 C 23.272535,25.209545 23.244804,25.434485 23.353806,25.584194 L 24.735194,27.466932 C 24.370046,27.863043 24.046165,28.301811 23.790716,28.785708 L 21.165016,28.284429 C 20.98004,28.249116 20.800863,28.360945 20.762989,28.54747 L 20.216077,31.241356 C 20.178209,31.427884 20.300301,31.597228 20.485282,31.632544 L 23.091238,32.130052 C 23.132396,32.628797 23.255825,33.105358 23.413952,33.570823 L 21.151704,35.117727 C 20.991475,35.226453 20.950388,35.428842 21.057952,35.579538 L 22.637389,37.799904 C 22.744952,37.950599 22.954873,37.979841 23.115107,37.871118 L 25.345888,36.378168 C 25.752149,36.715481 26.195187,37.020285 26.685705,37.25358 L 26.162228,39.832012 C 26.125623,40.012304 26.240058,40.186663 26.431434,40.223199 L 29.195325,40.750859 C 29.3867,40.787395 29.560751,40.668113 29.597352,40.487818 L 30.12864,37.870901 C 30.61127,37.82457 31.074667,37.704739 31.525168,37.557869 L 32.985943,39.655641 C 33.09156,39.80764 33.317881,39.85663 33.479495,39.749866 L 35.800967,38.214267 C 35.962581,38.107504 36.00034,37.904458 35.894724,37.752459 L 34.437855,35.635444 C 34.736525,35.285339 35.007095,34.899888 35.224811,34.486474 L 37.811027,34.980214 C 37.996008,35.01553 38.175186,34.903701 38.213054,34.717174 L 38.759966,32.023288 C 38.79784,31.836762 38.675742,31.667415 38.490766,31.632102 L 35.924289,31.14213 C 35.882235,30.610463 35.774166,30.09574 35.601371,29.601381 L 37.907423,28.242728 C 38.074585,28.144424 38.13788,27.945698 38.040665,27.788458 L 36.60702,25.45601 C 36.50981,25.298772 36.300376,25.267251 36.133213,25.365556 L 33.73647,26.766857 C 33.707538,26.783871 33.683689,26.809876 33.661618,26.832518 C 33.29873,26.532944 32.899051,26.26116 32.468019,26.044985 L 33.007124,23.389586 C 33.043725,23.209291 32.929295,23.034934 32.737919,22.998399 L 29.974023,22.470736 z M 29.988267,29.269321 C 31.531239,29.563894 32.331566,30.858549 32.074237,32.126063 C 31.816904,33.393573 30.570233,34.297432 29.02726,34.00286 C 27.484288,33.708288 26.683961,32.413632 26.941295,31.146121 C 27.198622,29.878611 28.445294,28.974749 29.988267,29.269321 z"
             id="path2320"
             style="fill:url(#radialGradient6267-138);fill-opacity:1;fill-rule:evenodd;stroke:#aaa8ac;stroke-width:1.63482296;stroke-linecap:butt;stroke-linejoin:miter;stroke-miterlimit:4;stroke-opacity:1;stroke-dasharray:none;stroke-dashoffset:0" />
          <path
             id="path2322"
             inkscape:radius="-0.79479486"
             transform="matrix(0.631747,0.1206081,-0.1250089,0.6157451,-7.6997053,13.802796)"
             inkscape:original="M 60.375 3.125 L 60.375 7.15625 C 60.371912 7.5194123 60.130326 7.8372886 59.78125 7.9375 C 59.169905 8.1067881 58.559537 8.3768222 57.96875 8.6875 C 57.661279 8.8483892 57.285825 8.7983287 57.03125 8.5625 L 54.34375 6 L 51.71875 8.75 L 54.21875 11.09375 C 54.494859 11.351352 54.559366 11.764199 54.375 12.09375 C 53.971871 12.770414 53.623576 13.494497 53.40625 14.25 C 53.306039 14.599076 52.988162 14.840662 52.625 14.84375 L 48.75 14.84375 L 48.75 18.65625 L 52.59375 18.65625 C 52.956912 18.659338 53.274789 18.900924 53.375 19.25 C 53.567737 19.931631 53.884546 20.572703 54.25 21.21875 C 54.426168 21.533968 54.375412 21.927325 54.125 22.1875 L 51.34375 25.09375 L 54 27.6875 L 56.75 24.875 C 57.007602 24.598891 57.420449 24.534384 57.75 24.71875 C 58.429534 25.100218 59.139208 25.429005 59.875 25.625 C 60.224076 25.725211 60.465662 26.043088 60.46875 26.40625 L 60.46875 30.3125 L 64.28125 30.3125 L 64.28125 26.34375 C 64.280089 25.989098 64.507041 25.673886 64.84375 25.5625 C 65.481753 25.370962 66.108157 25.06554 66.71875 24.71875 C 67.033968 24.542582 67.427325 24.593338 67.6875 24.84375 L 70.375 27.5 L 73.0625 24.84375 L 70.375 22.15625 C 70.109267 21.890864 70.057769 21.478881 70.25 21.15625 C 70.571694 20.565843 70.8464 19.957479 71.03125 19.3125 C 71.131461 18.963424 71.449338 18.721838 71.8125 18.71875 L 75.625 18.71875 L 75.625 14.90625 L 71.84375 14.90625 C 71.480588 14.903162 71.162711 14.661576 71.0625 14.3125 C 70.851959 13.5584 70.53788 12.848827 70.15625 12.1875 C 69.971884 11.857949 70.036391 11.445102 70.3125 11.1875 L 73.21875 8.53125 L 70.71875 5.78125 L 67.71875 8.5 C 67.479528 8.8411617 67.022497 8.9486984 66.65625 8.75 C 66.056217 8.415393 65.434546 8.1264586 64.78125 7.9375 C 64.432174 7.8372886 64.190588 7.5194123 64.1875 7.15625 L 64.1875 3.125 L 60.375 3.125 z M 62.21875 12.125 C 65.060709 12.125 67.09375 14.292516 67.09375 16.78125 C 67.093749 19.269985 65.06071 21.437499 62.21875 21.4375 C 59.376789 21.437501 57.34375 19.269985 57.34375 16.78125 C 57.343748 14.292517 59.376789 12.125 62.21875 12.125 z "
             d="M 61.15625,3.90625 L 61.15625,7.15625 C 61.150199,7.8679111 60.684057,8.4911235 60,8.6875 C 60.000205,8.6979157 60.000205,8.7083343 60,8.71875 C 59.467023,8.8663371 58.90286,9.1122303 58.34375,9.40625 C 57.740776,9.7217657 56.999241,9.6187281 56.5,9.15625 C 56.489296,9.146125 56.478875,9.1357043 56.46875,9.125 L 54.375,7.125 L 52.84375,8.71875 L 54.75,10.5 C 55.290672,11.004432 55.423522,11.823429 55.0625,12.46875 C 55.062705,12.479166 55.062705,12.489584 55.0625,12.5 C 54.683947,13.135413 54.348505,13.800401 54.15625,14.46875 C 53.959874,15.152809 53.336661,15.618949 52.625,15.625 L 49.53125,15.625 L 49.53125,17.875 L 52.59375,17.875 C 53.305411,17.881051 53.928624,18.347191 54.125,19.03125 C 54.291191,19.619 54.586067,20.191239 54.9375,20.8125 C 54.937705,20.822916 54.937705,20.833334 54.9375,20.84375 C 55.282757,21.46152 55.178262,22.240104 54.6875,22.75 L 52.46875,25.0625 L 54,26.5625 L 56.1875,24.3125 C 56.691932,23.771828 57.479679,23.670228 58.125,24.03125 C 58.76855,24.392518 59.448761,24.671943 60.09375,24.84375 C 60.093955,24.854166 60.093955,24.864584 60.09375,24.875 C 60.777809,25.071376 61.243949,25.694589 61.25,26.40625 L 61.25,29.53125 L 63.5,29.53125 L 63.5,26.34375 C 63.497724,25.648487 63.933662,25.030862 64.59375,24.8125 C 64.604166,24.812295 64.614584,24.812295 64.625,24.8125 C 65.177365,24.646672 65.730632,24.361725 66.3125,24.03125 C 66.322916,24.031045 66.333334,24.031045 66.34375,24.03125 C 66.96152,23.685993 67.740104,23.790488 68.25,24.28125 L 70.375,26.375 L 71.9375,24.84375 L 69.8125,22.71875 C 69.292089,22.199018 69.186034,21.381842 69.5625,20.75 C 69.865397,20.194091 70.117389,19.665495 70.28125,19.09375 C 70.477626,18.409691 71.100839,17.943551 71.8125,17.9375 L 74.84375,17.9375 L 74.84375,15.6875 L 71.84375,15.6875 C 71.132089,15.681449 70.508876,15.215309 70.3125,14.53125 C 70.122287,13.849958 69.821723,13.205416 69.46875,12.59375 C 69.468545,12.583334 69.468545,12.572916 69.46875,12.5625 C 69.107728,11.917179 69.240578,11.098182 69.78125,10.59375 L 72.09375,8.46875 L 70.65625,6.90625 L 68.375,8.96875 L 68.25,9.09375 L 68.21875,9.0625 C 67.727654,9.6096533 66.940239,9.7950184 66.28125,9.4375 C 65.715185,9.1218351 65.137339,8.8537658 64.5625,8.6875 C 63.878443,8.4911235 63.412301,7.8679111 63.40625,7.15625 L 63.40625,3.90625 L 61.15625,3.90625 z M 62.21875,11.34375 C 65.464827,11.34375 67.875,13.859672 67.875,16.78125 C 67.874999,19.702828 65.464827,22.218749 62.21875,22.21875 C 58.972671,22.218751 56.5625,19.702828 56.5625,16.78125 C 56.562498,13.859672 58.972671,11.34375 62.21875,11.34375 z"
             sodipodi:type="inkscape:offset"
             style="fill:none;stroke:#222222;stroke-width:2.57182384;stroke-linecap:butt;stroke-linejoin:miter;stroke-miterlimit:4;stroke-opacity:1;stroke-dasharray:none;stroke-dashoffset:0" />
        </g>
        <path
           id="path6242"
           inkscape:radius="-2.3199265"
           inkscape:original="M 8.46875 2.59375 C 5.14475 2.59375 2.46875 5.2697502 2.46875 8.59375 L 2.46875 36.03125 C 2.46875 39.35525 5.14475 42.031248 8.46875 42.03125 L 36.53125 42.03125 C 39.85525 42.03125 42.531251 39.355248 42.53125 36.03125 L 42.53125 8.59375 C 42.53125 5.26975 39.855251 2.59375 36.53125 2.59375 L 8.46875 2.59375 z "
           d="M 8.46875,4.90625 C 6.3898611,4.90625 4.78125,6.5148612 4.78125,8.59375 L 4.78125,36.03125 C 4.78125,38.110139 6.3898593,39.718749 8.46875,39.71875 L 36.53125,39.71875 C 38.610138,39.71875 40.218751,38.110135 40.21875,36.03125 L 40.21875,8.59375 C 40.21875,6.5148605 38.61014,4.90625 36.53125,4.90625 L 8.46875,4.90625 z"
           sodipodi:type="inkscape:offset"
           style="opacity:1;fill:none;stroke:#38260b;stroke-width:2.70128345;stroke-linecap:round;stroke-linejoin:round;stroke-miterlimit:4;stroke-opacity:1;stroke-dasharray:none;stroke-dashoffset:0"
           transform="matrix(0.9903338,0,0,1.0094595,0.1356898,0.5498521)" />
      </g>
    </g>
  </g>
</svg>
