<?xml version="1.0" encoding="UTF-8" standalone="no"?>
<!-- Created with Inkscape (http://www.inkscape.org/) -->
<svg
   xmlns:svg="http://www.w3.org/2000/svg"
   xmlns="http://www.w3.org/2000/svg"
   xmlns:xlink="http://www.w3.org/1999/xlink"
   version="1.0"
   width="32"
   height="32"
   id="svg7631">
  <defs
     id="defs3">
    <linearGradient
       id="linearGradient14450">
      <stop
         id="stop14452"
         style="stop-color:#000000;stop-opacity:1"
         offset="0" />
      <stop
         id="stop14454"
         style="stop-color:#000000;stop-opacity:0"
         offset="1" />
    </linearGradient>
    <linearGradient
       id="linearGradient6431">
      <stop
         id="stop6433"
         style="stop-color:#eeeeed;stop-opacity:1"
         offset="0" />
      <stop
         id="stop6435"
         style="stop-color:#9b9f95;stop-opacity:1"
         offset="1" />
    </linearGradient>
    <linearGradient
       id="linearGradient47870">
      <stop
         id="stop47872"
         style="stop-color:#000000;stop-opacity:0"
         offset="0" />
      <stop
         id="stop47878"
         style="stop-color:#000000;stop-opacity:1"
         offset="0.5" />
      <stop
         id="stop47874"
         style="stop-color:#000000;stop-opacity:0"
         offset="1" />
    </linearGradient>
    <linearGradient
       id="linearGradient51765">
      <stop
         id="stop51767"
         style="stop-color:#000000;stop-opacity:1"
         offset="0" />
      <stop
         id="stop51769"
         style="stop-color:#000000;stop-opacity:0"
         offset="1" />
    </linearGradient>
    <linearGradient
       id="linearGradient7887">
      <stop
         id="stop7889"
         style="stop-color:#204a87;stop-opacity:1"
         offset="0" />
      <stop
         id="stop7891"
         style="stop-color:#204a87;stop-opacity:0"
         offset="1" />
    </linearGradient>
    <linearGradient
       id="linearGradient4138">
      <stop
         id="stop4140"
         style="stop-color:#3465a4;stop-opacity:1"
         offset="0" />
      <stop
         id="stop4142"
         style="stop-color:#3465a4;stop-opacity:0"
         offset="1" />
    </linearGradient>
    <linearGradient
       x1="23.007862"
       y1="15.732881"
       x2="22.958183"
       y2="27.137815"
       id="linearGradient8166"
       xlink:href="#linearGradient4138"
       gradientUnits="userSpaceOnUse"
       gradientTransform="matrix(-1.0351643,0,0,-0.8699482,39.80615,42.406555)" />
    <linearGradient
       x1="8.9375"
       y1="15.485572"
       x2="12.71875"
       y2="15.485572"
       id="linearGradient8168"
       xlink:href="#linearGradient7887"
       gradientUnits="userSpaceOnUse"
       gradientTransform="matrix(0,-1,1.097159,0,-1.0009015,35.015035)" />
    <linearGradient
       x1="32.084972"
       y1="-14.402173"
       x2="32.084972"
       y2="-5.5633383"
       id="linearGradient8245"
       xlink:href="#linearGradient47870"
       gradientUnits="userSpaceOnUse"
       gradientTransform="matrix(0.9788196,0,0,0.7154223,-8.5008021,52.112719)" />
    <radialGradient
       cx="51.4375"
       cy="-12.203125"
       r="2.171875"
       fx="51.4375"
       fy="-12.203125"
       id="radialGradient8247"
       xlink:href="#linearGradient51765"
       gradientUnits="userSpaceOnUse"
       gradientTransform="matrix(1.9576392,-8.146468e-7,6.6614241e-7,1.4565793,-59.017557,62.738067)" />
    <radialGradient
       cx="51.4375"
       cy="-12.203125"
       r="2.171875"
       fx="51.4375"
       fy="-12.203125"
       id="radialGradient8249"
       xlink:href="#linearGradient51765"
       gradientUnits="userSpaceOnUse"
       gradientTransform="matrix(-1.9576392,-9.2540676e-8,-1.2888861e-7,1.4565793,110.01781,62.73803)" />
    <radialGradient
       cx="25.000727"
       cy="-46.586014"
       r="36.000511"
       fx="25.000727"
       fy="-46.586014"
       id="radialGradient8284"
       xlink:href="#linearGradient6431"
       gradientUnits="userSpaceOnUse"
       gradientTransform="matrix(0.5511042,-0.1663862,9.136453e-2,0.316288,1.2268098,34.92442)" />
    <radialGradient
       cx="14.375"
       cy="-12.875001"
       r="18.875"
       fx="14.375"
       fy="-12.875001"
       id="radialGradient8293"
       xlink:href="#linearGradient14450"
       gradientUnits="userSpaceOnUse"
       gradientTransform="matrix(1,0,0,9.9337748e-2,0,-11.596027)" />
  </defs>
  <g
     id="layer1">
    <g
       transform="translate(0,1.0174913)"
       id="g8196">
      <g
         transform="matrix(0.6960629,-0.3997495,0.4001495,0.6953669,30.049377,-31.929368)"
         id="g3811">
        <path
           d="M -46.418901,44.977888 C -50.483601,42.225272 -52.406447,37.635032 -51.462264,32.938317 L -39.989611,35.483962 L -46.418901,44.977888 z"
           id="path3761"
           style="fill:#f57900;fill-opacity:1;stroke:none" />
        <path
           d="M -29.381951,34.93842 C -29.233422,39.666741 -31.729692,43.76173 -35.929328,45.679016 L -40.425897,35.285342 L -29.381951,34.93842 z"
           id="path3805"
           style="fill:#73d216;fill-opacity:1;stroke:none" />
        <path
           d="M -37.020027,24.919163 C -32.448659,26.607795 -29.505751,30.576099 -29.301186,35.327481 L -40.964168,35.596514 L -37.020027,24.919163 z"
           id="path3759"
           style="fill:#3465a4;fill-opacity:1;stroke:none" />
        <path
           d="M -34.081321,44.600536 C -37.969602,47.295038 -42.763698,47.425251 -46.655576,44.942064 L -40.374874,35.518669 L -34.081321,44.600536 z"
           id="path3763"
           style="fill:#edd400;fill-opacity:1;stroke:none" />
        <path
           d="M -46.154065,25.599387 C -41.754648,23.405274 -36.804303,23.983184 -33.169985,27.115166 L -41.029274,35.87511 L -46.154065,25.599387 z"
           id="path3765"
           style="fill:#5c3566;fill-opacity:1;stroke:none" />
        <path
           d="M -51.619057,36.658319 C -52.036439,31.839435 -49.745474,27.51609 -45.610167,25.318778 L -40.478866,35.67335 L -51.619057,36.658319 z"
           id="path3767"
           style="fill:#cc0000;fill-opacity:1;stroke:none" />
      </g>
      <path
         d="M -33.25,-4.1250005 A 8.625,8.875 0 1 1 -50.5,-4.1250005 A 8.625,8.875 0 1 1 -33.25,-4.1250005 z"
         transform="matrix(0.7536098,-0.4223142,0.4332318,0.7346184,49.345055,-5.7035812)"
         id="path2775"
         style="opacity:0.32400004;fill:#eeeeec;fill-opacity:0;stroke:#eeeeec;stroke-width:1.05930352;stroke-miterlimit:4;stroke-opacity:1;stroke-dasharray:none" />
      <path
         d="M -33.25,-4.1250005 A 8.625,8.875 0 1 1 -50.5,-4.1250005 A 8.625,8.875 0 1 1 -33.25,-4.1250005 z"
         transform="matrix(0.8481325,-0.4779277,0.4875705,0.8313585,53.534671,-7.6443651)"
         id="path4788"
         style="opacity:0.7032001;fill:#2e3436;fill-opacity:0;stroke:#2e3436;stroke-width:1.02463365;stroke-miterlimit:4;stroke-opacity:1;stroke-dasharray:none" />
    </g>
    <g
       transform="matrix(0.3258424,0,0,0.6078502,12.383196,-7.0867314)"
       id="g2358">
      <rect
         width="32.357079"
         height="6.3234997"
         x="9.3215466"
         y="41.809082"
         id="rect2360"
         style="opacity:0.3;fill:url(#linearGradient8245);fill-opacity:1;fill-rule:evenodd;stroke:none" />
      <path
         d="M 41.6785,41.799698 L 41.6785,48.126714 C 44.022298,48.102828 45.930248,46.705313 45.930248,44.974385 C 45.930248,43.243458 44.022299,41.823584 41.6785,41.799698 z"
         id="path2362"
         style="opacity:0.3;fill:url(#radialGradient8247);fill-opacity:1;fill-rule:evenodd;stroke:none" />
      <path
         d="M 9.3217476,41.799698 L 9.3217476,48.126714 C 6.9779494,48.102828 5.07,46.705313 5.07,44.974385 C 5.07,43.243458 6.9779484,41.823584 9.3217476,41.799698 z"
         id="path2364"
         style="opacity:0.3;fill:url(#radialGradient8249);fill-opacity:1;fill-rule:evenodd;stroke:none" />
    </g>
    <path
       d="M 27.419589,16.371526 C 30.413718,15.653382 28.65834,15.237933 30.500568,13.969105"
       id="path6442"
       style="fill:none;stroke:#888a85;stroke-width:2.99999976;stroke-linecap:round;stroke-linejoin:round;stroke-miterlimit:4;stroke-opacity:1;stroke-dasharray:none" />
    <path
       d="M 4.5146873,16.363795 C 1.584981,15.645651 3.3025896,15.230203 1.5,13.961373"
       id="path9351"
       style="fill:none;stroke:#888a85;stroke-width:3;stroke-linecap:round;stroke-linejoin:round;stroke-miterlimit:4;stroke-opacity:1;stroke-dasharray:none" />
    <path
       d="M 33.25,-12.875001 A 18.875,1.875 0 1 1 -4.5,-12.875001 A 18.875,1.875 0 1 1 33.25,-12.875001 z"
       transform="matrix(0.5565816,0,0,0.9095515,7.8199086,41.005067)"
       id="path13479"
       style="opacity:0.33658537;fill:url(#radialGradient8293);fill-opacity:1;fill-rule:evenodd;stroke:none" />
    <path
       d="M 3.9683605,15.501404 C 3.967566,15.552751 3.9575938,15.603989 3.9575938,15.655505 C 3.9575938,21.653257 9.359574,26.519664 16.016343,26.519664 C 22.673111,26.519664 28.075092,21.653257 28.075092,15.655505 C 28.075092,15.604074 28.075884,15.552667 28.075092,15.501404 L 3.9683605,15.501404 z"
       id="path2233"
       style="fill:url(#radialGradient8284);fill-opacity:1;fill-rule:evenodd;stroke:#888a85;stroke-width:1;stroke-linecap:round;stroke-linejoin:round;stroke-miterlimit:4;stroke-opacity:1;stroke-dasharray:none;stroke-dashoffset:0" />
    <path
       d="M -9.75,-49.0625 C -8.854995,-33.904188 5.3378166,-21.59375 23.15625,-21.59375 C 40.974682,-21.593749 55.167495,-33.904189 56.0625,-49.0625 L -9.75,-49.0625 z"
       transform="matrix(0.335514,0,0,0.3285618,8.2327434,32.607087)"
       id="path11487"
       style="fill:none;stroke:#ffffff;stroke-width:3.01187062;stroke-linecap:round;stroke-linejoin:miter;stroke-miterlimit:4;stroke-opacity:0.53846154;stroke-dasharray:none;stroke-dashoffset:0" />
    <g
       transform="matrix(0.6774192,0,0,0.6571957,-0.5371696,-2.9401823)"
       id="g11551">
      <path
         d="M 4.0658642,-60.098949 A 1.0606602,2.2097087 0 1 1 1.9445437,-60.098949 A 1.0606602,2.2097087 0 1 1 4.0658642,-60.098949 z"
         transform="matrix(0.7197945,-0.210001,0.254312,0.5928197,24.202003,68.704237)"
         id="path4178"
         style="fill:#ffffff;fill-opacity:1;fill-rule:evenodd;stroke:none" />
      <path
         d="M 4.0658642,-60.098949 A 1.0606602,2.2097087 0 1 1 1.9445437,-60.098949 A 1.0606602,2.2097087 0 1 1 4.0658642,-60.098949 z"
         transform="matrix(0.7472018,-6.2402044e-2,0.1311195,0.6315991,20.693374,70.591275)"
         id="path11493"
         style="fill:#ffffff;fill-opacity:1;fill-rule:evenodd;stroke:none" />
      <path
         d="M 4.0658642,-60.098949 A 1.0606602,2.2097087 0 1 1 1.9445437,-60.098949 A 1.0606602,2.2097087 0 1 1 4.0658642,-60.098949 z"
         transform="matrix(0.7406843,-0.1165819,0.1767094,0.6203898,27.695505,70.124625)"
         id="path11495"
         style="fill:#ffffff;fill-opacity:1;fill-rule:evenodd;stroke:none" />
      <path
         d="M 4.0658642,-60.098949 A 1.0606602,2.2097087 0 1 1 1.9445437,-60.098949 A 1.0606602,2.2097087 0 1 1 4.0658642,-60.098949 z"
         transform="matrix(0.7442456,9.1121236e-2,-2.9495402e-4,0.6450656,21.908386,70.907901)"
         id="path11497"
         style="fill:#ffffff;fill-opacity:1;fill-rule:evenodd;stroke:none" />
      <path
         d="M 4.0658642,-60.098949 A 1.0606602,2.2097087 0 1 1 1.9445437,-60.098949 A 1.0606602,2.2097087 0 1 1 4.0658642,-60.098949 z"
         transform="matrix(-0.7472018,-6.2402044e-2,-0.1311195,0.6315991,32.334915,70.528461)"
         id="path11501"
         style="fill:#ffffff;fill-opacity:1;fill-rule:evenodd;stroke:none" />
      <path
         d="M 4.0658642,-60.098949 A 1.0606602,2.2097087 0 1 1 1.9445437,-60.098949 A 1.0606602,2.2097087 0 1 1 4.0658642,-60.098949 z"
         transform="matrix(-0.7406843,-0.1165819,-0.1767094,0.6203898,25.553754,69.996895)"
         id="path11503"
         style="fill:#ffffff;fill-opacity:1;fill-rule:evenodd;stroke:none" />
      <path
         d="M 4.0658642,-60.098949 A 1.0606602,2.2097087 0 1 1 1.9445437,-60.098949 A 1.0606602,2.2097087 0 1 1 4.0658642,-60.098949 z"
         transform="matrix(-0.7442456,9.1121236e-2,2.9495402e-4,0.6450656,31.208291,70.907901)"
         id="path11505"
         style="fill:#ffffff;fill-opacity:1;fill-rule:evenodd;stroke:none" />
      <path
         d="M 4.0658642,-60.098949 A 1.0606602,2.2097087 0 1 1 1.9445437,-60.098949 A 1.0606602,2.2097087 0 1 1 4.0658642,-60.098949 z"
         transform="matrix(0.6424977,-0.1874496,0.2270021,0.5291584,24.193809,68.321811)"
         id="path11509"
         style="fill:#ffffff;fill-opacity:1;fill-rule:evenodd;stroke:none" />
      <path
         d="M 4.0658642,-60.098949 A 1.0606602,2.2097087 0 1 1 1.9445437,-60.098949 A 1.0606602,2.2097087 0 1 1 4.0658642,-60.098949 z"
         transform="matrix(0.6669618,-5.5700855e-2,0.1170389,0.5637734,21.061962,70.006205)"
         id="path11511"
         style="fill:#ffffff;fill-opacity:1;fill-rule:evenodd;stroke:none" />
      <path
         d="M 4.0658642,-60.098949 A 1.0606602,2.2097087 0 1 1 1.9445437,-60.098949 A 1.0606602,2.2097087 0 1 1 4.0658642,-60.098949 z"
         transform="matrix(0.6611442,-0.1040625,0.157733,0.5537678,27.312153,69.589667)"
         id="path11513"
         style="fill:#ffffff;fill-opacity:1;fill-rule:evenodd;stroke:none" />
      <path
         d="M 4.0658642,-60.098949 A 1.0606602,2.2097087 0 1 1 1.9445437,-60.098949 A 1.0606602,2.2097087 0 1 1 4.0658642,-60.098949 z"
         transform="matrix(0.6643231,8.133597e-2,-2.632797e-4,0.5757937,22.146497,70.288829)"
         id="path11515"
         style="fill:#ffffff;fill-opacity:1;fill-rule:evenodd;stroke:none" />
      <path
         d="M 4.0658642,-60.098949 A 1.0606602,2.2097087 0 1 1 1.9445437,-60.098949 A 1.0606602,2.2097087 0 1 1 4.0658642,-60.098949 z"
         transform="matrix(-0.6669618,-5.5700855e-2,-0.1170389,0.5637734,31.453349,69.950136)"
         id="path11517"
         style="fill:#ffffff;fill-opacity:1;fill-rule:evenodd;stroke:none" />
      <path
         d="M 4.0658642,-60.098949 A 1.0606602,2.2097087 0 1 1 1.9445437,-60.098949 A 1.0606602,2.2097087 0 1 1 4.0658642,-60.098949 z"
         transform="matrix(-0.6611442,-0.1040625,-0.157733,0.5537678,25.400399,69.475654)"
         id="path11519"
         style="fill:#ffffff;fill-opacity:1;fill-rule:evenodd;stroke:none" />
      <path
         d="M 4.0658642,-60.098949 A 1.0606602,2.2097087 0 1 1 1.9445437,-60.098949 A 1.0606602,2.2097087 0 1 1 4.0658642,-60.098949 z"
         transform="matrix(-0.6643231,8.133597e-2,2.632797e-4,0.5757937,30.44771,70.288829)"
         id="path11521"
         style="fill:#ffffff;fill-opacity:1;fill-rule:evenodd;stroke:none" />
      <path
         d="M 4.0658642,-60.098949 A 1.0606602,2.2097087 0 1 1 1.9445437,-60.098949 A 1.0606602,2.2097087 0 1 1 4.0658642,-60.098949 z"
         transform="matrix(0.5431162,-0.1584549,0.1918894,0.4473082,24.372679,66.428538)"
         id="path11523"
         style="fill:#ffffff;fill-opacity:1;fill-rule:evenodd;stroke:none" />
      <path
         d="M 4.0658642,-60.098949 A 1.0606602,2.2097087 0 1 1 1.9445437,-60.098949 A 1.0606602,2.2097087 0 1 1 4.0658642,-60.098949 z"
         transform="matrix(0.5637962,-4.7085048e-2,9.8935326e-2,0.4765689,21.725266,67.85239)"
         id="path11525"
         style="fill:#ffffff;fill-opacity:1;fill-rule:evenodd;stroke:none" />
      <path
         d="M 4.0658642,-60.098949 A 1.0606602,2.2097087 0 1 1 1.9445437,-60.098949 A 1.0606602,2.2097087 0 1 1 4.0658642,-60.098949 z"
         transform="matrix(0.5588784,-8.7966115e-2,0.1333349,0.468111,27.008677,67.500282)"
         id="path11527"
         style="fill:#ffffff;fill-opacity:1;fill-rule:evenodd;stroke:none" />
      <path
         d="M 4.0658642,-60.098949 A 1.0606602,2.2097087 0 1 1 1.9445437,-60.098949 A 1.0606602,2.2097087 0 1 1 4.0658642,-60.098949 z"
         transform="matrix(0.5615656,6.8754924e-2,-2.225556e-4,0.4867299,22.642045,68.091298)"
         id="path11529"
         style="fill:#ffffff;fill-opacity:1;fill-rule:evenodd;stroke:none" />
      <path
         d="M 4.0658642,-60.098949 A 1.0606602,2.2097087 0 1 1 1.9445437,-60.098949 A 1.0606602,2.2097087 0 1 1 4.0658642,-60.098949 z"
         transform="matrix(-0.5637962,-4.7085048e-2,-9.8935326e-2,0.4765689,30.509313,67.804994)"
         id="path11531"
         style="fill:#ffffff;fill-opacity:1;fill-rule:evenodd;stroke:none" />
      <path
         d="M 4.0658642,-60.098949 A 1.0606602,2.2097087 0 1 1 1.9445437,-60.098949 A 1.0606602,2.2097087 0 1 1 4.0658642,-60.098949 z"
         transform="matrix(-0.5588784,-8.7966115e-2,-0.1333349,0.468111,25.392633,67.403905)"
         id="path11533"
         style="fill:#ffffff;fill-opacity:1;fill-rule:evenodd;stroke:none" />
      <path
         d="M 4.0658642,-60.098949 A 1.0606602,2.2097087 0 1 1 1.9445437,-60.098949 A 1.0606602,2.2097087 0 1 1 4.0658642,-60.098949 z"
         transform="matrix(-0.5615656,6.8754924e-2,2.225556e-4,0.4867299,29.659226,68.091298)"
         id="path11535"
         style="fill:#ffffff;fill-opacity:1;fill-rule:evenodd;stroke:none" />
      <path
         d="M 4.0658642,-60.098949 A 1.0606602,2.2097087 0 1 1 1.9445437,-60.098949 A 1.0606602,2.2097087 0 1 1 4.0658642,-60.098949 z"
         transform="matrix(0.4017856,-0.204272,0.2162954,0.3218416,30.719462,61.586064)"
         id="path11539"
         style="fill:#ffffff;fill-opacity:1;fill-rule:evenodd;stroke:none" />
      <path
         d="M 4.0658642,-60.098949 A 1.0606602,2.2097087 0 1 1 1.9445437,-60.098949 A 1.0606602,2.2097087 0 1 1 4.0658642,-60.098949 z"
         transform="matrix(0.4452496,-7.0081223e-2,0.1062258,0.3729367,26.612554,64.36851)"
         id="path11541"
         style="fill:#ffffff;fill-opacity:1;fill-rule:evenodd;stroke:none" />
      <path
         d="M 4.0658642,-60.098949 A 1.0606602,2.2097087 0 1 1 1.9445437,-60.098949 A 1.0606602,2.2097087 0 1 1 4.0658642,-60.098949 z"
         transform="matrix(0.4473905,5.4775968e-2,-1.7730655e-4,0.3877701,23.133727,64.839364)"
         id="path11543"
         style="fill:#ffffff;fill-opacity:1;fill-rule:evenodd;stroke:none" />
      <path
         d="M 4.0658642,-60.098949 A 1.0606602,2.2097087 0 1 1 1.9445437,-60.098949 A 1.0606602,2.2097087 0 1 1 4.0658642,-60.098949 z"
         transform="matrix(-0.4001215,-0.2075123,-0.2188893,0.3200831,18.285918,61.484096)"
         id="path11547"
         style="fill:#ffffff;fill-opacity:1;fill-rule:evenodd;stroke:none" />
      <path
         d="M 4.0658642,-60.098949 A 1.0606602,2.2097087 0 1 1 1.9445437,-60.098949 A 1.0606602,2.2097087 0 1 1 4.0658642,-60.098949 z"
         transform="matrix(-0.4473905,5.4775968e-2,1.7730655e-4,0.3877701,28.724205,64.839364)"
         id="path11549"
         style="fill:#ffffff;fill-opacity:1;fill-rule:evenodd;stroke:none" />
    </g>
    <path
       d="M 16.071801,31.512068 L 21.500976,25.502689 L 18.528815,25.528268 L 18.482613,21.504568 L 13.477722,21.472081 L 13.498902,25.473067 L 10.477492,25.458114 L 16.071801,31.512068 z"
       id="path8102"
       style="fill:url(#linearGradient8166);fill-opacity:1;fill-rule:evenodd;stroke:url(#linearGradient8168);stroke-width:0.99999994;stroke-linecap:round;stroke-linejoin:round;stroke-miterlimit:4;stroke-opacity:1;stroke-dasharray:none;stroke-dashoffset:0;marker:none;marker-start:none;marker-mid:none;marker-end:none;visibility:visible;display:inline;overflow:visible" />
  </g>
</svg>
