<?xml version="1.0" encoding="UTF-8" standalone="no"?>
<!-- Created with Inkscape (http://www.inkscape.org/) -->

<svg
   xmlns:dc="http://purl.org/dc/elements/1.1/"
   xmlns:cc="http://creativecommons.org/ns#"
   xmlns:rdf="http://www.w3.org/1999/02/22-rdf-syntax-ns#"
   xmlns:svg="http://www.w3.org/2000/svg"
   xmlns="http://www.w3.org/2000/svg"
   xmlns:xlink="http://www.w3.org/1999/xlink"
   xmlns:sodipodi="http://sodipodi.sourceforge.net/DTD/sodipodi-0.dtd"
   xmlns:inkscape="http://www.inkscape.org/namespaces/inkscape"
   inkscape:export-ydpi="90.000000"
   inkscape:export-xdpi="90.000000"
   inkscape:export-filename="/home/jimmac/Desktop/wi-fi.png"
   width="32"
   height="32"
   id="svg11300"
   sodipodi:version="0.32"
   inkscape:version="0.92.3 (2405546, 2018-03-11)"
   sodipodi:docname="plugin-focuspoll.svg"
   inkscape:output_extension="org.inkscape.output.svg.inkscape"
   sodipodi:modified="true"
   version="1.0">
  <defs
     id="defs3">
    <linearGradient
       inkscape:collect="always"
       id="linearGradient8719">
      <stop
         style="stop-color:#2e3436;stop-opacity:1;"
         offset="0"
         id="stop8721" />
      <stop
         style="stop-color:#2e3436;stop-opacity:0;"
         offset="1"
         id="stop8723" />
    </linearGradient>
    <linearGradient
       inkscape:collect="always"
       id="linearGradient8711">
      <stop
         style="stop-color:#2e3436;stop-opacity:1;"
         offset="0"
         id="stop8713" />
      <stop
         style="stop-color:#2e3436;stop-opacity:0;"
         offset="1"
         id="stop8715" />
    </linearGradient>
    <linearGradient
       id="linearGradient124">
      <stop
         id="stop125"
         offset="0.0000000"
         style="stop-color:#ffffff;stop-opacity:1.0000000;" />
      <stop
         id="stop126"
         offset="1"
         style="stop-color:silver;stop-opacity:1;" />
    </linearGradient>
    <radialGradient
       inkscape:collect="always"
       xlink:href="#linearGradient8711"
       id="radialGradient8717"
       cx="9.3125"
       cy="20.963842"
       fx="9.3125"
       fy="20.963842"
       r="5.3512397"
       gradientTransform="matrix(1.8956607e-2,2.9088731,-2.5019495,1.6830425e-2,57.209169,-9.0336234)"
       gradientUnits="userSpaceOnUse" />
    <radialGradient
       inkscape:collect="always"
       xlink:href="#linearGradient8719"
       id="radialGradient8725"
       cx="3.6239223"
       cy="21.124912"
       fx="3.6239223"
       fy="21.124912"
       r="2.807694"
       gradientTransform="matrix(4.5566411e-2,3.2712436,-3.1851088,4.598306e-2,67.938304,6.094408)"
       gradientUnits="userSpaceOnUse" />
    <radialGradient
       inkscape:collect="always"
       xlink:href="#linearGradient8711"
       id="radialGradient8731"
       gradientUnits="userSpaceOnUse"
       gradientTransform="matrix(-1.8956607e-2,2.8527288,2.5019495,1.650558e-2,-25.209169,-8.2609312)"
       cx="9.3125"
       cy="20.963842"
       fx="9.3125"
       fy="20.963842"
       r="5.3512397" />
    <radialGradient
       inkscape:collect="always"
       xlink:href="#linearGradient8719"
       id="radialGradient8733"
       gradientUnits="userSpaceOnUse"
       gradientTransform="matrix(-4.5566411e-2,3.2016077,3.1851088,4.5004205e-2,-35.938304,6.2181438)"
       cx="3.6239223"
       cy="21.124912"
       fx="3.6239223"
       fy="21.124912"
       r="2.807694" />
    <radialGradient
       gradientUnits="userSpaceOnUse"
       gradientTransform="matrix(-1.50631,0.00423282,0.00300614,1.069777,54.81232,-0.459221)"
       r="20.978409"
       fy="15.445013"
       fx="16.981855"
       cy="15.445013"
       cx="16.981855"
       id="radialGradient2103"
       xlink:href="#linearGradient2097"
       inkscape:collect="always" />
    <linearGradient
       id="linearGradient2097"
       inkscape:collect="always">
      <stop
         id="stop2099"
         offset="0"
         style="stop-color:#ffffff;stop-opacity:1.0000000" />
      <stop
         id="stop2101"
         offset="1"
         style="stop-color:#e7e7e3;stop-opacity:1.0000000" />
    </linearGradient>
    <radialGradient
       gradientUnits="userSpaceOnUse"
       gradientTransform="matrix(0.928681,0,0,0.102029,1.804722,37.76401)"
       r="21.535715"
       fy="44.051216"
       fx="25.304846"
       cy="44.051216"
       cx="25.304846"
       id="radialGradient2195"
       xlink:href="#linearGradient2189"
       inkscape:collect="always" />
    <linearGradient
       id="linearGradient2189"
       inkscape:collect="always">
      <stop
         id="stop2191"
         offset="0"
         style="stop-color:#000000;stop-opacity:1;" />
      <stop
         id="stop2193"
         offset="1"
         style="stop-color:#000000;stop-opacity:0;" />
    </linearGradient>
    <linearGradient
       inkscape:collect="always"
       xlink:href="#linearGradient124"
       id="linearGradient4372"
       gradientUnits="userSpaceOnUse"
       gradientTransform="matrix(1.4019046,3.2381864,-0.8095466,0.3504761,-482.91339,-745.38115)"
       x1="253.75711"
       y1="-129.52815"
       x2="252.00447"
       y2="-135.47408" />
    <radialGradient
       inkscape:collect="always"
       xlink:href="#linearGradient124"
       id="radialGradient4374"
       gradientUnits="userSpaceOnUse"
       gradientTransform="matrix(1.279254,0,0,1.7073246,-321.71546,-587.15241)"
       cx="307.7507"
       cy="361.47824"
       fx="307.7507"
       fy="361.47824"
       r="12.509617" />
    <linearGradient
       inkscape:collect="always"
       xlink:href="#linearGradient10554"
       id="linearGradient8701"
       gradientUnits="userSpaceOnUse"
       gradientTransform="matrix(1.5347684,0,0,1.4230823,-296.72742,-584.34298)"
       x1="240.9062"
       y1="425.18195"
       x2="248.28683"
       y2="437.96558" />
    <linearGradient
       id="linearGradient10554"
       inkscape:collect="always">
      <stop
         id="stop10556"
         offset="0"
         style="stop-color:white;stop-opacity:1;" />
      <stop
         id="stop10558"
         offset="1"
         style="stop-color:white;stop-opacity:0;" />
    </linearGradient>
    <radialGradient
       gradientUnits="userSpaceOnUse"
       gradientTransform="matrix(1.7207318,0,0,0.27265234,-67.304629,3.6076263)"
       r="21.535715"
       fy="44.051216"
       fx="25.304846"
       cy="44.051216"
       cx="25.304846"
       id="radialGradient2195-5"
       xlink:href="#linearGradient2189"
       inkscape:collect="always" />
  </defs>
  <sodipodi:namedview
     stroke="#ef2929"
     fill="#eeeeec"
     id="base"
     pagecolor="#ffffff"
     bordercolor="#666666"
     borderopacity="0.25490196"
     inkscape:pageopacity="0.0"
     inkscape:pageshadow="2"
     inkscape:zoom="5.656854"
     inkscape:cx="-19.645219"
     inkscape:cy="18.687379"
     inkscape:current-layer="layer1-3"
     showgrid="false"
     inkscape:grid-bbox="true"
     inkscape:document-units="px"
     inkscape:showpageshadow="false"
     inkscape:window-width="1280"
     inkscape:window-height="959"
     inkscape:window-x="0"
     inkscape:window-y="25"
     showguides="true"
     inkscape:guide-bbox="true"
     showborder="true"
     inkscape:window-maximized="1">
    <inkscape:grid
       type="xygrid"
       id="grid7912"
       empspacing="5"
       visible="true"
       enabled="true" />
  </sodipodi:namedview>
  <metadata
     id="metadata4">
    <rdf:RDF>
      <cc:Work
         rdf:about="">
        <dc:format>image/svg+xml</dc:format>
        <dc:type
           rdf:resource="http://purl.org/dc/dcmitype/StillImage" />
        <dc:creator>
          <cc:Agent>
            <dc:title>Patrick Niklaus</dc:title>
          </cc:Agent>
        </dc:creator>
        <dc:source />
        <cc:license
           rdf:resource="http://creativecommons.org/licenses/GPL/2.0/" />
        <dc:title>State</dc:title>
        <dc:subject>
          <rdf:Bag />
        </dc:subject>
      </cc:Work>
      <cc:License
         rdf:about="http://creativecommons.org/licenses/GPL/2.0/">
        <cc:permits
           rdf:resource="http://web.resource.org/cc/Reproduction" />
        <cc:permits
           rdf:resource="http://web.resource.org/cc/Distribution" />
        <cc:requires
           rdf:resource="http://web.resource.org/cc/Notice" />
        <cc:permits
           rdf:resource="http://web.resource.org/cc/DerivativeWorks" />
        <cc:requires
           rdf:resource="http://web.resource.org/cc/ShareAlike" />
        <cc:requires
           rdf:resource="http://web.resource.org/cc/SourceCode" />
      </cc:License>
    </rdf:RDF>
  </metadata>
  <g
     id="layer1"
     inkscape:label="Layer 1"
     inkscape:groupmode="layer">
    <g
       transform="matrix(0.31957746,0,0,0.36666682,14.382087,7.0556487)"
       id="layer1-3"
       inkscape:label="Layer 1">
      <path
         inkscape:connector-curvature="0"
         style="opacity:1;fill:url(#radialGradient2103);fill-opacity:1;stroke:#888a85;stroke-width:0.95604855;stroke-linecap:round;stroke-linejoin:round;stroke-miterlimit:4;stroke-dasharray:none;stroke-dashoffset:0;stroke-opacity:1"
         d="m 22.978023,4.5 c 11.31746,0 20.598044,7.622561 20.5,17 -0.142857,13.806522 -17.574237,18.772257 -25.25,16.46875 -4.75,1.558036 -5.922008,3.525825 -12.8862937,3.512432 4.035714,-2.65625 3.954569,-4.27635 3.987309,-7.146886 C 5.2028083,31.225857 2.4780243,26.481404 2.4780233,21.5 c 0,-9.377951 9.1825387,-16.9999998 20.4999997,-17 z"
         id="path2079"
         sodipodi:nodetypes="cscccsc" />
      <path
         inkscape:connector-curvature="0"
         style="opacity:1;fill:none;fill-opacity:1;stroke:#ffffff;stroke-width:0.95625001;stroke-linecap:round;stroke-linejoin:miter;stroke-miterlimit:4;stroke-dasharray:none;stroke-dashoffset:0;stroke-opacity:1"
         d="m 22.983361,5.4547703 c 10.786694,0 19.632039,7.2517687 19.538593,16.1730517 C 42.385797,34.76274 25.468865,39.183875 18.153079,36.99242 13.996233,38.554252 13.641818,39.167206 8.5145603,40.162686 10.271863,38.11031 10.36985,36.326316 10.383282,33.953563 6.4505643,30.996331 3.4447683,26.366911 3.4447673,21.627822 c 0,-8.92177 8.7518967,-16.1730517 19.5385937,-16.1730517 z"
         id="path2095"
         sodipodi:nodetypes="cscccsc" />
      <path
         inkscape:connector-curvature="0"
         id="path3243"
         d="m 17.630527,8.4361254 c -0.204961,0.014024 -0.404177,0.045769 -0.605494,0.068806 h -0.01376 L 16.52963,11.133324 c -0.785039,0.178781 -1.523602,0.48219 -2.188034,0.894479 l -2.160511,-1.555017 c -0.584043,0.453433 -1.115517,0.982262 -1.58254,1.555017 l 1.499973,2.188034 c -0.455434,0.695994 -0.797917,1.490714 -0.990808,2.325646 -3.3e-5,0.0039 -2.7e-5,0.01307 0,0.01376 L 8.493078,16.96808 c -0.047802,0.390437 -0.068806,0.79394 -0.068806,1.197226 0,0.329961 0.00911,0.655514 0.041284,0.977046 l 2.614632,0.467882 c 0.185954,0.907973 0.539201,1.755937 1.032091,2.504542 l -1.555018,2.132989 c 0.445347,0.552878 0.959495,1.056252 1.513734,1.499972 l 2.201795,-1.513734 c 0.769498,0.490876 1.628485,0.835086 2.559587,1.004569 l 0.412837,2.600871 c 0.293359,0.0267 0.594198,0.02752 0.894479,0.02752 0.423927,0 0.82886,-0.01607 1.23851,-0.06881 l 0.495403,-2.655915 c 0.884048,-0.220004 1.714525,-0.601658 2.435736,-1.114659 l 2.119228,1.541257 c 0.54958,-0.467572 1.052139,-1.005012 1.486211,-1.582541 l -1.541256,-2.229317 c 0.417396,-0.720863 0.706613,-1.516218 0.853196,-2.36693 l 2.60087,-0.412836 c 0.02281,-0.271414 0.02752,-0.534634 0.02752,-0.811912 0,-0.481847 -0.056,-0.954295 -0.123851,-1.417406 L 25.089106,16.266252 C 24.882052,15.50169 24.542323,14.788362 24.11206,14.147024 l 1.555018,-2.132989 c -0.482006,-0.589468 -1.03184,-1.134004 -1.637586,-1.596301 L 21.786414,11.95899 C 21.141731,11.577718 20.44796,11.285168 19.69471,11.119563 L 19.281873,8.5049314 c -0.375758,-0.044201 -0.754608,-0.068806 -1.142181,-0.068806 -0.104749,0 -0.212554,-0.0033 -0.316508,0 -0.05068,0.00161 -0.100827,-0.00295 -0.151374,0 -0.01369,7.99e-4 -0.02762,-9.35e-4 -0.04128,0 z m 0.357791,6.6879526 c 0.05027,-0.0026 0.100469,0 0.151374,0 1.628944,0 2.958662,1.329718 2.958662,2.958662 0,1.628943 -1.329719,2.9449 -2.958662,2.9449 -1.628943,10e-7 -2.944901,-1.315957 -2.944901,-2.9449 0,-1.578039 1.235031,-2.879577 2.793527,-2.958662 z"
         style="color:#000000;display:inline;overflow:visible;visibility:visible;fill:#2e3436;fill-opacity:1;fill-rule:nonzero;stroke:#808080;stroke-width:0.440359;stroke-linecap:butt;stroke-linejoin:miter;stroke-miterlimit:4;stroke-dasharray:none;stroke-dashoffset:0;stroke-opacity:1;marker:none;marker-start:none;marker-mid:none;marker-end:none" />
      <ellipse
         ry="2.7142856"
         rx="21.535715"
         cy="42"
         cx="24.535715"
         style="opacity:0.2;fill:url(#radialGradient2195);fill-opacity:1;stroke:none;stroke-width:1;stroke-linecap:round;stroke-linejoin:round;stroke-miterlimit:4;stroke-dasharray:none;stroke-dashoffset:0;stroke-opacity:1"
         id="path1314"
         transform="matrix(-0.92869,0,0,1.289475,47.76409,-10.65794)" />
      <path
         inkscape:connector-curvature="0"
         id="path1940"
         d="m 30.713677,22.045434 c -0.126168,-0.02512 -0.251769,-0.0386 -0.377212,-0.05767 l -0.0083,-0.0023 -0.721958,1.509519 c -0.503749,-0.02065 -0.99984,0.04165 -1.468979,0.181891 L 27.086434,22.38292 c -0.427299,0.178289 -0.83519,0.410765 -1.211327,0.68035 l 0.547823,1.568237 c -0.389339,0.345966 -0.726598,0.770114 -0.980044,1.243086 -6.67e-4,0.0024 -0.0022,0.0079 -0.0023,0.0083 L 23.792749,25.70377 c -0.09289,0.228125 -0.171735,0.468541 -0.237847,0.712267 -0.05409,0.199414 -0.101952,0.397656 -0.135219,0.597249 l 1.503459,0.711386 c -0.03646,0.579221 0.03801,1.149599 0.213174,1.68282 l -1.289444,1.034161 c 0.178512,0.407139 0.40672,0.79564 0.668936,1.15466 l 1.578809,-0.553885 c 0.384579,0.422808 0.847282,0.771646 1.382213,1.026711 l -0.176866,1.639521 c 0.172915,0.06423 0.354593,0.114041 0.536068,0.163267 0.256202,0.06949 0.503557,0.126168 0.759777,0.161448 l 0.734787,-1.523897 c 0.570342,0.01196 1.134809,-0.08255 1.654771,-0.274353 l 1.028101,1.278872 c 0.40879,-0.192485 0.800617,-0.434903 1.157623,-0.712776 l -0.566006,-1.599954 c 0.370427,-0.367231 0.675601,-0.800494 0.903647,-1.290596 l 1.63952,0.176868 c 0.05828,-0.160291 0.104276,-0.318596 0.149731,-0.48617 0.07899,-0.291205 0.122591,-0.585911 0.157508,-0.876916 l -1.517837,-0.724215 c 2.02e-4,-0.496006 -0.08818,-0.982801 -0.243071,-1.440929 l 1.289444,-1.03416 C 34.789358,25.089885 34.54633,24.670658 34.256032,24.291967 l -1.608271,0.563751 c -0.327113,-0.336112 -0.698436,-0.626647 -1.126517,-0.850212 l 0.17912,-1.647836 c -0.219843,-0.08831 -0.444768,-0.165288 -0.679,-0.228824 -0.0633,-0.01717 -0.127917,-0.03683 -0.191282,-0.05188 -0.03089,-0.0073 -0.06045,-0.01831 -0.09148,-0.02482 -0.0084,-0.0018 -0.01654,-0.0051 -0.02495,-0.0068 z m -0.880136,4.100535 c 0.0308,0.0067 0.06072,0.01647 0.09148,0.02482 0.984458,0.267036 1.570092,1.288637 1.303057,2.273095 -0.267036,0.984456 -1.286382,1.561774 -2.270838,1.294738 -0.984456,-0.267034 -1.564032,-1.278064 -1.296997,-2.262519 0.258691,-0.953693 1.21845,-1.537821 2.173296,-1.330129 z"
         style="color:#000000;display:inline;overflow:visible;visibility:visible;fill:#2e3436;fill-opacity:1;fill-rule:nonzero;stroke:#808080;stroke-width:0.27574903;stroke-linecap:butt;stroke-linejoin:miter;stroke-miterlimit:4;stroke-dasharray:none;stroke-dashoffset:0;stroke-opacity:1;marker:none;marker-start:none;marker-mid:none;marker-end:none" />
      <ellipse
         style="opacity:0.2;fill:url(#radialGradient2195-5);fill-opacity:1;stroke:none;stroke-width:2.22518516;stroke-linecap:round;stroke-linejoin:round;stroke-miterlimit:4;stroke-dasharray:none;stroke-dashoffset:0;stroke-opacity:1"
         id="path1314-6"
         transform="matrix(-0.57046372,-0.8213228,-0.80902411,0.58777546,0,0)"
         cx="-25.186897"
         cy="14.927467"
         rx="39.903042"
         ry="7.2533922" />
    </g>
    <g
       id="g4366"
       transform="matrix(0.7237203,0,0,0.7211022,-43.960054,-3.9868639)">
      <path
         inkscape:connector-curvature="0"
         sodipodi:nodetypes="cccccccc"
         style="fill:none;stroke:#888a85;stroke-width:1.44304895;stroke-linecap:round;stroke-linejoin:round;stroke-miterlimit:4;stroke-dasharray:none;stroke-dashoffset:0;stroke-opacity:1"
         d="m 71.401064,17.737975 v 21.977386 l 6.978408,-4.269247 4.268574,9.161092 3.501191,-1.423081 -4.172651,-8.938737 6.28196,-0.622598 z"
         id="rect16" />
      <path
         transform="matrix(0.8698963,0,0,0.8065934,98.369116,14.067108)"
         d="m -22.240234,19.113281 a 0.35634045,0.35634045 0 0 0 -0.115235,0.02734 l -2.40625,1 a 0.35634045,0.35634045 0 0 0 -0.216797,0.378906 l 0.78125,5.375 a 0.35634045,0.35634045 0 0 0 0.369141,0.304688 l 1.253906,-0.05273 4.623047,10.681641 a 0.35634045,0.35634045 0 0 0 0.464844,0.1875 l 2.4375,-1.03125 a 0.35634045,0.35634045 0 0 0 0.1875,-0.470703 l -4.478516,-10.339844 0.71875,-0.960937 a 0.35634045,0.35634045 0 0 0 0.002,-0.423829 l -3.3125,-4.53125 a 0.35634045,0.35634045 0 0 0 -0.308593,-0.144531 z"
         id="path2887"
         style="fill:url(#linearGradient4372);fill-opacity:1;fill-rule:evenodd;stroke:none"
         inkscape:original="M -22.21875 19.46875 L -24.625 20.46875 L -23.84375 25.84375 L -22.34375 25.78125 L -17.625 36.6875 L -15.1875 35.65625 L -19.75 25.125 L -18.90625 24 L -22.21875 19.46875 z "
         inkscape:radius="0.35630482"
         sodipodi:type="inkscape:offset" />
      <path
         inkscape:connector-curvature="0"
         sodipodi:nodetypes="ccccc"
         id="path2891"
         d="m 72.11552,19.307879 c 0.01837,0.02654 0.01847,12.775815 -0.108483,19.275851 l 7.613907,-4.666125 c 2.274689,-0.29736 7.119272,-0.855529 7.15059,-0.86363 z"
         style="fill:url(#radialGradient4374);fill-opacity:1;fill-rule:evenodd;stroke:none" />
      <path
         sodipodi:type="inkscape:offset"
         inkscape:radius="-0.51337475"
         inkscape:original="M 72.28125 19.75 C 72.308434 19.786317 72.236734 38.231507 72.25 38.21875 L 79.5625 33.6875 C 81.782403 33.496235 86.332488 32.96244 86.34375 32.96875 C 86.382631 32.954521 72.347636 19.74392 72.28125 19.75 z "
         style="fill:none;stroke:url(#linearGradient8701);stroke-width:1.44304895;stroke-linecap:butt;stroke-linejoin:miter;stroke-miterlimit:4;stroke-dashoffset:0;stroke-opacity:1"
         id="path8699"
         d="m 72.800781,20.919922 c 2.2e-4,0.480268 -8.41e-4,1.017936 -0.002,1.734375 -0.0027,1.734621 -0.0072,4.042423 -0.01367,6.349609 -0.0064,2.307187 -0.0151,4.613977 -0.01953,6.341797 -0.0021,0.808905 -0.0032,1.456824 -0.0039,1.953125 l 6.53125,-4.046875 a 0.51342608,0.51342608 0 0 1 0.224609,-0.07617 c 1.099144,-0.0947 2.791996,-0.275225 4.207031,-0.43164 0.576882,-0.06377 1.047206,-0.117882 1.47461,-0.166016 C 84.832095,32.228624 84.392905,31.811144 83.820312,31.269531 82.509512,30.029652 80.755813,28.378133 79,26.726562 77.244187,25.074992 75.485922,23.422757 74.162109,22.185547 73.600786,21.660944 73.171746,21.263895 72.800781,20.919922 Z" />
    </g>
  </g>
</svg>
