<?xml version="1.0" encoding="UTF-8" standalone="no"?>
<!-- Created with Inkscape (http://www.inkscape.org/) -->

<svg
   xmlns:dc="http://purl.org/dc/elements/1.1/"
   xmlns:cc="http://creativecommons.org/ns#"
   xmlns:rdf="http://www.w3.org/1999/02/22-rdf-syntax-ns#"
   xmlns:svg="http://www.w3.org/2000/svg"
   xmlns="http://www.w3.org/2000/svg"
   xmlns:xlink="http://www.w3.org/1999/xlink"
   xmlns:sodipodi="http://sodipodi.sourceforge.net/DTD/sodipodi-0.dtd"
   xmlns:inkscape="http://www.inkscape.org/namespaces/inkscape"
   width="72"
   height="72"
   id="svg3611"
   sodipodi:version="0.32"
   inkscape:version="0.92.3 (2405546, 2018-03-11)"
   version="1.0"
   sodipodi:docname="plugin-titleinfo.svg"
   inkscape:output_extension="org.inkscape.output.svg.inkscape">
  <defs
     id="defs3613">
    <linearGradient
       inkscape:collect="always"
       id="linearGradient4678">
      <stop
         style="stop-color:#729fcf;stop-opacity:1;"
         offset="0"
         id="stop4674" />
      <stop
         style="stop-color:#729fcf;stop-opacity:0;"
         offset="1"
         id="stop4676" />
    </linearGradient>
    <inkscape:perspective
       sodipodi:type="inkscape:persp3d"
       inkscape:vp_x="0 : 16 : 1"
       inkscape:vp_y="0 : 1000 : 0"
       inkscape:vp_z="32 : 16 : 1"
       inkscape:persp3d-origin="16 : 10.666667 : 1"
       id="perspective3619" />
    <linearGradient
       id="linearGradient3690">
      <stop
         style="stop-color:white;stop-opacity:1;"
         offset="0"
         id="stop3692" />
      <stop
         style="stop-color:white;stop-opacity:0.46875"
         offset="1"
         id="stop3694" />
    </linearGradient>
    <linearGradient
       id="linearGradient3674">
      <stop
         style="stop-color:#3465a4;stop-opacity:1"
         offset="0"
         id="stop3676" />
      <stop
         style="stop-color:#729fcf;stop-opacity:1;"
         offset="1"
         id="stop3678" />
    </linearGradient>
    <linearGradient
       id="linearGradient2781">
      <stop
         style="stop-color:#d3d7cf;stop-opacity:1"
         offset="0"
         id="stop2783" />
      <stop
         style="stop-color:#eeeeec;stop-opacity:1"
         offset="1"
         id="stop2785" />
    </linearGradient>
    <radialGradient
       gradientUnits="userSpaceOnUse"
       gradientTransform="matrix(-5.189409e-2,1.7251908,-2.0664067,-6.2888621e-2,77.196893,-35.974945)"
       r="8.7322731"
       fy="29.052198"
       fx="29.358974"
       cy="29.052198"
       cx="29.358974"
       id="radialGradient6152"
       xlink:href="#linearGradient6146"
       inkscape:collect="always" />
    <linearGradient
       id="linearGradient51765">
      <stop
         style="stop-color:#000000;stop-opacity:1"
         offset="0"
         id="stop51767" />
      <stop
         style="stop-color:#000000;stop-opacity:0"
         offset="1"
         id="stop51769" />
    </linearGradient>
    <linearGradient
       id="linearGradient47870">
      <stop
         style="stop-color:#000000;stop-opacity:0"
         offset="0"
         id="stop47872" />
      <stop
         style="stop-color:#000000;stop-opacity:1"
         offset="0.5"
         id="stop47878" />
      <stop
         style="stop-color:#000000;stop-opacity:0"
         offset="1"
         id="stop47874" />
    </linearGradient>
    <linearGradient
       id="linearGradient6146">
      <stop
         id="stop6148"
         offset="0"
         style="stop-color:#729fcf;stop-opacity:1" />
      <stop
         id="stop6150"
         offset="1"
         style="stop-color:#3465a4;stop-opacity:1" />
    </linearGradient>
    <inkscape:perspective
       id="perspective3662"
       inkscape:persp3d-origin="16 : 10.666667 : 1"
       inkscape:vp_z="32 : 16 : 1"
       inkscape:vp_y="0 : 1000 : 0"
       inkscape:vp_x="0 : 16 : 1"
       sodipodi:type="inkscape:persp3d" />
    <radialGradient
       r="21.535715"
       fy="44.051216"
       fx="25.304846"
       cy="44.051216"
       cx="25.304846"
       gradientTransform="matrix(0.928681,0,0,0.102029,1.804722,37.76401)"
       gradientUnits="userSpaceOnUse"
       id="radialGradient7927"
       xlink:href="#linearGradient2189"
       inkscape:collect="always" />
    <radialGradient
       r="20.978409"
       fy="15.445013"
       fx="16.981855"
       cy="15.445013"
       cx="16.981855"
       gradientTransform="matrix(-1.50631,4.232823e-3,3.006144e-3,1.069777,54.850852,-0.3745243)"
       gradientUnits="userSpaceOnUse"
       id="radialGradient7925"
       xlink:href="#linearGradient2097-6"
       inkscape:collect="always" />
    <radialGradient
       r="21.535715"
       fy="44.051216"
       fx="25.304846"
       cy="44.051216"
       cx="25.304846"
       gradientTransform="matrix(0.928681,0,0,0.102029,1.804722,37.76401)"
       gradientUnits="userSpaceOnUse"
       id="radialGradient7918"
       xlink:href="#linearGradient2189"
       inkscape:collect="always" />
    <radialGradient
       r="20.978409"
       fy="15.445013"
       fx="16.981855"
       cy="15.445013"
       cx="16.981855"
       gradientTransform="matrix(-1.50631,4.232823e-3,3.006144e-3,1.069777,54.81232,-0.459221)"
       gradientUnits="userSpaceOnUse"
       id="radialGradient7916"
       xlink:href="#linearGradient2097-6"
       inkscape:collect="always" />
    <radialGradient
       gradientUnits="userSpaceOnUse"
       gradientTransform="matrix(0.928681,0,0,0.102029,1.804722,37.76401)"
       r="21.535715"
       fy="44.051216"
       fx="25.304846"
       cy="44.051216"
       cx="25.304846"
       id="radialGradient2195"
       xlink:href="#linearGradient2189"
       inkscape:collect="always" />
    <radialGradient
       gradientUnits="userSpaceOnUse"
       gradientTransform="matrix(-1.50631,4.232823e-3,3.006144e-3,1.069777,54.81232,-0.459221)"
       r="20.978409"
       fy="15.445013"
       fx="16.981855"
       cy="15.445013"
       cx="16.981855"
       id="radialGradient2103"
       xlink:href="#linearGradient2097-6"
       inkscape:collect="always" />
    <linearGradient
       id="linearGradient2097-6"
       inkscape:collect="always">
      <stop
         id="stop2099"
         offset="0"
         style="stop-color:#ffffff;stop-opacity:1.0000000" />
      <stop
         id="stop2101"
         offset="1"
         style="stop-color:#e7e7e3;stop-opacity:1.0000000" />
    </linearGradient>
    <linearGradient
       id="linearGradient2189"
       inkscape:collect="always">
      <stop
         id="stop2191"
         offset="0"
         style="stop-color:#000000;stop-opacity:1;" />
      <stop
         id="stop2193"
         offset="1"
         style="stop-color:#000000;stop-opacity:0;" />
    </linearGradient>
    <inkscape:perspective
       id="perspective3730"
       inkscape:persp3d-origin="16 : 10.666667 : 1"
       inkscape:vp_z="32 : 16 : 1"
       inkscape:vp_y="0 : 1000 : 0"
       inkscape:vp_x="0 : 16 : 1"
       sodipodi:type="inkscape:persp3d" />
    <linearGradient
       inkscape:collect="always"
       xlink:href="#linearGradient47870"
       id="linearGradient15402"
       gradientUnits="userSpaceOnUse"
       gradientTransform="matrix(0.9788196,0,0,0.7154223,-8.5008021,52.112719)"
       x1="32.084972"
       y1="-14.402173"
       x2="32.084972"
       y2="-5.5633383" />
    <radialGradient
       inkscape:collect="always"
       xlink:href="#linearGradient51765"
       id="radialGradient15404"
       gradientUnits="userSpaceOnUse"
       gradientTransform="matrix(1.9576392,-8.146468e-7,6.6614241e-7,1.4565793,-59.017557,62.738067)"
       cx="51.4375"
       cy="-12.203125"
       fx="51.4375"
       fy="-12.203125"
       r="2.171875" />
    <radialGradient
       inkscape:collect="always"
       xlink:href="#linearGradient51765"
       id="radialGradient15406"
       gradientUnits="userSpaceOnUse"
       gradientTransform="matrix(-1.9576392,-9.2540676e-8,-1.2888861e-7,1.4565793,110.01781,62.73803)"
       cx="51.4375"
       cy="-12.203125"
       fx="51.4375"
       fy="-12.203125"
       r="2.171875" />
    <radialGradient
       gradientUnits="userSpaceOnUse"
       gradientTransform="matrix(0.73091589,0,0,0.11149788,-74.217426,25.946501)"
       r="21.535715"
       fy="44.051216"
       fx="25.304846"
       cy="44.051216"
       cx="25.304846"
       id="radialGradient2195-3"
       xlink:href="#linearGradient51765"
       inkscape:collect="always" />
    <linearGradient
       inkscape:collect="always"
       xlink:href="#linearGradient3674"
       id="linearGradient2434"
       gradientUnits="userSpaceOnUse"
       gradientTransform="matrix(1.9948902,0,0,2.0368259,-10.192211,9.2270788)"
       x1="16.440886"
       y1="3.9467564"
       x2="16.491102"
       y2="8.1244717" />
    <linearGradient
       inkscape:collect="always"
       xlink:href="#linearGradient2781"
       id="linearGradient2437"
       gradientUnits="userSpaceOnUse"
       gradientTransform="matrix(1.9948902,0,0,1.8861338,-10.192211,11.341342)"
       x1="24.925514"
       y1="40.000107"
       x2="24.925514"
       y2="19.53867" />
    <linearGradient
       inkscape:collect="always"
       xlink:href="#linearGradient3690"
       id="linearGradient2431"
       gradientUnits="userSpaceOnUse"
       gradientTransform="matrix(2.0203936,0,0,1.9327413,-10.83211,9.7973838)"
       x1="9.5"
       y1="16.26436"
       x2="9.5"
       y2="13.408723" />
    <radialGradient
       gradientUnits="userSpaceOnUse"
       gradientTransform="matrix(-1.50631,0.00423282,0.00300614,1.069777,54.81232,-0.459221)"
       r="20.978409"
       fy="15.445013"
       fx="16.981855"
       cy="15.445013"
       cx="16.981855"
       id="radialGradient2103-3"
       xlink:href="#linearGradient2097-6"
       inkscape:collect="always" />
    <radialGradient
       inkscape:collect="always"
       xlink:href="#linearGradient51765"
       id="radialGradient4085"
       gradientUnits="userSpaceOnUse"
       gradientTransform="matrix(0.3358024,0,0,0.03773367,44.460565,21.907845)"
       cx="26.812502"
       cy="0.49999759"
       fx="26.812502"
       fy="0.49999759"
       r="25.312502" />
    <linearGradient
       inkscape:collect="always"
       xlink:href="#linearGradient4678"
       id="linearGradient4680"
       x1="23.679556"
       y1="-21.544012"
       x2="-7.810781"
       y2="-23.031557"
       gradientUnits="userSpaceOnUse" />
  </defs>
  <sodipodi:namedview
     id="base"
     pagecolor="#ffffff"
     bordercolor="#666666"
     borderopacity="1.0"
     inkscape:pageopacity="0.0"
     inkscape:pageshadow="2"
     inkscape:zoom="5.598901"
     inkscape:cx="21.103161"
     inkscape:cy="37.406663"
     inkscape:current-layer="layer1"
     showgrid="true"
     inkscape:grid-bbox="true"
     inkscape:document-units="px"
     inkscape:window-width="1280"
     inkscape:window-height="956"
     inkscape:window-x="0"
     inkscape:window-y="25"
     inkscape:window-maximized="1"
     inkscape:snap-text-baseline="false"
     inkscape:snap-global="false" />
  <metadata
     id="metadata3616">
    <rdf:RDF>
      <cc:Work
         rdf:about="">
        <dc:format>image/svg+xml</dc:format>
        <dc:type
           rdf:resource="http://purl.org/dc/dcmitype/StillImage" />
        <dc:title />
      </cc:Work>
    </rdf:RDF>
  </metadata>
  <g
     id="layer1"
     inkscape:label="Layer 1"
     inkscape:groupmode="layer">
    <g
       inkscape:label="Layer 1"
       id="g3749"
       transform="matrix(1.8753568,0,0,2.1124953,-273.4992,22.067174)">
      <path
         sodipodi:nodetypes="csssc"
         id="path3668"
         d="M 15.523796,20.224456 C 14.918245,20.224456 14.431341,20.742826 14.431341,21.387509 C 14.431341,22.032192 14.918245,22.569321 15.523796,22.569321 C 16.129346,22.569321 16.568189,22.015109 16.568189,21.370426 C 16.568189,20.725743 16.129346,20.224456 15.523796,20.224456 z"
         style="opacity:0.35800003;fill:none;fill-opacity:1;stroke:#eeeeec;stroke-width:0.85735518;stroke-miterlimit:4;stroke-dasharray:none;stroke-opacity:1" />
    </g>
    <path
       transform="matrix(0.5775205,0,0,0.5750875,-42.468813,-27.596117)"
       d="m 20.255859,-25.066406 c -3.310858,0.199499 -5.826247,1.163976 -7.578125,2.875 -1.752866,1.711989 -2.9094743,4.300865 -3.0859371,8.3125 0.015867,1.132273 0.8260901,1.955078 2.0019531,1.955078 1.187409,0 1.993884,-0.836723 2.117188,-2.195313 a 2.3616811,2.3616811 0 0 1 0.002,-0.01563 c 0.215045,-2.220704 0.567295,-4.038466 1.833984,-5.523437 a 2.3616811,2.3616811 0 0 1 0.01758,-0.01758 c 1.129811,-1.296268 2.845133,-1.998002 4.466797,-1.998047 1.322902,4e-5 2.867268,0.335287 3.945312,1.511719 1.017556,1.082436 1.353493,2.513482 1.353516,3.818359 -3.4e-5,1.931313 -1.098965,3.48321 -2.560547,4.849609 -2.236142,2.1279059 -3.708643,3.6996002 -4.167969,4.2968754 -0.463079,0.6204034 -0.802612,1.3108154 -1.068359,2.15625 a 2.3616811,2.3616811 0 0 1 -0.002,0.00977 c -0.238705,0.7469392 -0.41993,1.8234432 -0.419922,3.3125 v 1 c 0,1.11130237 0.83987,1.9511719 1.951172,1.9511719 1.070036,0 1.919922,-0.88173887 1.919922,-2.0136719 4e-6,-0.279465 -0.0014,-0.1653707 0.0059,-0.0703125 a 2.3616811,2.3616811 0 0 1 -0.0059,-0.2441406 c 0.03997,-1.4697199 0.317079,-2.7800014 0.851562,-3.9121094 a 2.3616811,2.3616811 0 0 1 0.0059,-0.013672 c 0.675925,-1.4074833 1.78803,-2.5908019 3.416015,-4.0703125 a 2.3616811,2.3616811 0 0 1 0.0059,-0.00586 c 2.088989,-1.8843988 3.374841,-3.4248088 3.830078,-4.3027348 0.529531,-1.021242 0.765604,-2.070311 0.765625,-3.193359 -2.2e-5,-2.942899 -0.933917,-4.862071 -3.179688,-6.603516 a 2.3616811,2.3616811 0 0 1 -0.0039,-0.002 c -1.52604,-1.189013 -3.560002,-1.854943 -6.417969,-1.867187 z"
       id="path3261"
       style="font-style:normal;font-weight:normal;font-size:28px;font-family:'Arial Black';fill:none;fill-opacity:1;stroke:#ffffff;stroke-width:1.73519933px;stroke-linecap:butt;stroke-linejoin:miter;stroke-opacity:0.23717951"
       inkscape:original="M 20.1875 -27.4375 C 12.691257 -27.013184 7.581816 -22.887823 7.21875 -13.90625 C 7.2187498 -11.49164 9.1589798 -9.5625 11.59375 -9.5625 C 14.02852 -9.5625002 15.843353 -11.49164 16.0625 -13.90625 C 16.258339 -15.92862 16.65073 -17.312555 17.34375 -18.125 C 18.051814 -18.937384 18.96159 -19.31247 20.03125 -19.3125 C 21.025553 -19.31247 21.767891 -19.098318 22.25 -18.5625 C 22.747141 -18.043906 22.968733 -17.294424 22.96875 -16.34375 C 22.968733 -15.393023 22.376533 -14.359565 21.15625 -13.21875 C 18.866293 -11.04076 17.381617 -9.489251 16.71875 -8.625 C 16.070927 -7.7607066 15.61268 -6.804395 15.28125 -5.75 C 14.949802 -4.712856 14.749991 -3.395424 14.75 -1.71875 L 14.75 -0.71875 C 14.75 1.665617 16.678133 3.59375 19.0625 3.59375 C 21.446868 3.59375 23.34375 1.603115 23.34375 -0.78125 C 23.343751 -0.841938 23.352186 -0.92105995 23.34375 -1.03125 C 23.376461 -2.2340321 23.60787 -3.235607 23.96875 -4 C 24.375497 -4.8469721 25.322121 -5.960896 26.84375 -7.34375 C 29.028213 -9.3142728 30.4794 -10.946927 31.1875 -12.3125 C 31.895548 -13.678026 32.218723 -15.124459 32.21875 -16.59375 C 32.218724 -20.137235 30.866883 -22.936353 28.125 -25.0625 C 26.106211 -26.635438 23.471745 -27.437462 20.1875 -27.4375 z "
       inkscape:radius="-2.361445"
       sodipodi:type="inkscape:offset" />
    <g
       transform="matrix(1.2925882,0,0,1.5763227,-6.0146261,-7.9064192)"
       id="g8007">
      <rect
         width="32.357079"
         height="6.3234997"
         x="9.3215466"
         y="41.809082"
         style="opacity:0.3;fill:url(#linearGradient15402);fill-opacity:1;fill-rule:evenodd;stroke:none"
         id="rect8009" />
      <path
         inkscape:connector-curvature="0"
         d="m 41.6785,41.799698 v 6.327016 c 2.343798,-0.02389 4.251748,-1.421401 4.251748,-3.152329 0,-1.730927 -1.907949,-3.150801 -4.251748,-3.174687 z"
         style="opacity:0.3;fill:url(#radialGradient15404);fill-opacity:1;fill-rule:evenodd;stroke:none"
         id="path8011" />
      <path
         inkscape:connector-curvature="0"
         d="m 9.3217476,41.799698 v 6.327016 C 6.9779494,48.102828 5.07,46.705313 5.07,44.974385 c 0,-1.730927 1.9079484,-3.150801 4.2517476,-3.174687 z"
         style="opacity:0.3;fill:url(#radialGradient15406);fill-opacity:1;fill-rule:evenodd;stroke:none"
         id="path8013" />
    </g>
    <ellipse
       ry="2.966187"
       rx="16.949627"
       cy="30.575617"
       cx="-56.327061"
       transform="scale(-1,1)"
       id="path1314"
       style="opacity:0.2;fill:url(#radialGradient2195-3);fill-opacity:1;stroke:none;stroke-width:0.9274103;stroke-linecap:round;stroke-linejoin:round;stroke-miterlimit:4;stroke-dasharray:none;stroke-dashoffset:0;stroke-opacity:1" />
    <rect
       style="opacity:0.8;fill:none;fill-opacity:1;stroke:url(#linearGradient2431);stroke-width:1.60279858;stroke-miterlimit:4;stroke-dasharray:none;stroke-opacity:1"
       id="rect1919"
       width="43.342896"
       height="40.192654"
       x="5.1325383"
       y="21.734875"
       rx="2.4218514"
       ry="2.4218516" />
    <rect
       style="fill:url(#linearGradient2437);fill-opacity:1;stroke:#888a85;stroke-width:1.60279739;stroke-miterlimit:4;stroke-dasharray:none;stroke-opacity:1"
       id="rect1915"
       width="46.48111"
       height="41.979202"
       x="3.5504191"
       y="21.425243"
       rx="3.2055938"
       ry="3.2055941" />
    <path
       inkscape:connector-curvature="0"
       style="fill:url(#linearGradient2434);fill-opacity:1;stroke:#204a87;stroke-width:1.60279775;stroke-miterlimit:4;stroke-opacity:1"
       d="m 3.550417,28.348831 v -5.24724 c 0,-1.646857 1.256397,-2.972666 2.817034,-2.972666 H 47.21444 c 1.560635,0 2.817034,1.325809 2.817034,2.972666 v 5.24724"
       id="path1917"
       sodipodi:nodetypes="cccccc" />
    <rect
       style="opacity:0.8;fill:none;stroke:#ffffff;stroke-width:1.57437038;stroke-miterlimit:4;stroke-dasharray:none;stroke-opacity:1"
       id="rect8019"
       width="43.342896"
       height="40.192654"
       x="5.1325383"
       y="21.734875"
       rx="2.4218514"
       ry="2.4218516" />
    <g
       inkscape:label="Layer 1"
       id="g2415"
       transform="matrix(0.8474812,0,0,0.8474812,34.647081,-3.0015495)">
      <path
         inkscape:connector-curvature="0"
         sodipodi:nodetypes="cscccsc"
         id="path2079"
         d="m 22.978023,4.5 c 11.31746,0 20.598044,7.622561 20.5,17 -0.142857,13.806522 -17.574237,18.772257 -25.25,16.46875 -4.75,1.558036 -5.922008,3.525825 -12.8862937,3.512432 4.035714,-2.65625 3.954569,-4.27635 3.987309,-7.146886 C 5.2028083,31.225857 2.4780243,26.481404 2.4780233,21.5 c 0,-9.377951 9.1825387,-16.9999998 20.4999997,-17 z"
         style="opacity:1;fill:url(#radialGradient2103-3);fill-opacity:1;stroke:#888a85;stroke-width:0.95604855;stroke-linecap:round;stroke-linejoin:round;stroke-miterlimit:4;stroke-dasharray:none;stroke-dashoffset:0;stroke-opacity:1" />
      <path
         inkscape:connector-curvature="0"
         sodipodi:nodetypes="cscccsc"
         id="path2095"
         d="m 22.983361,5.4547703 c 10.786694,0 19.632039,7.2517687 19.538593,16.1730517 C 42.385797,34.76274 25.468865,39.183875 18.153079,36.99242 13.996233,38.554252 13.641818,39.167206 8.5145603,40.162686 10.271863,38.11031 10.36985,36.326316 10.383282,33.953563 6.4505643,30.996331 3.4447683,26.366911 3.4447673,21.627822 c 0,-8.92177 8.7518967,-16.1730517 19.5385937,-16.1730517 z"
         style="opacity:1;fill:none;fill-opacity:1;stroke:#ffffff;stroke-width:0.95625001;stroke-linecap:round;stroke-linejoin:miter;stroke-miterlimit:4;stroke-dasharray:none;stroke-dashoffset:0;stroke-opacity:1" />
    </g>
    <ellipse
       ry="0.95513374"
       rx="8.499999"
       cy="21.92671"
       cx="53.464279"
       style="opacity:0.24694375;fill:url(#radialGradient4085);fill-opacity:1;fill-rule:evenodd;stroke:none;stroke-width:0.20679659;stroke-linecap:round;stroke-linejoin:round;stroke-miterlimit:4;stroke-dasharray:none;stroke-dashoffset:0;stroke-opacity:1"
       id="path14866" />
    <path
       d="m 57.958164,4.3443639 c 0.69874,-0.093963 1.466014,0.1759466 1.829298,0.8350097 0.496573,0.9016977 0.222779,2.1629457 -0.702004,2.7645477 -0.720898,0.469815 -1.69618,0.50704 -2.363487,0.01591 C 56.14484,7.5381783 55.94044,6.6631207 56.143123,5.929201 56.37844,5.0823709 57.115313,4.4590684 57.958679,4.3456281 Z m 0.407083,5.8378351 c 0.379601,0.982677 -0.09275,2.113548 -0.434566,3.08211 -0.611483,1.714831 -1.800097,4.922201 -2.004497,5.564381 -0.235319,0.733918 -0.0069,1.047952 0.451742,0.860943 0.783248,-0.326381 1.648944,-1.73953 2.253557,-2.187645 0.247341,-0.183479 0.515295,0.239936 0.396777,0.522212 -0.479224,1.143222 -2.378946,2.849231 -3.873302,3.514346 -0.824472,0.366961 -1.910027,0.631594 -2.701864,0.261106 -0.668166,-0.30874 -0.788401,-1.074416 -0.693931,-1.718359 0.279977,-1.889491 1.11132,-3.621965 1.765745,-5.391487 0.378398,-1.023253 1.110976,-2.755727 1.168002,-3.057409 0.104777,-0.552205 -0.278259,-0.689814 -0.705955,-0.453407 -0.865695,0.47987 -1.690167,1.870083 -2.157368,2.17353 -0.2628,0.17113 -0.537625,-0.12526 -0.480942,-0.366959 0.137412,-0.592782 1.442826,-1.877141 1.923768,-2.286442 1.277932,-1.0867657 2.416735,-1.3284647 3.217159,-1.4027397 0.71128,-0.06671 1.587454,0.139745 1.875675,0.8858197 z"
       id="path2"
       style="fill:#729fcf;fill-opacity:1;stroke:#204a87;stroke-width:0.13104625;stroke-miterlimit:4;stroke-dasharray:none;stroke-opacity:1"
       inkscape:connector-curvature="0" />
    <path
       inkscape:connector-curvature="0"
       d="m 57.781192,4.4517056 c 0.697789,-0.092715 1.46402,0.1736103 1.82681,0.8239217 0.495897,0.8897242 0.222475,2.1342227 -0.70105,2.7278372 C 58.187035,8.4670399 57.21308,8.5037717 56.546678,8.0191637 55.970334,7.6031099 55.766211,6.7396717 55.96862,6.0154983 56.203616,5.179913 56.939487,4.5648881 57.781706,4.4529544 Z M 58.18772,10.21202 c 0.379086,0.969626 -0.09264,2.08548 -0.433974,3.041181 -0.610652,1.692061 -1.797649,4.856838 -2.001771,5.490491 -0.234998,0.724173 -0.0069,1.034037 0.451128,0.849512 0.782181,-0.322051 1.646702,-1.716431 2.250492,-2.158595 0.247006,-0.181043 0.514594,0.236749 0.396238,0.515276 -0.478574,1.128042 -2.375711,2.811397 -3.868035,3.46768 -0.823351,0.362085 -1.90743,0.623206 -2.69819,0.257638 -0.667257,-0.30464 -0.78733,-1.060149 -0.692986,-1.695543 0.279597,-1.864399 1.109808,-3.573866 1.763344,-5.31989 0.377882,-1.009666 1.109465,-2.719134 1.166412,-3.016811 0.104634,-0.544871 -0.27788,-0.680653 -0.704994,-0.447386 -0.864519,0.473499 -1.687869,1.845251 -2.154434,2.144668 -0.262444,0.168858 -0.536895,-0.123598 -0.480289,-0.362086 0.137224,-0.584911 1.440864,-1.852214 1.921152,-2.25608 1.276196,-1.0723341 2.413449,-1.3108238 3.212785,-1.3841105 0.710312,-0.065823 1.585292,0.1378876 1.873122,0.8740555 z"
       id="path2-3"
       style="fill:#729fcf;fill-opacity:1;stroke:#ffffff;stroke-width:0.13008469;stroke-miterlimit:4;stroke-dasharray:none;stroke-opacity:0.23999999" />
    <path
       inkscape:connector-curvature="0"
       d="m 57.783612,4.4069733 c 0.693613,-0.092855 1.455257,0.1738707 1.815873,0.8251594 0.49293,0.8910606 0.221147,2.1374301 -0.69685,2.7319354 -0.715607,0.4642715 -1.683731,0.5010581 -2.346142,0.015722 -0.572895,-0.4166775 -0.775796,-1.2814123 -0.574601,-2.0066739 0.233592,-0.8368398 0.965056,-1.4527896 1.802233,-1.564891 z m 0.404097,5.7689677 c 0.376815,0.971084 -0.09207,2.088615 -0.431377,3.04575 -0.606995,1.694603 -1.786886,4.864136 -1.989786,5.498739 -0.233593,0.725261 -0.0069,1.035591 0.448425,0.850788 0.777501,-0.322533 1.636846,-1.71901 2.237021,-2.161838 0.245527,-0.181316 0.511513,0.237105 0.393864,0.516052 -0.475708,1.129736 -2.361486,2.815621 -3.844878,3.472889 -0.818421,0.362629 -1.896008,0.624141 -2.682034,0.258023 -0.663262,-0.305096 -0.782616,-1.06174 -0.688838,-1.698088 0.277922,-1.867199 1.103163,-3.579236 1.752786,-5.327883 0.375621,-1.011183 1.102823,-2.723219 1.159431,-3.021343 0.104008,-0.545689 -0.276217,-0.681676 -0.700775,-0.448059 -0.859342,0.47421 -1.677763,1.848024 -2.141536,2.147892 -0.260872,0.16911 -0.533679,-0.123783 -0.477412,-0.362631 0.136404,-0.585789 1.432236,-1.854996 1.90965,-2.25947 1.268555,-1.0739447 2.399,-1.3127928 3.193549,-1.3861903 0.706059,-0.065917 1.575803,0.138096 1.86191,0.8753693 z"
       id="path2-3-9"
       style="fill:none;fill-opacity:1;stroke:#ffffff;stroke-width:0.12979211;stroke-miterlimit:4;stroke-dasharray:none;stroke-opacity:1" />
  </g>
</svg>
