<?xml version="1.0" encoding="UTF-8" standalone="no"?>
<!-- Created with Inkscape (http://www.inkscape.org/) -->
<svg
   xmlns:dc="http://purl.org/dc/elements/1.1/"
   xmlns:cc="http://creativecommons.org/ns#"
   xmlns:rdf="http://www.w3.org/1999/02/22-rdf-syntax-ns#"
   xmlns:svg="http://www.w3.org/2000/svg"
   xmlns="http://www.w3.org/2000/svg"
   xmlns:xlink="http://www.w3.org/1999/xlink"
   xmlns:sodipodi="http://sodipodi.sourceforge.net/DTD/sodipodi-0.dtd"
   xmlns:inkscape="http://www.inkscape.org/namespaces/inkscape"
   version="1.0"
   width="32"
   height="32"
   id="svg11622"
   sodipodi:version="0.32"
   inkscape:version="0.45+devel"
   sodipodi:docname="plugin-text.svg"
   inkscape:output_extension="org.inkscape.output.svg.inkscape">
  <metadata
     id="metadata212">
    <rdf:RDF>
      <cc:Work
         rdf:about="">
        <dc:format>image/svg+xml</dc:format>
        <dc:type
           rdf:resource="http://purl.org/dc/dcmitype/StillImage" />
      </cc:Work>
    </rdf:RDF>
  </metadata>
  <sodipodi:namedview
     inkscape:window-height="680"
     inkscape:window-width="1076"
     inkscape:pageshadow="2"
     inkscape:pageopacity="0.0"
     guidetolerance="10.0"
     gridtolerance="10.0"
     objecttolerance="10.0"
     borderopacity="1.0"
     bordercolor="#666666"
     pagecolor="#ffffff"
     id="base"
     showgrid="false"
     inkscape:showpageshadow="false"
     inkscape:zoom="1"
     inkscape:cx="20"
     inkscape:cy="12.359895"
     inkscape:window-x="127"
     inkscape:window-y="49"
     inkscape:current-layer="svg11622" />
  <defs
     id="defs11624">
    <linearGradient
       id="linearGradient19456">
      <stop
         style="stop-color:black;stop-opacity:1"
         offset="0"
         id="stop19458" />
      <stop
         style="stop-color:black;stop-opacity:0"
         offset="1"
         id="stop19460" />
    </linearGradient>
    <radialGradient
       inkscape:collect="always"
       xlink:href="#linearGradient19456"
       id="radialGradient8259"
       gradientUnits="userSpaceOnUse"
       gradientTransform="matrix(0.4439306,0,0,5.1163825e-2,1.8887645,25.254714)"
       cx="31.731417"
       cy="60.641243"
       fx="31.731417"
       fy="60.641243"
       r="35.974056" />
  </defs>
  <path
     d="M 31.945296,28.357354 C 31.945296,29.373873 24.79529,30.197926 15.975311,30.197926 C 7.1553325,30.197926 0.0053270012,29.373873 0.0053270012,28.357354 C 0.0053270012,27.340834 7.1553325,26.516782 15.975311,26.516782 C 24.79529,26.516782 31.945296,27.340834 31.945296,28.357354 L 31.945296,28.357354 z"
     style="opacity:0.2;fill:url(#radialGradient8259);fill-opacity:1;fill-rule:evenodd;stroke:none;stroke-width:1;stroke-linecap:round;stroke-linejoin:miter;stroke-miterlimit:2;stroke-dasharray:none;stroke-dashoffset:0;stroke-opacity:1"
     id="path18569" />
  <path
     style="font-size:14.79802132px;font-style:normal;font-weight:normal;fill:#000000;fill-opacity:1;stroke:none;stroke-width:1;stroke-linecap:butt;stroke-linejoin:miter;stroke-miterlimit:4;stroke-opacity:1;font-family:Bitstream Vera Sans"
     d="M 0.65625,7.9995011 C 0.64335545,8.0071038 0.63260274,8.0178565 0.625,8.0307511 C 0.61210545,8.0383538 0.60135274,8.0491065 0.59375,8.0620011 C 0.59189415,8.0723351 0.59189415,8.0829171 0.59375,8.0932511 L 0.59375,10.218251 C 0.59189415,10.228585 0.59189415,10.239167 0.59375,10.249501 C 0.60135274,10.262396 0.61210545,10.273148 0.625,10.280751 C 0.63260274,10.293646 0.64335545,10.304399 0.65625,10.312001 C 0.66658401,10.313857 0.67716599,10.313857 0.6875,10.312001 L 4.1875,10.312001 L 4.1875,20.468251 C 4.1856441,20.478585 4.1856441,20.489167 4.1875,20.499501 C 4.1951027,20.512396 4.2058554,20.523148 4.21875,20.530751 C 4.2263527,20.543646 4.2371054,20.554398 4.25,20.562001 C 4.260334,20.563857 4.270916,20.563857 4.28125,20.562001 L 5.65625,20.562001 C 5.666584,20.563857 5.677166,20.563857 5.6875,20.562001 C 5.7003946,20.554398 5.7111473,20.543646 5.71875,20.530751 C 5.7316446,20.523148 5.7423973,20.512396 5.75,20.499501 C 5.7518559,20.489167 5.7518559,20.478585 5.75,20.468251 L 5.75,10.312001 L 9.25,10.312001 C 9.260334,10.313857 9.270916,10.313857 9.28125,10.312001 C 9.2941446,10.304399 9.3048973,10.293646 9.3125,10.280751 C 9.3253946,10.273148 9.3361473,10.262396 9.34375,10.249501 C 9.3456059,10.239167 9.3456059,10.228585 9.34375,10.218251 L 9.34375,8.0932511 C 9.3456059,8.0829171 9.3456059,8.0723351 9.34375,8.0620011 C 9.3361473,8.0491065 9.3253946,8.0383538 9.3125,8.0307511 C 9.3048973,8.0178565 9.2941446,8.0071038 9.28125,7.9995011 C 9.270916,7.9976452 9.260334,7.9976452 9.25,7.9995011 L 0.6875,7.9995011 C 0.67716599,7.9976452 0.66658401,7.9976452 0.65625,7.9995011 L 0.65625,7.9995011 z M 12.65625,9.7807511 C 12.009562,9.7807665 11.405148,10.002105 10.90625,10.468251 C 10.406563,10.926534 10.058657,11.58192 9.84375,12.437001 C 9.6284792,13.285007 9.53125,14.447502 9.53125,15.905751 L 9.53125,20.468251 C 9.5293941,20.478585 9.5293941,20.489167 9.53125,20.499501 C 9.5388527,20.512396 9.5496054,20.523148 9.5625,20.530751 C 9.5701027,20.543646 9.5808554,20.554398 9.59375,20.562001 C 9.604084,20.563857 9.614666,20.563857 9.625,20.562001 L 12.375,20.562001 C 12.385334,20.563857 12.395916,20.563857 12.40625,20.562001 C 12.419145,20.554398 12.429897,20.543646 12.4375,20.530751 C 12.450395,20.523148 12.461147,20.512396 12.46875,20.499501 C 12.470606,20.489167 12.470606,20.478585 12.46875,20.468251 L 12.46875,18.874501 L 15.90625,18.874501 C 15.916584,18.876357 15.927166,18.876357 15.9375,18.874501 C 15.950395,18.866898 15.961147,18.856146 15.96875,18.843251 C 15.981645,18.835648 15.992397,18.824896 16,18.812001 C 16.001856,18.801667 16.001856,18.791085 16,18.780751 L 16,16.562001 C 15.999985,14.94504 15.893147,13.677585 15.6875,12.780751 C 15.486056,11.873743 15.106387,11.171753 14.59375,10.624501 C 14.08267,10.065363 13.444286,9.7807665 12.65625,9.7807511 z M 23.4375,12.843251 C 23.308381,12.843261 23.194884,12.919034 23.09375,13.030751 C 22.992616,13.142468 22.887331,13.296028 22.8125,13.499501 C 22.621065,14.035272 22.298887,14.791547 21.75,15.749501 L 20.5,17.843251 L 19.40625,15.030751 C 19.136581,14.384658 18.896457,13.892955 18.6875,13.562001 C 18.583021,13.396524 18.468151,13.276107 18.375,13.187001 C 18.281849,13.097895 18.196311,13.030757 18.09375,13.030751 C 17.989807,13.03076 17.897713,13.083265 17.8125,13.155751 C 17.727287,13.228237 17.631261,13.332161 17.5625,13.468251 C 17.428752,13.74246 17.375,14.060683 17.375,14.405751 C 17.375001,14.753877 17.477229,15.04671 17.65625,15.343251 C 17.916211,15.767496 18.206754,16.494906 18.5625,17.437001 L 19.4375,19.749501 L 19.09375,20.405751 C 19.091894,20.416085 19.091894,20.426667 19.09375,20.437001 C 19.091894,20.447335 19.091894,20.457917 19.09375,20.468251 C 19.101353,20.481146 19.112105,20.491898 19.125,20.499501 C 19.132603,20.512396 19.143355,20.523148 19.15625,20.530751 C 19.166584,20.532607 19.177166,20.532607 19.1875,20.530751 L 21.46875,20.530751 C 21.479084,20.532607 21.489666,20.532607 21.5,20.530751 C 21.512895,20.523148 21.523647,20.512396 21.53125,20.499501 C 21.544145,20.491898 21.554897,20.481146 21.5625,20.468251 C 21.564356,20.457917 21.564356,20.447335 21.5625,20.437001 C 21.564356,20.426667 21.564356,20.416085 21.5625,20.405751 L 21.375,19.937001 L 22.53125,17.780751 L 23.53125,16.093251 C 23.541584,16.095107 23.552166,16.095107 23.5625,16.093251 C 23.985811,15.284207 24.187484,14.641722 24.1875,14.155751 C 24.187484,13.828523 24.11377,13.540361 23.96875,13.280751 C 23.825802,13.024952 23.657922,12.84327 23.4375,12.843251 z M 12.78125,12.905751 C 12.83413,12.905756 12.867543,12.922445 12.90625,12.968251 C 12.944957,13.014057 12.977042,13.102298 13,13.218251 C 13.04548,13.447903 13.0625,13.983331 13.0625,14.843251 L 13.0625,15.968251 L 12.46875,15.968251 L 12.46875,14.843251 C 12.46875,14.374804 12.46659,14.003517 12.46875,13.718251 C 12.47091,13.432985 12.481352,13.242066 12.5,13.155751 C 12.519384,13.062447 12.547627,13.004746 12.59375,12.968251 C 12.639873,12.931756 12.701249,12.905757 12.78125,12.905751 z M 27.96875,15.937001 C 27.955855,15.944604 27.945103,15.955356 27.9375,15.968251 C 27.720967,16.179261 27.613594,16.253597 27.4375,16.405751 C 27.35713,16.49076 27.277959,16.572011 27.1875,16.655751 C 27.145795,16.694372 27.088654,16.738244 27.03125,16.780751 C 27.018355,16.788354 27.007603,16.799106 27,16.812001 C 26.998144,16.822335 26.998144,16.832917 27,16.843251 L 26.65625,19.405751 C 26.616449,19.413082 26.573502,19.437001 26.5625,19.437001 L 26.28125,19.437001 C 26.233002,19.436999 26.15896,19.44593 26.0625,19.468251 C 26.049605,19.475854 26.038853,19.486606 26.03125,19.499501 C 25.903987,19.649448 25.914954,19.637853 25.71875,19.937001 C 25.69251,19.969398 25.616318,20.043241 25.53125,20.155751 C 25.518355,20.163354 25.507603,20.174106 25.5,20.187001 C 25.498144,20.197335 25.498144,20.207917 25.5,20.218251 C 25.498144,20.228585 25.498144,20.239167 25.5,20.249501 C 25.507603,20.262396 25.518355,20.273148 25.53125,20.280751 C 25.538853,20.293646 25.549605,20.304398 25.5625,20.312001 C 25.572834,20.313857 25.583416,20.313857 25.59375,20.312001 L 25.875,20.312001 L 26.40625,20.312001 L 26.5625,20.312001 C 26.557548,20.343756 26.539596,20.37235 26.53125,20.437001 C 26.529394,20.447335 26.529394,20.457917 26.53125,20.468251 C 26.538853,20.481146 26.549605,20.491898 26.5625,20.499501 C 26.570103,20.512396 26.580855,20.523148 26.59375,20.530751 C 26.604084,20.532607 26.614666,20.532607 26.625,20.530751 L 27.40625,20.530751 C 27.416584,20.532607 27.427166,20.532607 27.4375,20.530751 C 27.450395,20.523148 27.461147,20.512396 27.46875,20.499501 C 27.481645,20.491898 27.492397,20.481146 27.5,20.468251 C 27.501856,20.457917 27.501856,20.447335 27.5,20.437001 C 27.506068,20.391374 27.525282,20.352336 27.53125,20.312001 C 27.622693,20.310335 27.723362,20.312001 27.78125,20.312001 L 28.21875,20.280751 C 28.290088,20.280749 28.406997,20.261475 28.59375,20.218251 C 28.606645,20.210648 28.617397,20.199896 28.625,20.187001 L 29.09375,19.562001 C 29.106645,19.554398 29.117397,19.543646 29.125,19.530751 C 29.126856,19.520417 29.126856,19.509835 29.125,19.499501 C 29.126856,19.489167 29.126856,19.478585 29.125,19.468251 C 29.117397,19.455356 29.106645,19.444604 29.09375,19.437001 C 29.086147,19.424106 29.075395,19.413354 29.0625,19.405751 C 29.052166,19.403895 29.041584,19.403895 29.03125,19.405751 L 27.625,19.405751 L 28.09375,16.030751 C 28.095606,16.020417 28.095606,16.009835 28.09375,15.999501 C 28.086147,15.986606 28.075395,15.975854 28.0625,15.968251 C 28.054897,15.955356 28.044145,15.944604 28.03125,15.937001 C 28.020916,15.935145 28.010334,15.935145 28,15.937001 C 27.989666,15.935145 27.979084,15.935145 27.96875,15.937001 L 27.96875,15.937001 z M 13.28125,19.749501 C 13.268355,19.757104 13.257603,19.767856 13.25,19.780751 C 13.237105,19.788354 13.226353,19.799106 13.21875,19.812001 C 13.216894,19.822335 13.216894,19.832917 13.21875,19.843251 L 13.21875,20.468251 C 13.216894,20.478585 13.216894,20.489167 13.21875,20.499501 C 13.226353,20.512396 13.237105,20.523148 13.25,20.530751 C 13.257603,20.543646 13.268355,20.554398 13.28125,20.562001 C 13.291584,20.563857 13.302166,20.563857 13.3125,20.562001 L 15.90625,20.562001 C 15.916584,20.563857 15.927166,20.563857 15.9375,20.562001 C 15.950395,20.554398 15.961147,20.543646 15.96875,20.530751 C 15.981645,20.523148 15.992397,20.512396 16,20.499501 C 16.001856,20.489167 16.001856,20.478585 16,20.468251 L 16,19.843251 C 16.001856,19.832917 16.001856,19.822335 16,19.812001 C 15.992397,19.799106 15.981645,19.788354 15.96875,19.780751 C 15.961147,19.767856 15.950395,19.757104 15.9375,19.749501 C 15.927166,19.747645 15.916584,19.747645 15.90625,19.749501 L 13.3125,19.749501 C 13.302166,19.747645 13.291584,19.747645 13.28125,19.749501 z"
     id="path9128" />
  <g
     id="g9160"
     transform="translate(0,1.9995011)">
    <rect
       width="1.5605266"
       height="1.4665151"
       x="4.1827111"
       y="-21.336"
       transform="scale(1,-1)"
       style="opacity:0.8;fill:#2e3436;fill-opacity:1;fill-rule:evenodd;stroke:none;stroke-width:0.84574991;stroke-linecap:round;stroke-linejoin:miter;stroke-miterlimit:2;stroke-dasharray:none;stroke-dashoffset:0;stroke-opacity:1"
       id="rect9142" />
    <rect
       id="rect1984"
       style="fill:#2e3436;fill-opacity:1;fill-rule:evenodd;stroke:none;stroke-width:0.84574991;stroke-linecap:round;stroke-linejoin:miter;stroke-miterlimit:2;stroke-dasharray:none;stroke-dashoffset:0;stroke-opacity:1"
       transform="scale(1,-1)"
       y="-19.935966"
       x="4.1827111"
       height="1.4665151"
       width="1.5605266" />
    <rect
       id="rect9144"
       style="opacity:0.6;fill:#2e3436;fill-opacity:1;fill-rule:evenodd;stroke:none;stroke-width:0.84574991;stroke-linecap:round;stroke-linejoin:miter;stroke-miterlimit:2;stroke-dasharray:none;stroke-dashoffset:0;stroke-opacity:1"
       transform="scale(1,-1)"
       y="-22.736"
       x="4.1827111"
       height="1.4040151"
       width="1.5605266" />
    <rect
       width="1.5605266"
       height="1.4040151"
       x="4.1827111"
       y="-24.136"
       transform="scale(1,-1)"
       style="opacity:0.4;fill:#2e3436;fill-opacity:1;fill-rule:evenodd;stroke:none;stroke-width:0.84574991;stroke-linecap:round;stroke-linejoin:miter;stroke-miterlimit:2;stroke-dasharray:none;stroke-dashoffset:0;stroke-opacity:1"
       id="rect9146" />
    <rect
       id="rect9148"
       style="opacity:0.2;fill:#2e3436;fill-opacity:1;fill-rule:evenodd;stroke:none;stroke-width:0.84574991;stroke-linecap:round;stroke-linejoin:miter;stroke-miterlimit:2;stroke-dasharray:none;stroke-dashoffset:0;stroke-opacity:1"
       transform="scale(1,-1)"
       y="-25.535999"
       x="4.1827111"
       height="1.4040151"
       width="1.5605266" />
    <rect
       id="rect9150"
       style="opacity:0.8;fill:none;fill-opacity:1;fill-rule:evenodd;stroke:#ffffff;stroke-width:0.2;stroke-linecap:round;stroke-linejoin:miter;stroke-miterlimit:2;stroke-dasharray:none;stroke-dashoffset:0;stroke-opacity:1"
       transform="scale(1,-1)"
       y="-19.593813"
       x="4.5342736"
       height="0.80245256"
       width="0.85900295" />
    <rect
       width="0.85900295"
       height="0.80245256"
       x="4.5342736"
       y="-21.030001"
       transform="scale(1,-1)"
       style="opacity:0.8;fill:none;fill-opacity:1;fill-rule:evenodd;stroke:#ffffff;stroke-width:0.2;stroke-linecap:round;stroke-linejoin:miter;stroke-miterlimit:2;stroke-dasharray:none;stroke-dashoffset:0;stroke-opacity:1"
       id="rect9152" />
    <rect
       id="rect9154"
       style="opacity:0.8;fill:none;fill-opacity:1;fill-rule:evenodd;stroke:#ffffff;stroke-width:0.2;stroke-linecap:round;stroke-linejoin:miter;stroke-miterlimit:2;stroke-dasharray:none;stroke-dashoffset:0;stroke-opacity:1"
       transform="scale(1,-1)"
       y="-22.43"
       x="4.5342736"
       height="0.80245256"
       width="0.85900295" />
    <rect
       width="0.85900295"
       height="0.80245256"
       x="4.5342736"
       y="-23.83"
       transform="scale(1,-1)"
       style="opacity:0.8;fill:none;fill-opacity:1;fill-rule:evenodd;stroke:#ffffff;stroke-width:0.2;stroke-linecap:round;stroke-linejoin:miter;stroke-miterlimit:2;stroke-dasharray:none;stroke-dashoffset:0;stroke-opacity:1"
       id="rect9156" />
    <rect
       id="rect9158"
       style="opacity:0.8;fill:none;fill-opacity:1;fill-rule:evenodd;stroke:#ffffff;stroke-width:0.2;stroke-linecap:round;stroke-linejoin:miter;stroke-miterlimit:2;stroke-dasharray:none;stroke-dashoffset:0;stroke-opacity:1"
       transform="scale(1,-1)"
       y="-25.23"
       x="4.5342736"
       height="0.80245256"
       width="0.85900295" />
  </g>
  <rect
     width="1.4608889"
     height="1.4665151"
     x="9.5399799"
     y="-23.379694"
     transform="scale(1,-1)"
     style="opacity:0.8;fill:#2e3436;fill-opacity:1;fill-rule:evenodd;stroke:none;stroke-width:0.84574991;stroke-linecap:round;stroke-linejoin:miter;stroke-miterlimit:2;stroke-dasharray:none;stroke-dashoffset:0;stroke-opacity:1"
     id="rect9174" />
  <rect
     id="rect9176"
     style="fill:#2e3436;fill-opacity:1;fill-rule:evenodd;stroke:none;stroke-width:0.84574991;stroke-linecap:round;stroke-linejoin:miter;stroke-miterlimit:2;stroke-dasharray:none;stroke-dashoffset:0;stroke-opacity:1"
     transform="scale(1,-1)"
     y="-21.97966"
     x="9.5399799"
     height="1.4665151"
     width="1.4608889" />
  <rect
     id="rect9178"
     style="opacity:0.6;fill:#2e3436;fill-opacity:1;fill-rule:evenodd;stroke:none;stroke-width:0.84574991;stroke-linecap:round;stroke-linejoin:miter;stroke-miterlimit:2;stroke-dasharray:none;stroke-dashoffset:0;stroke-opacity:1"
     transform="scale(1,-1)"
     y="-24.779694"
     x="9.5399799"
     height="1.4040151"
     width="1.4608889" />
  <rect
     width="1.6191372"
     height="1.4040151"
     x="10.43"
     y="-26.179693"
     transform="scale(1,-1)"
     style="opacity:0.4;fill:#2e3436;fill-opacity:1;fill-rule:evenodd;stroke:none;stroke-width:0.84574991;stroke-linecap:round;stroke-linejoin:miter;stroke-miterlimit:2;stroke-dasharray:none;stroke-dashoffset:0;stroke-opacity:1"
     id="rect9180" />
  <rect
     id="rect9184"
     style="opacity:0.8;fill:none;fill-opacity:1;fill-rule:evenodd;stroke:#ffffff;stroke-width:0.2;stroke-linecap:round;stroke-linejoin:miter;stroke-miterlimit:2;stroke-dasharray:none;stroke-dashoffset:0;stroke-opacity:1"
     transform="scale(1,-1)"
     y="-21.637506"
     x="9.8690958"
     height="0.80245256"
     width="0.80415666" />
  <rect
     width="0.80415666"
     height="0.80245256"
     x="9.8690958"
     y="-23.073694"
     transform="scale(1,-1)"
     style="opacity:0.8;fill:none;fill-opacity:1;fill-rule:evenodd;stroke:#ffffff;stroke-width:0.2;stroke-linecap:round;stroke-linejoin:miter;stroke-miterlimit:2;stroke-dasharray:none;stroke-dashoffset:0;stroke-opacity:1"
     id="rect9186" />
  <rect
     id="rect9188"
     style="opacity:0.8;fill:none;fill-opacity:1;fill-rule:evenodd;stroke:#ffffff;stroke-width:0.2;stroke-linecap:round;stroke-linejoin:miter;stroke-miterlimit:2;stroke-dasharray:none;stroke-dashoffset:0;stroke-opacity:1"
     transform="scale(1,-1)"
     y="-24.473694"
     x="9.8690958"
     height="0.80245256"
     width="0.80415666" />
  <rect
     width="0.89126557"
     height="0.80245256"
     x="10.794766"
     y="-25.873693"
     transform="scale(1,-1)"
     style="opacity:0.8;fill:none;fill-opacity:1;fill-rule:evenodd;stroke:#ffffff;stroke-width:0.2;stroke-linecap:round;stroke-linejoin:miter;stroke-miterlimit:2;stroke-dasharray:none;stroke-dashoffset:0;stroke-opacity:1"
     id="rect9190" />
  <rect
     id="rect9240"
     style="opacity:0.8;fill:#2e3436;fill-opacity:1;fill-rule:evenodd;stroke:none;stroke-width:0.84574991;stroke-linecap:round;stroke-linejoin:miter;stroke-miterlimit:2;stroke-dasharray:none;stroke-dashoffset:0;stroke-opacity:1"
     transform="scale(1,-1)"
     y="-23.379694"
     x="11.000183"
     height="1.4665151"
     width="1.4608889" />
  <rect
     width="1.4608889"
     height="1.4665151"
     x="11.000183"
     y="-21.97966"
     transform="scale(1,-1)"
     style="fill:#2e3436;fill-opacity:1;fill-rule:evenodd;stroke:none;stroke-width:0.84574991;stroke-linecap:round;stroke-linejoin:miter;stroke-miterlimit:2;stroke-dasharray:none;stroke-dashoffset:0;stroke-opacity:1"
     id="rect9242" />
  <rect
     width="1.4608889"
     height="1.4040151"
     x="11.000183"
     y="-24.779694"
     transform="scale(1,-1)"
     style="opacity:0.6;fill:#2e3436;fill-opacity:1;fill-rule:evenodd;stroke:none;stroke-width:0.84574991;stroke-linecap:round;stroke-linejoin:miter;stroke-miterlimit:2;stroke-dasharray:none;stroke-dashoffset:0;stroke-opacity:1"
     id="rect9244" />
  <rect
     id="rect9246"
     style="opacity:0.4;fill:#2e3436;fill-opacity:1;fill-rule:evenodd;stroke:none;stroke-width:0.84574991;stroke-linecap:round;stroke-linejoin:miter;stroke-miterlimit:2;stroke-dasharray:none;stroke-dashoffset:0;stroke-opacity:1"
     transform="scale(1,-1)"
     y="-26.179693"
     x="12.048377"
     height="1.4040151"
     width="1.6191372" />
  <rect
     width="1.6191372"
     height="1.4040151"
     x="11.148583"
     y="-27.579693"
     transform="scale(1,-1)"
     style="opacity:0.2;fill:#2e3436;fill-opacity:1;fill-rule:evenodd;stroke:none;stroke-width:0.84574991;stroke-linecap:round;stroke-linejoin:miter;stroke-miterlimit:2;stroke-dasharray:none;stroke-dashoffset:0;stroke-opacity:1"
     id="rect9248" />
  <rect
     width="0.80415666"
     height="0.80245256"
     x="11.329298"
     y="-21.637506"
     transform="scale(1,-1)"
     style="opacity:0.8;fill:none;fill-opacity:1;fill-rule:evenodd;stroke:#ffffff;stroke-width:0.2;stroke-linecap:round;stroke-linejoin:miter;stroke-miterlimit:2;stroke-dasharray:none;stroke-dashoffset:0;stroke-opacity:1"
     id="rect9250" />
  <rect
     id="rect9252"
     style="opacity:0.8;fill:none;fill-opacity:1;fill-rule:evenodd;stroke:#ffffff;stroke-width:0.2;stroke-linecap:round;stroke-linejoin:miter;stroke-miterlimit:2;stroke-dasharray:none;stroke-dashoffset:0;stroke-opacity:1"
     transform="scale(1,-1)"
     y="-23.073694"
     x="11.329298"
     height="0.80245256"
     width="0.80415666" />
  <rect
     width="0.80415666"
     height="0.80245256"
     x="11.329298"
     y="-24.473694"
     transform="scale(1,-1)"
     style="opacity:0.8;fill:none;fill-opacity:1;fill-rule:evenodd;stroke:#ffffff;stroke-width:0.2;stroke-linecap:round;stroke-linejoin:miter;stroke-miterlimit:2;stroke-dasharray:none;stroke-dashoffset:0;stroke-opacity:1"
     id="rect9254" />
  <rect
     id="rect9256"
     style="opacity:0.8;fill:none;fill-opacity:1;fill-rule:evenodd;stroke:#ffffff;stroke-width:0.2;stroke-linecap:round;stroke-linejoin:miter;stroke-miterlimit:2;stroke-dasharray:none;stroke-dashoffset:0;stroke-opacity:1"
     transform="scale(1,-1)"
     y="-25.873693"
     x="12.413143"
     height="0.80245256"
     width="0.89126557" />
  <rect
     width="0.89126557"
     height="0.80245256"
     x="11.51335"
     y="-27.273693"
     transform="scale(1,-1)"
     style="opacity:0.8;fill:none;fill-opacity:1;fill-rule:evenodd;stroke:#ffffff;stroke-width:0.2;stroke-linecap:round;stroke-linejoin:miter;stroke-miterlimit:2;stroke-dasharray:none;stroke-dashoffset:0;stroke-opacity:1"
     id="rect9258" />
  <rect
     width="1.3859457"
     height="1.4665151"
     x="13.219076"
     y="-23.379694"
     transform="scale(1,-1)"
     style="opacity:0.8;fill:#2e3436;fill-opacity:1;fill-rule:evenodd;stroke:none;stroke-width:0.84574991;stroke-linecap:round;stroke-linejoin:miter;stroke-miterlimit:2;stroke-dasharray:none;stroke-dashoffset:0;stroke-opacity:1"
     id="rect9262" />
  <rect
     id="rect9264"
     style="fill:#2e3436;fill-opacity:1;fill-rule:evenodd;stroke:none;stroke-width:0.84574991;stroke-linecap:round;stroke-linejoin:miter;stroke-miterlimit:2;stroke-dasharray:none;stroke-dashoffset:0;stroke-opacity:1"
     transform="scale(1,-1)"
     y="-21.97966"
     x="13.219076"
     height="1.4665151"
     width="1.3859457" />
  <rect
     id="rect9266"
     style="opacity:0.6;fill:#2e3436;fill-opacity:1;fill-rule:evenodd;stroke:none;stroke-width:0.84574991;stroke-linecap:round;stroke-linejoin:miter;stroke-miterlimit:2;stroke-dasharray:none;stroke-dashoffset:0;stroke-opacity:1"
     transform="scale(1,-1)"
     y="-24.779694"
     x="13.219076"
     height="1.4040151"
     width="1.3859457" />
  <rect
     width="1.6191372"
     height="1.4040151"
     x="13.666967"
     y="-26.179693"
     transform="scale(1,-1)"
     style="opacity:0.4;fill:#2e3436;fill-opacity:1;fill-rule:evenodd;stroke:none;stroke-width:0.84574991;stroke-linecap:round;stroke-linejoin:miter;stroke-miterlimit:2;stroke-dasharray:none;stroke-dashoffset:0;stroke-opacity:1"
     id="rect9268" />
  <rect
     id="rect9270"
     style="opacity:0.2;fill:#2e3436;fill-opacity:1;fill-rule:evenodd;stroke:none;stroke-width:0.84574991;stroke-linecap:round;stroke-linejoin:miter;stroke-miterlimit:2;stroke-dasharray:none;stroke-dashoffset:0;stroke-opacity:1"
     transform="scale(1,-1)"
     y="-27.579693"
     x="12.767174"
     height="1.4040151"
     width="1.6191372" />
  <rect
     id="rect9272"
     style="opacity:0.8;fill:none;fill-opacity:1;fill-rule:evenodd;stroke:#ffffff;stroke-width:0.2;stroke-linecap:round;stroke-linejoin:miter;stroke-miterlimit:2;stroke-dasharray:none;stroke-dashoffset:0;stroke-opacity:1"
     transform="scale(1,-1)"
     y="-21.637506"
     x="13.531308"
     height="0.80245256"
     width="0.76290363" />
  <rect
     width="0.76290363"
     height="0.80245256"
     x="13.531308"
     y="-23.073694"
     transform="scale(1,-1)"
     style="opacity:0.8;fill:none;fill-opacity:1;fill-rule:evenodd;stroke:#ffffff;stroke-width:0.2;stroke-linecap:round;stroke-linejoin:miter;stroke-miterlimit:2;stroke-dasharray:none;stroke-dashoffset:0;stroke-opacity:1"
     id="rect9274" />
  <rect
     id="rect9276"
     style="opacity:0.8;fill:none;fill-opacity:1;fill-rule:evenodd;stroke:#ffffff;stroke-width:0.2;stroke-linecap:round;stroke-linejoin:miter;stroke-miterlimit:2;stroke-dasharray:none;stroke-dashoffset:0;stroke-opacity:1"
     transform="scale(1,-1)"
     y="-24.473694"
     x="13.531308"
     height="0.80245256"
     width="0.76290363" />
  <rect
     width="0.89126557"
     height="0.80245256"
     x="14.031734"
     y="-25.873693"
     transform="scale(1,-1)"
     style="opacity:0.8;fill:none;fill-opacity:1;fill-rule:evenodd;stroke:#ffffff;stroke-width:0.2;stroke-linecap:round;stroke-linejoin:miter;stroke-miterlimit:2;stroke-dasharray:none;stroke-dashoffset:0;stroke-opacity:1"
     id="rect9278" />
  <rect
     id="rect9280"
     style="opacity:0.8;fill:none;fill-opacity:1;fill-rule:evenodd;stroke:#ffffff;stroke-width:0.2;stroke-linecap:round;stroke-linejoin:miter;stroke-miterlimit:2;stroke-dasharray:none;stroke-dashoffset:0;stroke-opacity:1"
     transform="scale(1,-1)"
     y="-27.273693"
     x="13.131941"
     height="0.80245256"
     width="0.89126557" />
  <rect
     id="rect9284"
     style="opacity:0.8;fill:#2e3436;fill-opacity:1;fill-rule:evenodd;stroke:none;stroke-width:0.84574991;stroke-linecap:round;stroke-linejoin:miter;stroke-miterlimit:2;stroke-dasharray:none;stroke-dashoffset:0;stroke-opacity:1"
     transform="scale(1,-1)"
     y="-23.379694"
     x="14.604554"
     height="1.4665151"
     width="1.3859457" />
  <rect
     width="1.3859457"
     height="1.4665151"
     x="14.604554"
     y="-21.97966"
     transform="scale(1,-1)"
     style="fill:#2e3436;fill-opacity:1;fill-rule:evenodd;stroke:none;stroke-width:0.84574991;stroke-linecap:round;stroke-linejoin:miter;stroke-miterlimit:2;stroke-dasharray:none;stroke-dashoffset:0;stroke-opacity:1"
     id="rect9286" />
  <rect
     width="1.3859457"
     height="1.4040151"
     x="14.604554"
     y="-24.779694"
     transform="scale(1,-1)"
     style="opacity:0.6;fill:#2e3436;fill-opacity:1;fill-rule:evenodd;stroke:none;stroke-width:0.84574991;stroke-linecap:round;stroke-linejoin:miter;stroke-miterlimit:2;stroke-dasharray:none;stroke-dashoffset:0;stroke-opacity:1"
     id="rect9288" />
  <rect
     width="0.76290363"
     height="0.80245256"
     x="14.916787"
     y="-21.637506"
     transform="scale(1,-1)"
     style="opacity:0.8;fill:none;fill-opacity:1;fill-rule:evenodd;stroke:#ffffff;stroke-width:0.2;stroke-linecap:round;stroke-linejoin:miter;stroke-miterlimit:2;stroke-dasharray:none;stroke-dashoffset:0;stroke-opacity:1"
     id="rect9294" />
  <rect
     id="rect9296"
     style="opacity:0.8;fill:none;fill-opacity:1;fill-rule:evenodd;stroke:#ffffff;stroke-width:0.2;stroke-linecap:round;stroke-linejoin:miter;stroke-miterlimit:2;stroke-dasharray:none;stroke-dashoffset:0;stroke-opacity:1"
     transform="scale(1,-1)"
     y="-23.073694"
     x="14.916787"
     height="0.80245256"
     width="0.76290363" />
  <rect
     width="0.76290363"
     height="0.80245256"
     x="14.916787"
     y="-24.473694"
     transform="scale(1,-1)"
     style="opacity:0.8;fill:none;fill-opacity:1;fill-rule:evenodd;stroke:#ffffff;stroke-width:0.2;stroke-linecap:round;stroke-linejoin:miter;stroke-miterlimit:2;stroke-dasharray:none;stroke-dashoffset:0;stroke-opacity:1"
     id="rect9298" />
  <rect
     id="rect9348"
     style="fill:#2e3436;fill-opacity:1;fill-rule:evenodd;stroke:none;stroke-width:0.84574991;stroke-linecap:round;stroke-linejoin:miter;stroke-miterlimit:2;stroke-dasharray:none;stroke-dashoffset:0;stroke-opacity:1"
     transform="scale(1,-1)"
     y="-21.919842"
     x="19.078829"
     height="1.4665151"
     width="1.2482289" />
  <rect
     id="rect9356"
     style="opacity:0.8;fill:none;fill-opacity:1;fill-rule:evenodd;stroke:#ffffff;stroke-width:0.20000002;stroke-linecap:round;stroke-linejoin:miter;stroke-miterlimit:2;stroke-dasharray:none;stroke-dashoffset:0;stroke-opacity:1"
     transform="scale(1,-1)"
     y="-21.577688"
     x="19.360035"
     height="0.80245256"
     width="0.68709642" />
  <rect
     width="1.2482289"
     height="1.4665151"
     x="20.328672"
     y="-21.919842"
     transform="scale(1,-1)"
     style="fill:#2e3436;fill-opacity:1;fill-rule:evenodd;stroke:none;stroke-width:0.84574991;stroke-linecap:round;stroke-linejoin:miter;stroke-miterlimit:2;stroke-dasharray:none;stroke-dashoffset:0;stroke-opacity:1"
     id="rect9370" />
  <rect
     width="0.68709642"
     height="0.80245256"
     x="20.60988"
     y="-21.577688"
     transform="scale(1,-1)"
     style="opacity:0.8;fill:none;fill-opacity:1;fill-rule:evenodd;stroke:#ffffff;stroke-width:0.20000002;stroke-linecap:round;stroke-linejoin:miter;stroke-miterlimit:2;stroke-dasharray:none;stroke-dashoffset:0;stroke-opacity:1"
     id="rect9378" />
  <rect
     id="rect9390"
     style="opacity:0.8;fill:#2e3436;fill-opacity:1;fill-rule:evenodd;stroke:none;stroke-width:0.84574991;stroke-linecap:round;stroke-linejoin:miter;stroke-miterlimit:2;stroke-dasharray:none;stroke-dashoffset:0;stroke-opacity:1"
     transform="scale(1,-1)"
     y="-23.581327"
     x="18.444719"
     height="1.6967937"
     width="1.4497977" />
  <rect
     width="1.4587706"
     height="1.635924"
     x="17.85025"
     y="-24.982141"
     transform="scale(1,-1)"
     style="opacity:0.6;fill:#2e3436;fill-opacity:1;fill-rule:evenodd;stroke:none;stroke-width:0.84574991;stroke-linecap:round;stroke-linejoin:miter;stroke-miterlimit:2;stroke-dasharray:none;stroke-dashoffset:0;stroke-opacity:1"
     id="rect9394" />
  <rect
     id="rect9402"
     style="opacity:0.8;fill:none;fill-opacity:1;fill-rule:evenodd;stroke:#ffffff;stroke-width:0.20000003;stroke-linecap:round;stroke-linejoin:miter;stroke-miterlimit:2;stroke-dasharray:none;stroke-dashoffset:0;stroke-opacity:1"
     transform="scale(1,-1)"
     y="-23.227278"
     x="18.771336"
     height="0.9284572"
     width="0.79805142" />
  <rect
     width="0.80299056"
     height="0.9349981"
     x="18.178886"
     y="-24.625599"
     transform="scale(1,-1)"
     style="opacity:0.8;fill:none;fill-opacity:1;fill-rule:evenodd;stroke:#ffffff;stroke-width:0.2;stroke-linecap:round;stroke-linejoin:miter;stroke-miterlimit:2;stroke-dasharray:none;stroke-dashoffset:0;stroke-opacity:1"
     id="rect9404" />
  <rect
     width="1.4503376"
     height="1.6973802"
     x="20.904871"
     y="-23.589989"
     transform="scale(1,-1)"
     style="opacity:0.8;fill:#2e3436;fill-opacity:1;fill-rule:evenodd;stroke:none;stroke-width:0.84574991;stroke-linecap:round;stroke-linejoin:miter;stroke-miterlimit:2;stroke-dasharray:none;stroke-dashoffset:0;stroke-opacity:1"
     id="rect9412" />
  <rect
     id="rect9416"
     style="opacity:0.6;fill:#2e3436;fill-opacity:1;fill-rule:evenodd;stroke:none;stroke-width:0.84574991;stroke-linecap:round;stroke-linejoin:miter;stroke-miterlimit:2;stroke-dasharray:none;stroke-dashoffset:0;stroke-opacity:1"
     transform="scale(1,-1)"
     y="-24.963552"
     x="21.492146"
     height="1.6069003"
     width="1.4324211" />
  <rect
     width="0.79834861"
     height="0.92877817"
     x="21.231609"
     y="-23.235817"
     transform="scale(1,-1)"
     style="opacity:0.8;fill:none;fill-opacity:1;fill-rule:evenodd;stroke:#ffffff;stroke-width:0.20000002;stroke-linecap:round;stroke-linejoin:miter;stroke-miterlimit:2;stroke-dasharray:none;stroke-dashoffset:0;stroke-opacity:1"
     id="rect9424" />
  <rect
     id="rect9426"
     style="opacity:0.8;fill:none;fill-opacity:1;fill-rule:evenodd;stroke:#ffffff;stroke-width:0.20000002;stroke-linecap:round;stroke-linejoin:miter;stroke-miterlimit:2;stroke-dasharray:none;stroke-dashoffset:0;stroke-opacity:1"
     transform="scale(1,-1)"
     y="-24.613335"
     x="21.814848"
     height="0.91840982"
     width="0.7884863" />
  <rect
     width="1.4587706"
     height="1.635924"
     x="17.21114"
     y="-26.382141"
     transform="scale(1,-1)"
     style="opacity:0.4;fill:#2e3436;fill-opacity:1;fill-rule:evenodd;stroke:none;stroke-width:0.84574991;stroke-linecap:round;stroke-linejoin:miter;stroke-miterlimit:2;stroke-dasharray:none;stroke-dashoffset:0;stroke-opacity:1"
     id="rect9440" />
  <rect
     id="rect9442"
     style="opacity:0.2;fill:#2e3436;fill-opacity:1;fill-rule:evenodd;stroke:none;stroke-width:0.84574991;stroke-linecap:round;stroke-linejoin:miter;stroke-miterlimit:2;stroke-dasharray:none;stroke-dashoffset:0;stroke-opacity:1"
     transform="scale(1,-1)"
     y="-28.016998"
     x="16.291224"
     height="1.8625722"
     width="1.6643482" />
  <rect
     width="0.80299056"
     height="0.9349981"
     x="17.539778"
     y="-26.025599"
     transform="scale(1,-1)"
     style="opacity:0.8;fill:none;fill-opacity:1;fill-rule:evenodd;stroke:#ffffff;stroke-width:0.2;stroke-linecap:round;stroke-linejoin:miter;stroke-miterlimit:2;stroke-dasharray:none;stroke-dashoffset:0;stroke-opacity:1"
     id="rect9450" />
  <rect
     id="rect9452"
     style="opacity:0.8;fill:none;fill-opacity:1;fill-rule:evenodd;stroke:#ffffff;stroke-width:0.20000002;stroke-linecap:round;stroke-linejoin:miter;stroke-miterlimit:2;stroke-dasharray:none;stroke-dashoffset:0;stroke-opacity:1"
     transform="scale(1,-1)"
     y="-27.611055"
     x="16.666178"
     height="1.0645368"
     width="0.91615224" />
  <rect
     id="rect9462"
     style="opacity:0.4;fill:#2e3436;fill-opacity:1;fill-rule:evenodd;stroke:none;stroke-width:0.84574991;stroke-linecap:round;stroke-linejoin:miter;stroke-miterlimit:2;stroke-dasharray:none;stroke-dashoffset:0;stroke-opacity:1"
     transform="scale(1,-1)"
     y="-26.403393"
     x="22.062685"
     height="1.6616915"
     width="1.4821641" />
  <rect
     width="1.7218659"
     height="1.92572"
     x="22.651152"
     y="-28.059664"
     transform="scale(1,-1)"
     style="opacity:0.2;fill:#2e3436;fill-opacity:1;fill-rule:evenodd;stroke:none;stroke-width:0.84574991;stroke-linecap:round;stroke-linejoin:miter;stroke-miterlimit:2;stroke-dasharray:none;stroke-dashoffset:0;stroke-opacity:1"
     id="rect9464" />
  <rect
     id="rect9472"
     style="opacity:0.8;fill:none;fill-opacity:1;fill-rule:evenodd;stroke:#ffffff;stroke-width:0.2;stroke-linecap:round;stroke-linejoin:miter;stroke-miterlimit:2;stroke-dasharray:none;stroke-dashoffset:0;stroke-opacity:1"
     transform="scale(1,-1)"
     y="-26.041231"
     x="22.396593"
     height="0.94972533"
     width="0.81586772" />
  <rect
     width="0.94781321"
     height="1.1006285"
     x="23.039061"
     y="-27.639961"
     transform="scale(1,-1)"
     style="opacity:0.8;fill:none;fill-opacity:1;fill-rule:evenodd;stroke:#ffffff;stroke-width:0.20000002;stroke-linecap:round;stroke-linejoin:miter;stroke-miterlimit:2;stroke-dasharray:none;stroke-dashoffset:0;stroke-opacity:1"
     id="rect9474" />
  <rect
     width="1.6847452"
     height="1.5832503"
     x="25.983"
     y="-23.563679"
     transform="scale(1,-1)"
     style="opacity:0.8;fill:#2e3436;fill-opacity:1;fill-rule:evenodd;stroke:none;stroke-width:0.84574991;stroke-linecap:round;stroke-linejoin:miter;stroke-miterlimit:2;stroke-dasharray:none;stroke-dashoffset:0;stroke-opacity:1"
     id="rect9538" />
  <rect
     id="rect9540"
     style="fill:#2e3436;fill-opacity:1;fill-rule:evenodd;stroke:none;stroke-width:0.84574991;stroke-linecap:round;stroke-linejoin:miter;stroke-miterlimit:2;stroke-dasharray:none;stroke-dashoffset:0;stroke-opacity:1"
     transform="scale(1,-1)"
     y="-22.052202"
     x="26.182713"
     height="1.5832503"
     width="1.6847452" />
  <rect
     id="rect9542"
     style="opacity:0.6;fill:#2e3436;fill-opacity:1;fill-rule:evenodd;stroke:none;stroke-width:0.84574991;stroke-linecap:round;stroke-linejoin:miter;stroke-miterlimit:2;stroke-dasharray:none;stroke-dashoffset:0;stroke-opacity:1"
     transform="scale(1,-1)"
     y="-25.075119"
     x="25.783001"
     height="1.5157752"
     width="1.6847452" />
  <rect
     width="1.6847452"
     height="1.5157752"
     x="25.583"
     y="-26.586559"
     transform="scale(1,-1)"
     style="opacity:0.4;fill:#2e3436;fill-opacity:1;fill-rule:evenodd;stroke:none;stroke-width:0.84574991;stroke-linecap:round;stroke-linejoin:miter;stroke-miterlimit:2;stroke-dasharray:none;stroke-dashoffset:0;stroke-opacity:1"
     id="rect9544" />
  <rect
     id="rect9546"
     style="opacity:0.2;fill:#2e3436;fill-opacity:1;fill-rule:evenodd;stroke:none;stroke-width:0.84574991;stroke-linecap:round;stroke-linejoin:miter;stroke-miterlimit:2;stroke-dasharray:none;stroke-dashoffset:0;stroke-opacity:1"
     transform="scale(1,-1)"
     y="-28.098"
     x="25.983"
     height="1.5157752"
     width="1.6847452" />
  <rect
     id="rect9548"
     style="opacity:0.8;fill:none;fill-opacity:1;fill-rule:evenodd;stroke:#ffffff;stroke-width:0.20000002;stroke-linecap:round;stroke-linejoin:miter;stroke-miterlimit:2;stroke-dasharray:none;stroke-dashoffset:0;stroke-opacity:1"
     transform="scale(1,-1)"
     y="-21.682814"
     x="26.562258"
     height="0.86632812"
     width="0.92737991" />
  <rect
     width="0.92737991"
     height="0.86632812"
     x="26.362545"
     y="-23.233322"
     transform="scale(1,-1)"
     style="opacity:0.8;fill:none;fill-opacity:1;fill-rule:evenodd;stroke:#ffffff;stroke-width:0.20000002;stroke-linecap:round;stroke-linejoin:miter;stroke-miterlimit:2;stroke-dasharray:none;stroke-dashoffset:0;stroke-opacity:1"
     id="rect9550" />
  <rect
     id="rect9552"
     style="opacity:0.8;fill:none;fill-opacity:1;fill-rule:evenodd;stroke:#ffffff;stroke-width:0.20000002;stroke-linecap:round;stroke-linejoin:miter;stroke-miterlimit:2;stroke-dasharray:none;stroke-dashoffset:0;stroke-opacity:1"
     transform="scale(1,-1)"
     y="-24.744762"
     x="26.162546"
     height="0.86632812"
     width="0.92737991" />
  <rect
     width="0.92737991"
     height="0.86632812"
     x="25.962545"
     y="-26.256203"
     transform="scale(1,-1)"
     style="opacity:0.8;fill:none;fill-opacity:1;fill-rule:evenodd;stroke:#ffffff;stroke-width:0.20000002;stroke-linecap:round;stroke-linejoin:miter;stroke-miterlimit:2;stroke-dasharray:none;stroke-dashoffset:0;stroke-opacity:1"
     id="rect9554" />
  <rect
     id="rect9556"
     style="opacity:0.8;fill:none;fill-opacity:1;fill-rule:evenodd;stroke:#ffffff;stroke-width:0.20000002;stroke-linecap:round;stroke-linejoin:miter;stroke-miterlimit:2;stroke-dasharray:none;stroke-dashoffset:0;stroke-opacity:1"
     transform="scale(1,-1)"
     y="-27.767643"
     x="26.362545"
     height="0.86632812"
     width="0.92737991" />
  <rect
     id="rect9568"
     style="opacity:0.3;fill:#2e3436;fill-opacity:1;fill-rule:evenodd;stroke:none;stroke-width:0.84574991;stroke-linecap:round;stroke-linejoin:miter;stroke-miterlimit:2;stroke-dasharray:none;stroke-dashoffset:0;stroke-opacity:1"
     transform="scale(1,-1)"
     y="-27.186501"
     x="27.683001"
     height="1.5157752"
     width="1.6847452" />
  <rect
     id="rect9570"
     style="opacity:0.8;fill:none;fill-opacity:1;fill-rule:evenodd;stroke:#ffffff;stroke-width:0.20000002;stroke-linecap:round;stroke-linejoin:miter;stroke-miterlimit:2;stroke-dasharray:none;stroke-dashoffset:0;stroke-opacity:1"
     transform="scale(1,-1)"
     y="-26.856144"
     x="28.062546"
     height="0.86632812"
     width="0.92737991" />
  <rect
     width="1.6847452"
     height="1.5157752"
     x="27.983"
     y="-25.686501"
     transform="scale(1,-1)"
     style="opacity:0.5;fill:#2e3436;fill-opacity:1;fill-rule:evenodd;stroke:none;stroke-width:0.84574991;stroke-linecap:round;stroke-linejoin:miter;stroke-miterlimit:2;stroke-dasharray:none;stroke-dashoffset:0;stroke-opacity:1"
     id="rect9572" />
  <rect
     width="0.92737991"
     height="0.86632812"
     x="28.362545"
     y="-25.356144"
     transform="scale(1,-1)"
     style="opacity:0.8;fill:none;fill-opacity:1;fill-rule:evenodd;stroke:#ffffff;stroke-width:0.20000002;stroke-linecap:round;stroke-linejoin:miter;stroke-miterlimit:2;stroke-dasharray:none;stroke-dashoffset:0;stroke-opacity:1"
     id="rect9574" />
</svg>
